<svg width="121" height="57" fill="none" xmlns="http://www.w3.org/2000/svg"><g clip-path="url(#clip0_2499_15151)"><path d="M0 22.793v21.724c2.15.264 4.257.44 6.408.483 11.937 0 16.59-5.354 16.59-11.367.043-7.856-8.866-11.981-22.998-10.84z" fill="url(#paint0_linear_2499_15151)"/><path opacity=".7" d="M17.265 25.059c.691-1.314 1.037-2.756 1.124-4.199C18.345 16.276 13.21 10.368 0 11.382v11.41c7.337-.592 13.266.235 17.265 2.267z" fill="url(#paint1_linear_2499_15151)"/></g><path d="M33.638 34.875h4.724c2.475 0 4.388-1.575 4.388-3.881 0-2.363-1.856-3.038-2.044-3.075.188-.056 1.369-.825 1.369-2.419 0-2.756-2.044-3.75-4.181-3.75h-4.256v13.125zm4.65-2.138h-2.4V29.25h2.4c1.237 0 2.175.506 2.175 1.744 0 1.237-.938 1.743-2.175 1.743zm-2.4-5.625v-3.224h1.93c1.107 0 1.97.468 1.97 1.612 0 1.144-.713 1.613-1.97 1.613h-1.93zm12.034 6.113c-.694 0-1.612-.206-1.612-1.144 0-.956.956-1.256 1.65-1.256 1.218 0 2.025.45 2.025.45v.919s-.713 1.031-2.063 1.031zm.263-7.463c-1.857 0-3.507.807-3.507.807l.732 1.856s1.368-.656 2.662-.656c.788 0 1.913.375 1.913 1.537v.506s-.844-.637-2.475-.637c-1.932 0-3.488 1.238-3.488 2.944 0 1.894 1.538 2.981 3.206 2.981 2.007 0 2.925-1.35 2.925-1.35v1.125h2.082v-5.794c0-2.025-1.5-3.319-4.05-3.319zm6.565 9.113h2.08v-1.163s.77 1.388 2.682 1.388c2.306 0 4.331-1.931 4.331-4.669 0-2.737-2.025-4.669-4.33-4.669-1.688 0-2.513 1.163-2.513 1.163V20.7h-2.25v14.175zM57 29.1s.637-1.238 2.118-1.238c1.52 0 2.438 1.107 2.438 2.57 0 1.462-.919 2.568-2.438 2.568C57.638 33 57 31.762 57 31.762V29.1zm7.742 9.375s1.03.938 2.38.938c1.314 0 2.57-.6 3.338-2.55l4.313-10.875h-2.419l-2.344 6.506-3-6.506h-2.493l4.33 9.093-.355.919c-.431 1.087-.75 1.313-1.52 1.313-.58 0-1.18-.582-1.18-.582l-1.05 1.744zM81.703 21.75v13.125h2.25v-8.813l4.106 6.244 4.106-6.243v8.812h2.25V21.75h-2.081l-4.275 6.6-4.275-6.6h-2.081zm18.715 11.475c-.693 0-1.612-.206-1.612-1.144 0-.956.956-1.256 1.65-1.256 1.219 0 2.025.45 2.025.45v.919s-.713 1.031-2.063 1.031zm.263-7.463c-1.856 0-3.506.807-3.506.807l.73 1.856s1.37-.656 2.663-.656c.788 0 1.913.375 1.913 1.537v.506s-.844-.637-2.475-.637c-1.931 0-3.488 1.238-3.488 2.944 0 1.894 1.538 2.981 3.207 2.981 2.006 0 2.925-1.35 2.925-1.35v1.125h2.081v-5.794c0-2.025-1.5-3.319-4.05-3.319zm16.615 0c-2.081 0-2.831 1.557-2.831 1.557s-.619-1.556-2.757-1.556c-1.818 0-2.625 1.518-2.625 1.518v-1.293h-2.1v8.887h2.25v-5.869s.563-1.143 1.744-1.143c1.125 0 1.594.656 1.594 1.875v5.137h2.25v-5.869s.562-1.143 1.744-1.143c1.125 0 1.593.656 1.593 1.875v5.137h2.25v-5.719c0-2.137-1.312-3.393-3.112-3.393z" fill="#fff"/><defs><linearGradient id="paint0_linear_2499_15151" x1="0" y1="33.814" x2="23.037" y2="33.814" gradientUnits="userSpaceOnUse"><stop stop-color="#fff" stop-opacity=".3"/><stop offset="1" stop-color="#fff" stop-opacity=".9"/></linearGradient><linearGradient id="paint1_linear_2499_15151" x1="0" y1="18.18" x2="18.358" y2="18.18" gradientUnits="userSpaceOnUse"><stop stop-color="#fff" stop-opacity=".3"/><stop offset="1" stop-color="#fff" stop-opacity=".9"/></linearGradient><clipPath id="clip0_2499_15151"><path fill="#fff" transform="translate(0 11.25)" d="M0 0h23.041v33.75H0z"/></clipPath></defs></svg>