<svg xmlns="http://www.w3.org/2000/svg" width="328" height="35" viewBox="0 0 328 35" fill="none"><g clip-path="url(#clip0_8_148)"><path d="M204.239 15.7473L213.649 10.3115C213.165 9.23643 212.574 8.2295 211.893 7.28315L202.482 12.719L207.918 3.30846C206.972 2.62708 205.965 2.03656 204.89 1.55202L199.454 10.9626V0.0908501C198.878 0.0302834 198.295 0 197.705 0C197.114 0 196.531 0.0302834 195.956 0.0908501V10.9701L190.52 1.55959C189.445 2.04413 188.438 2.63465 187.492 3.31603L192.928 12.7266L183.517 7.29072C182.836 8.23708 182.245 9.244 181.761 10.3191L191.171 15.7549H180.292C180.231 16.3303 180.201 16.9133 180.201 17.5038C180.201 18.0943 180.231 18.6773 180.292 19.2526H191.171L181.761 24.6885C182.245 25.7636 182.836 26.7705 183.517 27.7169L195.956 20.5321V34.9091C196.531 34.9697 197.114 35 197.705 35C198.295 35 198.878 34.9697 199.454 34.9091V20.5321L211.893 27.7169C212.574 26.7705 213.165 25.7636 213.649 24.6885L204.239 19.2526H215.118C215.178 18.6773 215.209 18.0943 215.209 17.5038C215.209 16.9133 215.178 16.3303 215.118 15.7549H204.239V15.7473Z" fill="#004D54"></path><path d="M5.67056 11.6743C7.97967 11.6743 9.41813 12.6282 9.41813 14.5815C9.41813 15.5808 8.96388 16.4893 8.17651 16.8603V16.9284C8.93359 17.2691 9.80424 18.1549 9.80424 19.7675C9.80424 22.122 7.83582 23.3334 5.64028 23.3334H0V11.6743H5.67056ZM2.34696 16.0351H5.83712C6.72291 16.0351 7.09388 15.5354 7.09388 14.8919C7.09388 14.2938 6.72291 13.7789 5.83712 13.7789H2.33939V16.0426L2.34696 16.0351ZM2.34696 21.2362H5.79926C6.91218 21.2362 7.46485 20.5776 7.46485 19.7221C7.46485 18.6924 6.73805 18.1398 5.79926 18.1398H2.33939V21.2362H2.34696Z" fill="#004D54"></path><path d="M15.0508 11.6743H23.8482V13.7714H17.3902V15.9821H23.0759V18.0792H17.3902V21.2287H24.0071V23.3258H15.0433V11.6667L15.0508 11.6743Z" fill="#004D54"></path><path d="M37.3848 11.6743V13.7714H34.0915V23.3334H31.7521V13.7714H28.4588V11.6743H37.3848Z" fill="#004D54"></path><path d="M50.6868 11.6743V13.7714H47.3935V23.3334H45.0541V13.7714H41.7608V11.6743H50.6868Z" fill="#004D54"></path><path d="M55.5321 11.6743H64.3294V13.7714H57.8715V15.9821H63.5572V18.0792H57.8715V21.2287H64.4884V23.3258H55.5245V11.6667L55.5321 11.6743Z" fill="#004D54"></path><path d="M76.0718 11.6743C77.9418 11.6743 79.2819 13.0824 79.2819 14.9676C79.2819 16.4212 78.4718 17.6174 77.2453 18.0489L79.5393 23.3258H77.0333L74.9665 18.2382H72.0441V23.3258H69.7047V11.6667H76.0643L76.0718 11.6743ZM75.7311 16.1789C76.5564 16.1789 76.9425 15.6111 76.9425 14.9827C76.9425 14.3543 76.5564 13.7714 75.6857 13.7714H72.0517V16.1789H75.7311Z" fill="#004D54"></path><path d="M103.41 18.2457H99.39V23.3334H97.0506V11.6743H103.41C105.333 11.6743 106.62 13.0824 106.62 14.9676C106.62 16.8527 105.326 18.2457 103.41 18.2457ZM103.024 16.1486C103.849 16.1486 104.235 15.6035 104.235 14.9676C104.235 14.3316 103.849 13.7714 102.979 13.7714H99.3976V16.1486H103.032H103.024Z" fill="#004D54"></path><path d="M111.632 11.6743H113.971V21.1984H119.415V23.3258H111.632V11.6667V11.6743Z" fill="#004D54"></path><path d="M126.297 23.3258H123.859L128.152 11.6667H130.022L134.541 23.3258H131.96L131.203 21.0848H127.039L126.297 23.3258ZM129.159 14.7177H129.09L127.705 19.0255H130.544L129.159 14.7177Z" fill="#004D54"></path><path d="M143.642 21.5693C145.512 21.5693 145.996 19.6993 146.148 19.1164L148.54 19.9719C147.927 22.1977 146.102 23.6362 143.649 23.6362C139.97 23.6362 138.433 21.0394 138.433 17.4811C138.433 14.1726 139.773 11.3638 143.649 11.3638C148.086 11.3638 148.525 14.8994 148.54 15.0281L146.148 15.8836C146.148 15.5959 145.86 13.4307 143.642 13.4307C141.703 13.4307 140.863 15.0281 140.863 17.4811C140.863 19.934 141.862 21.5693 143.642 21.5693Z" fill="#004D54"></path><path d="M153.741 11.6743H162.538V13.7714H156.08V15.9821H161.766V18.0792H156.08V21.2287H162.697V23.3258H153.734V11.6667L153.741 11.6743Z" fill="#004D54"></path><path d="M235.044 15.9821H239.776V18.0792H235.044V23.3258H232.705V11.6667H241.23V13.7638H235.044V15.9745V15.9821Z" fill="#004D54"></path><path d="M250.799 11.3638C254.577 11.3638 255.947 14.3846 255.947 17.4962C255.947 20.8198 254.411 23.6286 250.799 23.6286C247.188 23.6286 245.651 20.6078 245.651 17.4962C245.651 14.1878 247.173 11.3638 250.799 11.3638ZM250.799 21.5845C253.154 21.5845 253.51 19.3208 253.51 17.4962C253.51 15.5127 253.055 13.408 250.799 13.408C248.543 13.408 248.089 15.6716 248.089 17.4962C248.089 19.4798 248.543 21.5845 250.799 21.5845Z" fill="#004D54"></path><path d="M267.637 11.6743C269.507 11.6743 270.847 13.0824 270.847 14.9676C270.847 16.4212 270.037 17.6174 268.81 18.0489L271.104 23.3258H268.598L266.531 18.2382H263.609V23.3258H261.27V11.6667H267.629L267.637 11.6743ZM267.296 16.1789C268.121 16.1789 268.507 15.6111 268.507 14.9827C268.507 14.3543 268.121 13.7714 267.251 13.7714H263.617V16.1789H267.296Z" fill="#004D54"></path><path d="M276.275 11.6743H285.072V13.7714H278.615V15.9821H284.3V18.0792H278.615V21.2287H285.231V23.3258H276.268V11.6667L276.275 11.6743Z" fill="#004D54"></path><path d="M289.789 20.2293L292 19.1012C292.287 20.9561 293.597 21.6072 295.164 21.6072C296.277 21.6072 297.33 21.3498 297.33 20.1536C297.33 19.0861 296.459 18.8287 295.634 18.6394L293.552 18.0565C292.038 17.6855 290.357 16.7316 290.357 14.8464C290.357 12.3405 292.666 11.3714 294.763 11.3714C296.86 11.3714 298.867 12.2723 299.51 14.6041L297.33 15.5051C296.959 13.9228 296.133 13.408 294.862 13.408C293.681 13.408 292.764 13.9076 292.764 14.7026C292.764 15.2022 292.992 15.7019 294.619 16.1259L296.398 16.5953C297.897 16.9814 299.692 17.7612 299.692 19.9189C299.692 22.0766 298.049 23.6513 295.119 23.6513C292.727 23.6513 290.614 22.7807 289.789 20.2444V20.2293Z" fill="#004D54"></path><path d="M312.956 11.6743V13.7714H309.663V23.3334H307.323V13.7714H304.03V11.6743H312.956Z" fill="#004D54"></path><path d="M317.165 20.2293L319.376 19.1012C319.664 20.9561 320.973 21.6072 322.541 21.6072C323.653 21.6072 324.706 21.3498 324.706 20.1536C324.706 19.0861 323.835 18.8287 323.01 18.6394L320.928 18.0565C319.414 17.6855 317.733 16.7316 317.733 14.8464C317.733 12.3405 320.042 11.3714 322.139 11.3714C324.236 11.3714 326.243 12.2723 326.886 14.6041L324.706 15.5051C324.335 13.9228 323.51 13.408 322.238 13.408C321.057 13.408 320.141 13.9076 320.141 14.7026C320.141 15.2022 320.368 15.7019 321.995 16.1259L323.775 16.5953C325.274 16.9814 327.068 17.7612 327.068 19.9189C327.068 22.0766 325.425 23.6513 322.495 23.6513C320.103 23.6513 317.99 22.7807 317.165 20.2444V20.2293Z" fill="#004D54"></path></g><defs><clipPath id="clip0_8_148"><rect width="327.06" height="35" fill="white"></rect></clipPath></defs></svg>