<svg width="117" height="30" viewBox="0 0 117 30" fill="none" xmlns="http://www.w3.org/2000/svg">
<g clip-path="url(#clip0_314_961)">
<path d="M104.261 25.1183C104.172 23.5207 104.172 21.3018 104.172 19.3491H103.2C99.7552 19.3491 98.4301 20.5027 98.4301 22.5444C98.4301 24.6745 99.4904 25.4734 101.964 25.4734C102.847 25.3846 103.73 25.2959 104.261 25.1183ZM111.858 29.4677C107.353 29.4677 103.819 30.0002 100.285 30.0002C93.5715 30.0002 91.1866 27.2487 91.1866 22.4558C91.1866 17.8402 94.9851 15.3552 103.201 15.3552H104.349V14.9114C104.349 11.6272 103.377 10.2959 100.02 10.2959C97.6353 10.2959 95.2501 11.0947 93.5717 11.9822L93.3069 6.74556C95.162 5.94674 98.3422 5.4142 101.876 5.4142C109.12 5.4142 111.77 7.81086 111.77 14.2899C111.77 17.7515 111.505 20.7692 111.505 22.8996C111.504 24.7633 111.504 27.5148 111.858 29.4677ZM34.7383 15.7101C37.9187 15.7101 39.4202 14.645 39.4202 12.3375C39.4202 10.7398 38.3602 9.85228 36.5934 9.85228C33.5899 9.85228 32.5296 12.2489 32.5296 15.5327V15.6215C33.1482 15.7101 33.9432 15.7101 34.7383 15.7101ZM13.0954 25.1183C13.007 23.5207 13.007 21.3018 13.007 19.3491H12.0353C8.59011 19.3491 7.26503 20.5027 7.26503 22.5444C7.26503 24.6745 8.3253 25.4734 10.8869 25.4734C11.5936 25.3846 12.477 25.2959 13.0954 25.1183ZM35.6217 19.6154C34.7383 19.6154 33.3249 19.6154 32.6184 19.5266V19.7043C32.6184 22.9884 34.8268 25.1185 38.8904 25.1185C41.3637 25.1185 43.5721 24.3197 45.1624 23.4322L45.4275 28.6688C43.8374 29.3787 40.7455 29.9114 37.6537 29.9114C29.4382 29.9114 25.463 27.071 24.7563 19.4381C23.7845 19.3493 22.3709 19.3493 20.4277 19.3493C20.3393 20.6807 20.3393 21.8343 20.3393 22.8996C20.3393 24.7635 20.3393 27.515 20.6927 29.3787C16.1872 29.3787 12.6537 29.9114 9.12014 29.9114C2.40642 29.9114 0.0214844 27.1598 0.0214844 22.4558C0.0214844 17.8402 3.81983 15.3552 12.0355 15.3552H13.1839V14.9114C13.1839 11.6272 12.212 10.2959 8.85533 10.2959C6.46998 10.2959 4.08505 11.0947 2.40662 11.9822L2.1414 6.74556C3.99651 5.94674 7.17669 5.4142 10.7102 5.4142C17.954 5.4142 20.6041 7.81086 20.6041 14.2899V15.3552C22.3709 15.3552 23.6076 15.3552 24.8444 15.444C25.5511 9.05325 28.8196 5.41441 36.8584 5.41441C43.4838 5.41441 46.5756 8.16588 46.5756 12.4262C46.5756 17.3964 42.8654 19.6154 35.6217 19.6154ZM88.1831 18.639V14.0237C88.1831 8.16547 85.6212 5.50275 78.2891 5.50275C74.137 5.50275 71.2221 6.21281 66.6283 6.21281C66.8933 10.3844 66.8933 15.4436 66.8933 18.6388C66.8933 21.8341 66.8049 27.6033 66.6283 29.4674H74.4904C74.402 27.6033 74.2256 22.1891 74.2256 18.6388C74.2256 16.5974 74.2256 14.1122 74.3139 10.7394C75.109 10.4734 76.0807 10.2956 77.1407 10.2956C79.8792 10.2956 80.7626 11.627 80.7626 15.0885V18.6388C80.7626 21.8341 80.6743 27.6033 80.4978 29.4674H88.3597C88.3597 27.6035 88.1831 22.1893 88.1831 18.639ZM63.4483 24.2308L63.8016 29.3785C63.1833 29.5562 61.3282 29.9112 58.7663 29.9112C53.5544 29.9112 50.8159 27.7811 50.8159 22.4556C50.8159 18.2838 50.9042 13.7574 50.9042 11.272H48.2541C48.3424 10.1183 48.2541 8.5205 48.2541 7.36686C52.3176 6.6568 53.5544 4.43787 54.1727 0H58.5897C58.413 1.77515 58.3249 4.43787 58.3249 6.21302H63.0066V11.2722H58.2363V20.3254C58.2363 23.8757 58.943 24.7633 61.3282 24.7633C62.1232 24.7633 63.0066 24.497 63.4483 24.2308ZM114.95 7.10059C115.303 7.10059 115.48 6.92308 115.48 6.6568C115.48 6.56805 115.391 6.39053 115.391 6.39053C115.303 6.30177 115.126 6.30177 114.95 6.30177H114.596V7.10059H114.95ZM114.243 6.0355H114.861C115.214 6.0355 115.48 6.12426 115.568 6.21302C115.745 6.39053 115.833 6.56804 115.833 6.74556C115.833 6.83432 115.833 6.92328 115.744 7.01183C115.744 7.10059 115.656 7.18935 115.656 7.18935L115.479 7.36707C115.391 7.36707 115.303 7.45583 115.303 7.45583L115.921 8.43215H115.567C115.479 8.43215 115.479 8.3434 115.391 8.25465L114.86 7.45583H114.596V8.43215H114.242V6.0355H114.243ZM114.243 8.78698C114.42 8.87573 114.685 8.96449 114.95 8.96449C115.214 8.96449 115.391 8.87573 115.656 8.78698C115.833 8.69822 116.009 8.52071 116.186 8.43195C116.363 8.25444 116.451 8.07692 116.451 7.8994C116.539 7.72168 116.539 7.45562 116.539 7.2779C116.539 7.10038 116.539 6.83411 116.451 6.65659L116.186 6.12404C116.009 5.94632 115.921 5.85778 115.656 5.76902C115.479 5.68026 115.214 5.5915 114.95 5.5915C114.685 5.5915 114.508 5.68026 114.243 5.76902C114.066 5.85778 113.89 5.94653 113.713 6.12404C113.536 6.30156 113.448 6.47908 113.448 6.65659C113.36 6.83411 113.36 7.10038 113.36 7.2779C113.36 7.63293 113.448 7.89941 113.625 8.25443C113.801 8.43195 113.978 8.69822 114.243 8.78698ZM113.536 8.69822C113.359 8.5205 113.271 8.25443 113.183 8.07671C113.094 7.81065 113.094 7.54417 113.094 7.2779C113.094 7.01183 113.183 6.74535 113.271 6.47929C113.36 6.21302 113.448 6.0355 113.625 5.85777C113.801 5.68026 113.978 5.50274 114.243 5.41399C114.508 5.32523 114.773 5.23647 115.038 5.23647C115.303 5.23647 115.656 5.32523 115.833 5.41399C116.098 5.50274 116.275 5.68026 116.451 5.85777C116.628 6.0355 116.716 6.30156 116.805 6.47929C116.893 6.74535 116.981 7.01183 116.981 7.2779C116.981 7.54417 116.893 7.81065 116.805 8.07671C116.716 8.34298 116.628 8.5205 116.451 8.69822C116.275 8.87574 116.098 9.05304 115.833 9.14201C115.568 9.23077 115.303 9.31952 115.038 9.31952C114.773 9.31952 114.419 9.23077 114.243 9.14201C113.889 9.05325 113.713 8.87574 113.536 8.69822Z" fill="black"/>
</g>
<defs>
<clipPath id="clip0_314_961">
<rect width="117" height="30" fill="white"/>
</clipPath>
</defs>
</svg>
