<svg width="207" height="79" viewBox="0 0 207 79" fill="none" xmlns="http://www.w3.org/2000/svg">
<rect width="207" height="79" rx="39.5" fill="#202020"/>
<path d="M89 40C99 40 104 35 104 25C104 35 109 40 119 40C109.001 40 104.001 44.9994 104 54.9982C103.999 44.9994 98.9994 40 89 40Z" fill="white"/>
<path d="M104 25C104 35 99 40 89 40M89 40C99 40 104 45 104 55M119 40C109 40 104 35 104 25M104 55C104 45 109 40 119 40" stroke="white"/>
<path d="M77 39.5C77 59.9345 60.4345 76.5 40 76.5M77 39.5C77 19.0655 60.4345 2.5 40 2.5M77 39.5H3M40 76.5C19.5655 76.5 3 59.9345 3 39.5M40 76.5C52.2954 76.5 62.2627 59.9345 62.2627 39.5C62.2627 19.0655 52.2954 2.5 40 2.5M40 76.5C27.7046 76.5 17.7373 59.9345 17.7373 39.5C17.7373 19.0655 27.7046 2.5 40 2.5M40 76.5C44.1562 76.5 47.5254 59.9345 47.5254 39.5C47.5254 19.0655 44.1562 2.5 40 2.5M40 76.5C35.8438 76.5 32.4746 59.9345 32.4746 39.5C32.4746 19.0655 35.8438 2.5 40 2.5M3 39.5C3 19.0655 19.5655 2.5 40 2.5M12.4068 15.0424H67.75M12.25 63.9576H67.75" stroke="#F9E959" stroke-width="2"/>
<path d="M135.644 39.5H198.356M167 8.14407V70.8559M204 39.5C204 59.9345 187.435 76.5 167 76.5C146.565 76.5 130 59.9345 130 39.5C130 19.0655 146.565 2.5 167 2.5C187.435 2.5 204 19.0655 204 39.5Z" stroke="#F9E959" stroke-width="2"/>
</svg>
