<svg width="73" height="67" viewBox="0 0 73 67" fill="none" xmlns="http://www.w3.org/2000/svg">
<rect x="1" y="1" width="71" height="65" rx="25" stroke="black" stroke-width="2"/>
<path d="M32.5502 43.7497C41.6045 43.7497 46.5583 36.2465 46.5583 29.7416C46.5583 29.5307 46.5536 29.3151 46.5442 29.1041C47.5079 28.4072 48.3395 27.544 49 26.5551C48.1025 26.9544 47.1496 27.2151 46.1739 27.3285C47.2013 26.7127 47.9705 25.7452 48.3391 24.6055C47.3726 25.1783 46.3156 25.5824 45.2134 25.8004C44.4708 25.0113 43.489 24.4889 42.4197 24.3138C41.3504 24.1387 40.2532 24.3208 39.2977 24.8319C38.3423 25.3429 37.5818 26.1545 37.1338 27.1411C36.6859 28.1277 36.5754 29.2344 36.8195 30.2901C34.8625 30.1918 32.9479 29.6835 31.2 28.7979C29.452 27.9122 27.9097 26.6692 26.673 25.1493C26.0444 26.233 25.8521 27.5154 26.135 28.7358C26.418 29.9563 27.1551 31.0232 28.1964 31.7197C27.4146 31.6949 26.65 31.4844 25.9656 31.1057V31.1666C25.9649 32.3039 26.3581 33.4063 27.0783 34.2865C27.7985 35.1667 28.8013 35.7703 29.9162 35.9947C29.1921 36.1929 28.432 36.2218 27.6948 36.0791C28.0095 37.0572 28.6216 37.9126 29.4458 38.5261C30.27 39.1395 31.2651 39.4804 32.2923 39.501C30.5484 40.8709 28.3942 41.6139 26.1766 41.6104C25.7833 41.6098 25.3904 41.5857 25 41.5382C27.2529 42.9835 29.8735 43.7511 32.5502 43.7497Z" fill="#202020"/>
</svg>
