<svg width="125" height="38" viewBox="0 0 125 38" fill="none" xmlns="http://www.w3.org/2000/svg">
<path d="M0.622774 9.76093L123.302 3.75272L121.575 28.3451L6.57499 34.0154L0.622774 9.76093Z" fill="#FF8383"/>
<path d="M19.7341 24.9578C18.3454 25.9287 17.2752 26.3532 16.4776 26.4154C15.2015 26.5149 14.6131 25.658 14.5245 24.5215C14.3488 22.2683 15.9344 18.9349 18.7624 16.8688C18.4815 18.1546 18.3417 19.4494 18.4381 20.6856C18.5516 22.1412 18.981 23.532 19.7341 24.9578ZM26.0993 17.059C26.2831 19.6727 22.8839 22.6459 21.5413 23.6935C21.1909 23.0588 20.6973 21.8736 20.5791 20.3582C20.4843 19.1419 20.6331 17.7059 21.3356 16.1667C21.6248 15.5022 22.3208 15.167 23.0785 15.108C24.4344 15.0022 25.9983 15.763 26.0993 17.059ZM28.2805 16.9892C28.0193 13.6394 24.3861 12.8394 22.5716 12.9809C21.6943 13.0493 21.0197 13.4029 20.6181 13.6548C20.4723 13.586 20.3081 13.5386 20.1087 13.5541C19.6102 13.593 16.7163 15.584 15.3312 17.1163C13.2045 19.4287 12.1922 22.3963 12.3741 24.7293C12.5513 27.0024 13.8646 28.6653 16.3969 28.4678C17.6132 28.373 19.1359 27.833 20.9555 26.7282C21.6205 27.5389 22.8089 28.6299 23.2875 28.5925C24.0053 28.5366 24.6746 27.6017 24.614 26.8241C24.6 26.6446 24.5845 26.4452 24.434 26.3165C24.1546 26.0775 23.3236 26.4833 22.643 25.4732C24.9005 23.5519 28.5324 20.2194 28.2805 16.9892ZM35.1985 19.4188C35.1363 18.6212 34.4808 18.1909 33.9026 18.236C33.3842 18.2764 32.9351 18.6925 32.979 19.5116C32.9808 19.7923 33.1724 24.0503 32.1754 24.1281C31.4177 24.1871 31.068 21.2454 30.9467 19.6902L30.8985 19.072C30.8257 18.3956 30.2852 17.8961 29.6272 17.9475C29.1287 17.9863 28.6965 18.3611 28.7556 19.1188C28.9065 21.0529 29.5365 26.5606 32.4278 26.3351C34.9003 26.1423 35.1967 20.6828 35.1985 19.4188ZM38.9685 18.4427C38.9157 17.7648 38.4503 17.1993 37.7125 17.2568C36.4962 17.3516 36.7374 19.1584 36.7613 19.979C36.8012 21.5205 36.7811 22.806 36.8495 23.6833C36.9428 24.8797 37.085 25.9318 38.2415 25.8417C38.8596 25.7935 39.2747 25.1994 39.2265 24.5813C39.1985 24.2224 38.9328 23.902 38.8971 23.4434C38.8131 22.3667 39.0167 19.0609 38.9685 18.4427ZM38.5373 12.398C38.4829 11.7001 37.967 11.2589 37.4486 11.2993C37.0498 11.3304 36.6544 11.6621 36.4574 12.4799C36.294 13.2148 36.0032 13.8594 36.0561 14.5373C36.1152 15.295 36.5787 15.5799 37.0373 15.5441C37.476 15.5099 37.9297 15.1536 37.9843 14.5675C38.0342 13.9217 38.08 13.7376 38.3524 13.1145C38.455 12.8859 38.5344 12.6189 38.5373 12.398ZM43.9498 25.5169C46.4821 25.3194 50.0058 22.6574 51.6457 21.3059C51.8526 21.1292 51.9199 20.9635 51.9059 20.7841C51.8733 20.3653 51.3054 20.0285 50.767 20.0704C50.6075 20.0829 50.4312 20.1367 50.2978 20.2274C48.7879 21.1877 45.6565 23.4781 43.9217 23.6133C43.4232 23.6522 43.0257 23.4425 42.9884 22.9639C42.9029 21.8672 44.2828 19.7536 45.0433 19.4736C45.2642 19.4764 45.4284 19.5238 45.6078 19.5098C46.4054 19.4476 47.0595 18.5741 47.0066 17.8962C46.9537 17.2183 46.2634 17.1116 45.6851 17.1567C43.3323 17.3402 40.6626 21.1793 40.8306 23.3328C40.9674 25.0875 42.3148 25.6444 43.9498 25.5169ZM63.1195 22.1966C63.0729 21.5984 62.4327 21.1067 61.8146 21.1549C61.4756 21.1813 61.146 21.3274 60.9792 21.7616C60.964 21.823 60.6131 22.2115 59.7557 22.2783C57.8615 22.426 55.1587 20.9517 53.6911 19.8825C55.3929 19.0678 56.6594 18.5879 57.6976 18.2662C58.1468 18.1108 59.662 17.7319 59.9455 17.5091C60.1907 17.3095 60.3743 16.8338 60.3417 16.415C60.309 15.9963 60.0601 15.6346 59.3224 15.6921C58.5647 15.7512 54.7283 17.2339 53.1705 17.8368C53.252 16.5666 53.4283 14.9681 53.7708 13.9584C53.8687 13.6699 53.9865 13.3799 53.9631 13.0808C53.9134 12.4427 53.4066 11.8604 52.7087 11.9148C52.5492 11.9272 52.3928 11.9796 52.2379 12.0518C51.1923 12.5346 50.7949 19.7874 51.0173 22.6388C51.1821 24.7523 51.6286 26.3625 52.2866 26.3112C53.2437 26.2366 53.4519 25.8191 53.4037 25.201C53.3602 24.6427 53.182 24.4158 53.0747 23.04C53.0452 22.6612 53.0156 22.2823 53.0275 21.9203C54.848 23.1425 57.2792 24.4775 59.632 24.294C60.9082 24.1945 61.2836 23.8643 62.0379 23.5046C62.8904 23.1172 63.1537 22.6352 63.1195 22.1966ZM82.8178 18.0928C82.7727 17.5145 81.9365 17.339 81.3184 17.3872C79.125 17.5582 75.2369 19.4061 73.4753 20.2255C73.4775 17.9384 73.0731 15.5827 73.5816 13.3565C73.7023 12.8456 73.7566 11.9988 73.6944 11.2012C73.6011 10.0048 73.2533 8.88848 72.5155 8.94601C70.7608 9.08283 71.5101 11.2311 71.361 12.4062C71.1602 13.9465 71.1405 18.5821 71.1678 21.248C71.1725 21.3078 71.1435 21.4505 71.0762 21.6163C70.9599 21.9262 70.882 22.2132 70.9022 22.4724C70.9519 23.1104 71.7684 23.5483 72.3268 23.5047C72.8053 23.4674 73.2007 23.1357 73.6176 22.8223C74.5832 22.085 76.2573 21.1721 78.1601 20.3617C80.0444 19.5729 81.8983 18.9067 82.208 18.7622C82.6725 18.5454 82.8349 18.3121 82.8178 18.0928ZM85.1175 14.8442C85.0646 14.1662 84.5993 13.6007 83.8615 13.6582C82.6452 13.7531 82.8864 15.5598 82.9102 16.3804C82.9502 17.922 82.9301 19.2074 82.9985 20.0848C83.0918 21.2811 83.234 22.3333 84.3905 22.2431C85.0086 22.1949 85.4237 21.6008 85.3755 20.9827C85.3475 20.6238 85.0818 20.3035 85.046 19.8448C84.9621 18.7681 85.1657 15.4623 85.1175 14.8442ZM84.6863 8.79939C84.6318 8.10151 84.116 7.66028 83.5975 7.7007C83.1988 7.7318 82.8034 8.06354 82.6063 8.88133C82.443 9.61626 82.1522 10.2608 82.2051 10.9388C82.2641 11.6965 82.7277 11.9813 83.1863 11.9455C83.625 11.9113 84.0786 11.555 84.1332 10.9689C84.1832 10.3231 84.229 10.139 84.5014 9.51593C84.6039 9.28727 84.6834 9.02028 84.6863 8.79939ZM89.8157 21.1179C90.6149 18.2471 91.1589 16.2187 91.3583 16.2031C91.5577 16.1876 91.6096 18.9118 91.8717 20.2153C92.0106 20.9668 92.3776 22.844 93.3148 22.7709C93.8731 22.7273 94.4277 22.1224 94.3858 21.584C94.3562 21.2052 94.1472 20.8403 93.9413 20.5153C93.8582 20.2209 93.8349 19.9218 93.8115 19.6227C93.7711 19.1043 93.7721 18.6027 93.7333 18.1042C93.5156 15.3127 93.0882 12.9187 91.9716 13.0057C91.3734 13.0524 90.6087 13.7941 89.586 15.5991C89.5857 15.3383 89.6128 14.9149 89.5833 14.536C89.5584 14.217 89.4952 13.921 89.3432 13.7724C89.1037 13.5303 88.6264 13.3268 88.2077 13.3594C87.7889 13.3921 87.4287 13.6609 87.3987 14.3052C87.3641 14.8896 87.3237 15.9159 87.3688 16.4941C87.4497 17.531 87.4944 20.677 87.5208 21.016C87.5784 21.7538 87.7938 22.4591 88.5515 22.4001C89.4289 22.3316 89.6293 21.8145 89.8157 21.1179ZM107.477 18.7377C107.43 18.1395 106.79 17.6478 106.172 17.696C105.833 17.7224 105.504 17.8685 105.337 18.3027C105.322 18.3641 104.971 18.7526 104.113 18.8194C102.219 18.9671 99.5162 17.4928 98.0486 16.4237C99.7504 15.6089 101.017 15.129 102.055 14.8073C102.504 14.6519 104.02 14.273 104.303 14.0502C104.548 13.8506 104.732 13.3749 104.699 12.9561C104.667 12.5374 104.418 12.1757 103.68 12.2332C102.922 12.2923 99.0859 13.775 97.528 14.3779C97.6095 13.1078 97.7858 11.5092 98.1283 10.4995C98.2262 10.211 98.344 9.92101 98.3207 9.62192C98.2709 8.98385 97.7641 8.40149 97.0662 8.45591C96.9067 8.46835 96.7503 8.52067 96.5955 8.59292C95.5498 9.07567 95.1525 16.3285 95.3748 19.1799C95.5396 21.2934 95.9862 22.9036 96.6442 22.8523C97.6013 22.7777 97.8094 22.3602 97.7612 21.7421C97.7177 21.1838 97.5395 20.957 97.4322 19.5811C97.4027 19.2023 97.3732 18.8234 97.385 18.4614C99.2056 19.6836 101.637 21.0186 103.99 20.8351C105.266 20.7356 105.641 20.4054 106.395 20.0457C107.248 19.6583 107.511 19.1763 107.477 18.7377ZM113.294 18.8257C113.099 16.3333 108.943 17.0586 108.828 15.5831C108.755 14.6459 110.349 12.1946 111.191 11.9283C111.46 12.0278 111.625 12.0951 111.924 12.0717C112.523 12.0251 112.693 11.6307 112.66 11.212C112.588 10.2948 111.493 9.87868 110.735 9.93776C110.376 9.96575 109.948 10.1395 109.688 10.4006C108.327 11.7304 106.582 13.5315 106.753 15.7249C106.989 18.7557 111.083 18.5167 111.116 18.9354C111.13 19.1149 108.957 20.0666 108.764 20.4227C108.603 20.676 108.561 20.9 108.575 21.0794C108.623 21.6976 109.33 22.0235 109.809 21.9862C110.746 21.9132 113.376 19.8825 113.294 18.8257Z" fill="#202020"/>
</svg>
