<svg width="44" height="44" viewBox="0 0 44 44" fill="none" xmlns="http://www.w3.org/2000/svg">
<rect width="44" height="44" rx="11" transform="matrix(-1 0 0 1 44 0)" fill="#F9E959"/>
<path d="M30.7071 23.7071C31.0976 23.3166 31.0976 22.6834 30.7071 22.2929L24.3431 15.9289C23.9526 15.5384 23.3195 15.5384 22.9289 15.9289C22.5384 16.3195 22.5384 16.9526 22.9289 17.3431L28.5858 23L22.9289 28.6569C22.5384 29.0474 22.5384 29.6805 22.9289 30.0711C23.3195 30.4616 23.9526 30.4616 24.3431 30.0711L30.7071 23.7071ZM14 24L30 24L30 22L14 22L14 24Z" fill="black"/>
</svg>
