<svg width="176" height="53" viewBox="0 0 176 53" fill="none" xmlns="http://www.w3.org/2000/svg">
<path d="M2.92383 1.0332L167.858 12.8702L172.733 45.3825L0.972933 31.1643L2.92383 1.0332Z" fill="#FF8383"/>
<path d="M18.0114 28.3328C22.4479 28.6073 29.2027 24.8523 32.3738 22.9094C32.7753 22.6537 32.9324 22.3829 32.9518 22.0685C32.9972 21.3349 32.0951 20.6128 31.1519 20.5545C30.8724 20.5372 30.5537 20.5876 30.3005 20.7122C27.45 22.0086 21.4656 25.2151 18.4264 25.0271C17.553 24.9731 16.9152 24.5128 16.9671 23.6744C17.086 21.7531 19.992 18.4262 21.3782 18.1262C21.7603 18.1849 22.0333 18.307 22.3477 18.3265C23.745 18.4129 25.0912 17.0585 25.1647 15.8708C25.2382 14.683 24.0678 14.3301 23.0547 14.2674C18.9326 14.0123 13.3712 20.0153 13.1378 23.7881C12.9476 26.8622 15.1469 28.1555 18.0114 28.3328ZM38.2847 25.6597C37.9573 25.8499 36.6785 26.6825 36.1195 26.6479C35.9449 26.6371 35.8466 26.5258 35.8595 26.3162C35.9244 25.2682 36.8975 24.2764 37.7708 24.3304C38.0852 24.3499 38.1446 25.09 38.2847 25.6597ZM43.7297 22.1042C43.948 18.5759 42.3649 14.6908 38.5921 14.4573C36.4961 14.3276 34.0929 15.1959 33.9654 17.2569C33.9049 18.235 34.8441 18.9244 35.6475 18.9741C36.2763 19.013 36.8198 18.731 36.9657 18.0738C37.0092 17.9362 37.557 17.5844 38.1509 17.6211C39.8975 17.7292 40.1921 20.9034 40.1143 22.161C39.4304 21.3122 38.6114 20.9459 37.773 20.894C35.2578 20.7384 32.5982 23.4844 32.4317 26.1742C32.3129 28.0956 33.6129 29.754 35.5342 29.8729C36.7918 29.9507 38.1211 29.4368 39.1295 29.0083C39.49 29.4163 40.0709 29.6627 40.5949 29.6951C41.049 29.7232 41.4419 29.6072 41.636 29.3036C42.1334 28.6331 43.5265 25.3879 43.7297 22.1042ZM53.3371 22.2779C53.2269 24.0595 51.1759 26.0366 49.8707 26.7273C50.3386 24.2665 50.8392 21.8428 51.4447 19.4255C52.7354 20.1015 53.3804 21.5792 53.3371 22.2779ZM57.049 22.9283C57.2782 19.2254 53.7521 15.5707 50.2588 15.3545C48.8615 15.2681 46.8119 16.0881 46.7168 17.6251C46.6844 18.1491 46.9315 18.6904 47.4644 19.1442C46.2435 25.2755 45.2969 30.3718 44.9597 35.8213C44.8408 37.7427 44.7767 39.9129 44.7975 41.8428C44.6754 42.1158 44.584 42.4608 44.5645 42.7752C44.4845 44.0677 45.3607 45.209 46.6183 45.2868C47.7012 45.3539 48.2879 44.3732 48.3484 43.3951C48.3701 43.0458 48.324 42.6572 48.2015 42.3691C48.1688 42.332 48.1965 41.3167 48.3024 39.605C48.5143 36.1816 48.7419 33.6358 49.1071 31.1335C49.2098 31.1749 49.2796 31.1793 49.3844 31.1858C49.5242 31.1944 49.6661 31.1681 49.808 31.1418C50.5524 31.0126 56.8307 26.4566 57.049 22.9283ZM64.2622 27.2671C63.9348 27.4572 62.6559 28.2898 62.097 28.2553C61.9223 28.2445 61.824 28.1332 61.837 27.9236C61.9018 26.8756 62.8749 25.8838 63.7483 25.9378C64.0627 25.9573 64.1221 26.6974 64.2622 27.2671ZM69.7071 23.7116C69.9254 20.1833 68.3424 16.2981 64.5696 16.0647C62.4736 15.935 60.0704 16.8032 59.9429 18.8643C59.8823 19.8424 60.8216 20.5318 61.625 20.5815C62.2538 20.6204 62.7973 20.3384 62.9431 19.6812C62.9867 19.5436 63.5345 19.1917 64.1284 19.2285C65.875 19.3366 66.1695 22.5108 66.0917 23.7684C65.4078 22.9196 64.5889 22.5533 63.7505 22.5014C61.2353 22.3458 58.5756 25.0918 58.4092 27.7816C58.2903 29.7029 59.5904 31.3614 61.5117 31.4803C62.7693 31.5581 64.0986 31.0442 65.107 30.6157C65.4675 31.0237 66.0484 31.27 66.5724 31.3025C67.0265 31.3306 67.4194 31.2146 67.6135 30.911C68.1109 30.2405 69.5039 26.9953 69.7071 23.7116ZM81.1552 22.8419C81.0536 24.4838 78.1754 26.7954 76.2418 28.0083C76.2195 27.2355 76.2321 26.4648 76.2775 25.7312C76.3834 24.0195 76.664 22.3186 77.1149 20.6983C77.2219 20.6699 77.2917 20.6742 77.3965 20.6807C78.724 20.7628 81.2525 21.2699 81.1552 22.8419ZM84.7137 22.5712C84.9061 19.4621 81.0448 17.2595 78.0755 17.0757C78.5678 15.3528 79.1977 13.6735 79.308 11.8919C79.4593 9.44662 78.201 8.24662 77.0831 8.17745C76.2447 8.12557 75.4373 8.70682 75.3659 9.85961C75.3314 10.4185 75.5806 10.9249 75.5481 11.4489C75.4163 13.5798 74.5382 16.436 74.2288 17.4689C73.609 17.8514 73.0418 18.5176 72.9964 19.2512C72.9726 19.6355 73.0886 20.0284 73.4142 20.4343C72.9985 22.6178 72.7165 25.4758 72.5911 27.5019C72.5046 28.8992 72.4769 29.9145 72.5359 30.0935C72.7524 30.5627 73.2241 30.8725 73.6347 31.0381C73.7488 32.0271 74.5177 32.6357 75.3212 32.6854C75.8801 32.72 76.4192 32.5079 76.873 31.9749C77.3661 31.3742 77.7064 30.9745 78.2956 30.52C80.2443 29.0625 84.5343 25.4706 84.7137 22.5712ZM92.2669 19.8825C92.3404 18.6948 91.6716 17.6014 90.3791 17.5214C88.2482 17.3896 88.2262 20.5793 88.0677 22.0072C87.7615 24.6884 87.4136 26.9112 87.3185 28.4483C87.1888 30.5443 87.179 32.4022 89.2051 32.5276C90.2881 32.5946 91.152 31.6662 91.2191 30.5832C91.258 29.9544 90.8755 29.3346 90.9252 28.5312C91.0419 26.6448 92.1999 20.9654 92.2669 19.8825ZM92.9917 9.30208C93.0674 8.07942 92.2809 7.18915 91.3726 7.13295C90.6739 7.08972 89.9079 7.56832 89.3673 8.93755C88.9052 10.1714 88.2444 11.2176 88.1709 12.4053C88.0887 13.7327 88.8227 14.3392 89.6261 14.3889C90.3947 14.4365 91.2677 13.9294 91.505 12.9272C91.7488 11.8201 91.8731 11.5122 92.4969 10.4988C92.7302 10.1275 92.933 9.68418 92.9917 9.30208ZM103.236 10.2516C103.31 9.06384 102.536 7.96396 101.348 7.89047C99.5667 7.78023 99.1838 10.0008 98.9663 11.2498C98.453 14.4442 96.9093 24.6583 96.5461 30.5271C96.4035 32.8327 96.4438 34.4483 96.8129 34.7166C97.383 35.1376 97.8634 35.3076 98.2477 35.3314C99.5402 35.4113 99.9562 33.7889 100.028 32.6361C100.116 31.2039 100.078 30.1145 100.143 29.0665C100.286 26.7609 100.608 24.3962 100.997 22.0708C101.558 18.669 102.259 15.2758 102.953 11.9874C103.099 11.3302 103.21 10.6708 103.236 10.2516ZM110.364 21.0023C110.437 19.8146 109.769 18.7212 108.476 18.6412C106.345 18.5093 106.323 21.6991 106.165 23.127C105.859 25.8082 105.511 28.031 105.415 29.568C105.286 31.664 105.276 33.522 107.302 33.6473C108.385 33.7143 109.249 32.7859 109.316 31.703C109.355 31.0742 108.973 30.4544 109.022 29.6509C109.139 27.7645 110.297 22.0852 110.364 21.0023ZM111.089 10.4219C111.164 9.1992 110.378 8.30892 109.47 8.25272C108.771 8.20949 108.005 8.6881 107.464 10.0573C107.002 11.2911 106.341 12.3373 106.268 13.5251C106.186 14.8525 106.92 15.459 107.723 15.5087C108.492 15.5563 109.365 15.0492 109.602 14.047C109.846 12.9399 109.97 12.632 110.594 11.6186C110.827 11.2473 111.03 10.804 111.089 10.4219ZM130.933 22.275C131.007 21.0873 130.338 19.9939 129.045 19.9139C128.975 19.9096 128.94 19.9074 128.799 19.9337C128.595 19.2549 127.931 18.6527 126.785 18.4766C126.263 18.4092 125.809 18.3811 125.355 18.353C124.411 18.2947 123.499 18.3083 122.477 18.3854C122.669 17.5556 123.178 15.5533 123.295 13.6669C123.414 11.7456 123.103 9.97297 121.601 9.88002C120.168 9.7914 119.813 10.9968 119.746 12.0797C119.72 12.4989 119.725 12.9901 119.695 13.4792C119.572 15.4704 118.933 17.8505 118.698 18.8178C117.312 19.1178 114.35 19.9514 113.322 20.6944C112.735 21.1139 112.493 21.625 112.461 22.149C112.398 23.162 113.281 24.1985 114.329 24.2634C114.643 24.2828 115.034 24.2018 115.361 24.0116C116.529 23.2774 116.793 22.9781 117.897 22.6958C116.851 28.8379 116.745 29.9885 116.589 32.5037C116.483 34.2154 117.684 35.2015 118.767 35.2685C119.641 35.3225 120.479 34.8133 120.552 33.6256C120.574 33.2763 120.383 32.3878 120.476 30.8857C120.641 28.2308 121.315 24.1346 121.689 22.0537C122.892 21.8827 124.379 21.6591 125.951 21.7563C126.195 21.7715 126.643 21.9044 127.027 21.9281C126.831 22.8278 126.808 23.7731 126.734 24.3997C126.428 27.081 126.08 29.3037 125.985 30.8408C125.855 32.9368 125.845 34.7947 127.871 34.9201C128.954 34.9871 129.818 34.0587 129.885 32.9757C129.924 32.3469 129.542 31.7271 129.591 30.9237C129.708 29.0373 130.866 23.358 130.933 22.275ZM131.658 11.6946C131.734 10.4719 130.947 9.58166 130.039 9.52546C129.34 9.48223 128.574 9.96083 128.033 11.3301C127.571 12.5639 126.91 13.6101 126.837 14.7978C126.755 16.1253 127.489 16.7317 128.292 16.7815C129.061 16.829 129.934 16.3219 130.171 15.3197C130.415 14.2126 130.539 13.9047 131.163 12.8913C131.396 12.52 131.599 12.0767 131.658 11.6946ZM150.505 29.6228C150.566 28.6447 149.576 27.6366 148.633 27.5783C147.76 27.5242 147.219 28.3324 146.614 29.0314C146.123 29.5971 142.047 32.5711 139.982 32.5134C138.412 32.3812 137.546 30.5041 137.63 29.1417L137.643 28.9321C140.335 29.0636 144.29 27.4849 146.579 25.0666C147.142 24.4702 147.321 23.8501 147.342 23.5008C147.416 22.313 145.987 21.5935 144.031 21.4724C139.455 21.1892 134.09 24.0133 133.798 28.7293C133.593 32.048 135.96 35.7362 139.244 35.9394C142.422 36.1361 145.475 33.8352 147.732 32.502C148.097 32.2791 148.867 31.7306 149.194 31.5405C149.738 31.2585 150.453 30.4612 150.505 29.6228ZM143.437 24.2761C142.706 24.7568 141.423 25.6593 138.923 25.8202C138.853 25.8159 139.628 25.1976 140.99 24.7208C142.136 24.3358 143.192 24.2609 143.437 24.2761ZM162.136 35.0064C162.407 30.6397 155.027 30.8845 155.187 28.2994C155.289 26.6576 158.649 22.7977 160.173 22.5413C160.614 22.779 160.885 22.936 161.409 22.9685C162.456 23.0333 162.847 22.3912 162.892 21.6576C162.992 20.0507 161.194 19.0628 159.867 18.9806C159.238 18.9417 158.454 19.1387 157.939 19.5276C155.257 21.5008 151.794 24.197 151.557 28.0397C151.228 33.3495 158.381 33.9324 158.335 34.666C158.316 34.9804 154.319 36.1007 153.898 36.6708C153.558 37.0705 153.429 37.4483 153.41 37.7627C153.343 38.8456 154.489 39.5828 155.328 39.6347C156.969 39.7363 162.022 36.8578 162.136 35.0064Z" fill="#292929"/>
</svg>
