<svg width="202" height="57" viewBox="0 0 202 57" fill="none" xmlns="http://www.w3.org/2000/svg">
<path d="M0.528681 9.72362L199.789 0.913641L196.694 37.6644L9.90515 45.98L0.528681 9.72362Z" fill="#FF8383"/>
<path d="M32.0817 41.7706C32.313 46.56 28.6158 51.9947 25.015 52.1685C23.302 52.2512 21.3467 50.944 21.2623 49.196C21.2184 48.2871 21.6538 47.1448 22.7416 45.7257C25.5759 42.0147 29.88 40.4403 31.7825 39.9279C31.9511 40.5155 32.0514 41.1414 32.0817 41.7706ZM28.9903 29.2702C29.0646 30.8084 26.1121 32.0722 24.456 32.6077C24.3834 31.1045 26.8455 28.3926 27.6141 27.6196C28.3651 27.9338 28.9548 28.536 28.9903 29.2702ZM45.0142 37.4669C44.8978 35.0547 39.8935 35.1912 38.3553 35.2655C36.5724 35.3516 34.8678 35.6091 33.8924 35.7263C33.1375 34.6064 32.0082 33.7148 30.576 33.0831C31.8471 31.8304 32.6919 30.458 32.621 28.9897C32.5822 28.1857 32.2986 27.3934 31.6638 26.5831C32.5643 26.3644 33.4648 26.1457 34.3738 26.1018C34.7933 26.0816 34.8998 26.1115 34.9698 26.1081C36.508 26.0338 37.205 25.2293 37.1662 24.4252C37.1071 23.2017 35.7883 22.7397 34.8094 22.787C32.5021 22.8984 26.776 24.0509 26.1118 24.0829C26.1118 24.0829 25.3557 23.6639 24.7614 23.6926C23.8175 23.7382 23.0105 24.4429 23.0544 25.3519C23.0747 25.7714 23.2714 26.2174 23.6779 26.6533C22.2574 28.4389 20.4906 30.3113 20.6054 32.6885C20.6223 33.0381 20.7108 33.4193 20.7992 33.8005C20.1536 34.2171 19.5598 34.9816 19.5969 35.7507C19.6459 36.7645 20.6585 37.4165 21.7772 37.3624C22.4414 37.3304 23.0555 36.9854 23.7079 36.7086C24.6349 36.3134 25.6386 36.0547 26.5825 36.0091C27.7361 35.9534 28.8334 36.1808 29.7744 36.8011C25.7698 38.0457 23.1387 39.4342 19.6587 43.5618C18.0368 45.5323 17.3639 47.5621 17.4551 49.45C17.6559 53.6101 21.5615 56.1197 25.3721 55.9357C31.6298 55.6335 36.1359 47.3566 35.8388 41.2038C35.8033 40.4696 35.698 39.7389 35.5261 39.0814C36.9859 38.8357 38.2743 38.6684 39.7426 38.5975C39.9174 38.589 40.1272 38.5789 40.3037 38.6054C40.7885 39.2127 41.6061 39.4536 42.3752 39.4165C43.7386 39.3506 45.0649 38.5157 45.0142 37.4669ZM54.2116 28.0874C54.1643 27.1086 53.0699 26.2153 52.126 26.2609C51.2521 26.3031 50.8031 27.1658 50.2792 27.9269C49.8535 28.5432 46.1283 31.9468 44.069 32.1163C42.4942 32.1573 41.4276 30.3867 41.3617 29.0232L41.3516 28.8135C44.0418 28.6486 47.7995 26.645 49.8088 23.99C50.3028 23.3354 50.4123 22.6994 50.3954 22.3498C50.338 21.1612 48.8393 20.6028 46.8816 20.6973C42.302 20.9185 37.2799 24.3146 37.5078 29.0341C37.6681 32.3552 40.4256 35.7612 43.7118 35.6026C46.8931 35.449 49.6748 32.8268 51.7714 31.2538C52.1092 30.9922 52.8146 30.3625 53.1191 30.1375C53.6283 29.7976 54.2521 28.9265 54.2116 28.0874ZM46.5988 23.5493C45.925 24.1075 44.7487 25.1454 42.2817 25.5799C42.2118 25.5832 42.9139 24.8836 44.2153 24.2601C45.3121 23.7516 46.3541 23.5611 46.5988 23.5493ZM69.2402 19.5828C69.198 18.7088 68.4549 17.8336 66.9466 17.8013C66.4206 17.7917 65.9661 17.8136 65.5116 17.8356C64.5677 17.8811 63.6621 17.9949 62.6551 18.1837C62.7544 17.3379 63.0411 15.2917 62.9499 13.4039C62.8571 11.4812 62.3532 9.75347 60.8499 9.82605C59.4166 9.89526 59.196 11.1323 59.2483 12.2161C59.2686 12.6356 59.3272 13.1233 59.3508 13.6128C59.447 15.6054 59.074 18.0413 58.9465 19.0286C57.6017 19.4789 54.749 20.6329 53.809 21.4842C53.2716 21.9657 53.0871 22.5002 53.1124 23.0246C53.1614 24.0384 54.1525 24.9717 55.2013 24.921C55.516 24.9058 55.8954 24.7824 56.2 24.5574C57.2798 23.6994 57.5093 23.3729 58.5762 22.971C58.2107 29.1909 58.2315 30.3462 58.353 32.8633C58.4357 34.5763 59.7381 35.4245 60.8219 35.3721C61.6959 35.3299 62.4729 34.7318 62.4155 33.5431C62.3987 33.1936 62.1117 32.3314 62.0392 30.8281C61.9109 28.1712 62.1312 24.0258 62.2747 21.9164C63.4515 21.6143 64.9046 21.2288 66.4777 21.1528C66.7574 21.1393 67.2169 21.2223 67.6364 21.202C68.7185 21.1147 69.2773 20.3519 69.2402 19.5828ZM89.198 20.2661C89.1406 19.0774 88.3558 18.0641 87.0623 18.1266C84.9298 18.2295 85.2582 21.4024 85.2575 22.8391C85.2476 25.5377 85.1459 27.7852 85.2202 29.3234C85.3214 31.421 85.5158 33.2688 87.5434 33.1709C88.6272 33.1185 89.384 32.1009 89.3316 31.0171C89.3013 30.3879 88.853 29.8138 88.8142 29.0097C88.7231 27.1219 89.2503 21.3498 89.198 20.2661ZM88.7565 9.67003C88.6974 8.44645 87.8179 7.64794 86.9089 7.69183C86.2097 7.72558 85.5009 8.28542 85.114 9.70573C84.7902 10.9828 84.2482 12.0953 84.3056 13.2839C84.3697 14.6123 85.1658 15.1346 85.9699 15.0957C86.739 15.0586 87.551 14.4587 87.6769 13.4365C87.7976 12.3093 87.8873 11.9896 88.396 10.9139C88.5872 10.5192 88.7401 10.0563 88.7565 9.67003ZM97.4412 31.4666C98.9878 26.4862 100.044 22.9661 100.394 22.9492C100.743 22.9324 100.693 27.7003 101.084 29.9941C101.288 31.3158 101.833 34.6184 103.476 34.5391C104.455 34.4918 105.457 33.4623 105.411 32.5184C105.379 31.8542 105.032 31.2052 104.689 30.626C104.559 30.1067 104.534 29.5823 104.508 29.0579C104.464 28.149 104.492 27.2716 104.45 26.3977C104.214 21.5034 103.59 17.2935 101.632 17.3881C100.583 17.4387 99.2074 18.6965 97.3249 21.8009C97.3379 21.3448 97.4074 20.6055 97.3753 19.9413C97.3483 19.382 97.253 18.861 96.9948 18.5931C96.5883 18.1572 95.764 17.7765 95.0299 17.812C94.2957 17.8474 93.6517 18.299 93.5659 19.4244C93.475 20.445 93.3514 22.2381 93.4003 23.2519C93.4881 25.0698 93.4035 30.5752 93.4322 31.1696C93.4946 32.463 93.8351 33.7081 95.1635 33.6439C96.7017 33.5697 97.0791 32.6754 97.4412 31.4666ZM136.025 16.3582C135.983 15.4842 135.239 14.6091 133.731 14.5768C133.205 14.5671 132.751 14.5891 132.296 14.611C131.352 14.6566 130.447 14.7704 129.44 14.9592C129.539 14.1134 129.826 12.0672 129.734 10.1794C129.642 8.25663 129.138 6.52892 127.634 6.6015C126.201 6.67071 125.98 7.90778 126.033 8.99152C126.053 9.41103 126.112 9.89877 126.135 10.3882C126.232 12.3809 125.859 14.8167 125.731 15.804C124.386 16.2544 121.533 17.4083 120.593 18.2596C120.056 18.7411 119.872 19.2756 119.897 19.8C119.946 20.8138 120.937 21.7471 121.986 21.6965C122.3 21.6813 122.68 21.5578 122.984 21.3329C124.064 20.4748 124.294 20.1484 125.361 19.7464C124.995 25.9663 125.016 27.1217 125.138 29.6387C125.22 31.3517 126.523 32.1999 127.606 32.1476C128.48 32.1054 129.257 31.5072 129.2 30.3186C129.183 29.969 128.896 29.1068 128.824 27.6036C128.695 24.9467 128.916 20.8012 129.059 18.6919C130.236 18.3898 131.689 18.0042 133.262 17.9283C133.542 17.9148 134.001 17.9977 134.421 17.9774C135.503 17.8902 136.062 17.1273 136.025 16.3582ZM141.935 22.0298C142.03 23.9875 140.366 27.2565 138.198 27.3612C137.324 27.4034 137.032 25.7005 137.008 25.2111C136.932 23.6379 138.779 19.7994 140.527 19.715C141.506 19.6677 141.897 21.2257 141.935 22.0298ZM145.483 22.2089C145.333 19.0975 143.14 15.7694 139.889 15.9264C136.078 16.1103 133.215 22.1354 133.374 25.4216C133.504 28.1135 135.261 31.1122 138.057 30.9772C141.309 30.8202 145.723 27.1731 145.483 22.2089ZM158.418 18.1153C158.351 16.7169 157.227 15.9302 156.213 15.9792C155.304 16.0231 154.497 16.7278 154.531 18.1628C154.52 18.6539 154.635 26.1121 152.887 26.1965C151.558 26.2606 151.099 21.0968 150.967 18.3699L150.915 17.2862C150.822 16.0993 149.903 15.1976 148.749 15.2533C147.875 15.2955 147.1 15.9286 147.164 17.2571C147.328 20.6481 148.145 30.3149 153.214 30.0702C157.549 29.8609 158.35 20.3262 158.418 18.1153ZM164.987 29.6419C169.427 29.4276 175.728 24.9535 178.667 22.6741C179.038 22.3758 179.164 22.0894 179.149 21.7748C179.113 21.0406 178.137 20.422 177.193 20.4676C176.914 20.4811 176.603 20.5662 176.365 20.7178C173.674 22.3195 168.078 26.1638 165.036 26.3107C164.162 26.3529 163.478 25.9654 163.437 25.1264C163.344 23.2036 165.867 19.5777 167.212 19.1274C167.598 19.1438 167.883 19.2351 168.198 19.2199C169.596 19.1524 170.786 17.6583 170.728 16.4697C170.671 15.2811 169.469 15.0588 168.455 15.1078C164.33 15.3069 159.461 21.8844 159.643 25.66C159.792 28.7364 162.12 29.7803 164.987 29.6419ZM192.475 26.7729C192.458 26.4233 192.368 26.0072 192.329 25.2031C192.294 24.469 192.33 23.7664 192.289 22.9274C192.153 20.0957 191.631 13.6384 188.065 13.8105C185.862 13.9169 183.696 16.229 181.928 18.0664C181.98 16.2418 182.065 14.3805 182.151 12.5192C182.289 10.305 182.701 8.67324 182.637 7.34479C182.567 5.91145 181.615 5.0464 180.636 5.09366C179.727 5.13755 178.789 6.02383 178.647 8.16816C178.571 9.50337 178.599 11.5344 178.414 14.2414C178.182 18.1422 178.334 21.2885 178.377 25.8067C178.388 26.7523 177.866 27.5484 177.909 28.4573C177.972 29.7508 179.021 30.436 180.07 30.3854C181.189 30.3314 182.268 29.4733 182.182 27.6904C182.15 27.0261 182.02 26.5068 181.996 26.0174C181.959 25.2483 182.012 24.1595 182.487 23.1203C183.21 21.4035 185.793 17.5644 187.541 17.4801C188.45 17.4362 188.555 19.6036 188.589 20.3028C188.685 22.2955 188.5 24.2667 188.574 25.8049C188.673 27.8675 189.759 28.586 190.738 28.5387C191.647 28.4949 192.456 27.8251 192.475 26.7729Z" fill="#292929"/>
</svg>
