<svg width="99" height="83" viewBox="0 0 99 83" fill="none" xmlns="http://www.w3.org/2000/svg">
<path d="M87.6731 64.4935L87.4544 65.4195C87.3529 65.8829 87.1296 66.3108 86.8076 66.6591C86.4856 67.0074 86.0764 67.2635 85.6225 67.401L57.4014 75.8356C56.9466 75.9659 56.466 75.9771 56.0056 75.8681C55.5525 75.761 55.1352 75.5376 54.7947 75.22L15.4118 38.1565C15.0658 37.8307 14.8128 37.4187 14.6787 36.9628C14.5445 36.5069 14.5341 36.0235 14.6485 35.5622L14.797 34.9334L56.4187 74.1189L87.6731 64.4935Z" fill="#263238"/>
<path d="M14.7959 34.9334L45.454 25.6862C45.7227 25.6067 46.0075 25.5988 46.2802 25.6632C46.5529 25.7276 46.8041 25.8621 47.0088 26.0534L87.4913 64.1853C87.5365 64.2277 87.5696 64.2813 87.5875 64.3406C87.6053 64.3999 87.6073 64.4629 87.593 64.5231C87.5788 64.5834 87.5489 64.6389 87.5064 64.6839C87.4639 64.729 87.4103 64.762 87.3509 64.7798L56.3491 74.1027L14.7959 34.9334Z" fill="#282828"/>
<path d="M57.2118 71.8801L73.7758 66.9084L36.9515 32.2478L20.3184 37.1548L57.2118 71.8801Z" fill="#263238"/>
<path d="M69.8958 50.1796L69.5951 50.2775L61.4749 52.7171L50.4953 42.3747L50.2675 42.164L58.6857 39.6379L69.8958 50.1796Z" fill="black"/>
<path d="M69.5918 50.2771L61.4716 52.7166L50.492 42.3743L58.6122 39.9347L69.5918 50.2771Z" fill="#263238"/>
<path d="M56.4192 74.1188L56.0115 75.8452C55.5584 75.738 55.141 75.5147 54.8006 75.1971L15.4176 38.1336C15.0717 37.8077 14.8187 37.3957 14.6845 36.9398C14.5504 36.4839 14.54 36.0005 14.6544 35.5392L14.8029 34.9104L56.4192 74.1188Z" fill="black"/>
<path d="M55.5985 74.3233C55.1298 74.39 54.6521 74.3498 54.2012 74.2057C53.7502 74.0616 53.3378 73.8172 52.9947 73.491L13.7846 36.5649C13.4423 36.2463 13.176 35.855 13.0051 35.4199C12.8342 34.9847 12.7632 34.5167 12.7972 34.0504L14.8088 3.25114C14.837 3.08097 14.8767 2.91291 14.9276 2.74811C15.0213 2.33889 15.1964 1.95274 15.4427 1.61271C15.6889 1.27269 16.0011 0.985746 16.3606 0.769051L57.0938 39.1171C57.3525 39.3523 57.5555 39.6423 57.6878 39.9659C57.8202 40.2895 57.8787 40.6386 57.859 40.9876L55.5985 74.3233Z" fill="#282828"/>
<path d="M56.4188 74.1188L56.0696 74.2174C55.9156 74.2655 55.7578 74.3009 55.598 74.3233L57.7738 41.0401C57.7935 40.691 57.735 40.3419 57.6026 40.0183C57.4702 39.6947 57.2673 39.4047 57.0085 39.1695L16.3319 0.786565C16.5616 0.639991 16.8117 0.528225 17.0741 0.454904L57.8967 38.8844C58.1544 39.1181 58.3569 39.4061 58.4897 39.7276C58.6225 40.0491 58.6823 40.3961 58.6646 40.7435L56.4188 74.1188Z" fill="#7E8588"/>
<path d="M36.4908 40.9503C36.3651 38.305 35.2254 35.8097 33.3084 33.9824C31.4103 32.2064 29.7777 32.4243 29.6394 34.4919C29.7676 37.1366 30.9068 39.6311 32.8218 41.4598C34.7084 43.2331 36.3553 43.0065 36.4908 40.9503Z" fill="#F55F4E"/>
</svg>
