<svg width="73" height="67" viewBox="0 0 73 67" fill="none" xmlns="http://www.w3.org/2000/svg">
<rect x="1" y="1" width="71" height="65" rx="25" stroke="black" stroke-width="2"/>
<g clip-path="url(#clip0_542_535)">
<path d="M45.5195 24H28.4766C27.6602 24 27 24.6445 27 25.4414V42.5547C27 43.3516 27.6602 44 28.4766 44H45.5195C46.3359 44 47 43.3516 47 42.5586V25.4414C47 24.6445 46.3359 24 45.5195 24ZM32.9336 41.043H29.9648V31.4961H32.9336V41.043ZM31.4492 30.1953C30.4961 30.1953 29.7266 29.4258 29.7266 28.4766C29.7266 27.5273 30.4961 26.7578 31.4492 26.7578C32.3984 26.7578 33.168 27.5273 33.168 28.4766C33.168 29.4219 32.3984 30.1953 31.4492 30.1953ZM44.043 41.043H41.0781V36.4023C41.0781 35.2969 41.0586 33.8711 39.5352 33.8711C37.9922 33.8711 37.7578 35.0781 37.7578 36.3242V41.043H34.7969V31.4961H37.6406V32.8008H37.6797C38.0742 32.0508 39.043 31.2578 40.4844 31.2578C43.4883 31.2578 44.043 33.2344 44.043 35.8047V41.043V41.043Z" fill="#202020"/>
</g>
<defs>
<clipPath id="clip0_542_535">
<rect width="20" height="20" fill="white" transform="translate(27 24)"/>
</clipPath>
</defs>
</svg>
