<svg width="191" height="44" viewBox="0 0 191 44" fill="none" xmlns="http://www.w3.org/2000/svg">
<path d="M0.0330533 10.9198L189.107 3.22265L185.885 32.6392L8.64489 39.9002L0.0330533 10.9198Z" fill="#FA8482"/>
<path d="M19.5476 34.6821C23.988 34.4792 30.3011 30.0215 33.2455 27.7497C33.6173 27.4524 33.7444 27.1663 33.73 26.8517C33.6965 26.1174 32.7221 25.4963 31.7781 25.5394C31.4984 25.5522 31.1869 25.6365 30.9486 25.7875C28.2535 27.3822 22.6475 31.212 19.6057 31.351C18.7316 31.3909 18.0481 31.0017 18.0098 30.1626C17.9219 28.2396 20.4544 24.6202 21.8004 24.1733C22.1866 24.1907 22.4711 24.2829 22.7857 24.2685C24.1843 24.2046 25.3775 22.7136 25.3232 21.5248C25.2689 20.336 24.0673 20.1107 23.0534 20.157C18.9277 20.3455 14.0422 26.9103 14.2147 30.6863C14.3553 33.7631 16.6806 34.8131 19.5476 34.6821ZM39.4173 29.8502C39.1122 30.0744 37.93 31.0394 37.3706 31.0649C37.1958 31.0729 37.0861 30.9728 37.0765 30.763C37.0286 29.7141 37.8897 28.6237 38.7638 28.5837C39.0785 28.5694 39.2169 29.2988 39.4173 29.8502ZM44.4496 25.7313C44.2882 22.2 42.2976 18.507 38.5215 18.6795C36.4237 18.7753 34.1275 19.8963 34.2217 21.9591C34.2665 22.9381 35.2742 23.5227 36.0784 23.486C36.7077 23.4572 37.2178 23.1186 37.2923 22.4495C37.3209 22.3081 37.8278 21.8995 38.4222 21.8723C40.1703 21.7925 40.8036 24.9168 40.8611 26.1755C40.0901 25.4049 39.2366 25.1286 38.3975 25.1669C35.8801 25.2819 33.5303 28.2973 33.6533 30.9895C33.7412 32.9125 35.2116 34.4219 37.1346 34.3341C38.3933 34.2766 39.6598 33.6231 40.6164 33.0889C41.0185 33.4559 41.6225 33.6385 42.147 33.6146C42.6015 33.5938 42.9797 33.4364 43.1401 33.1137C43.5627 32.3937 44.5997 29.0178 44.4496 25.7313ZM57.9523 30.6852C57.7526 26.3147 50.4422 27.3495 50.324 24.7622C50.2489 23.1189 53.1754 18.9209 54.6628 18.5026C55.1269 18.6916 55.413 18.8187 55.9375 18.7947C56.9864 18.7468 57.3057 18.0665 57.2721 17.3323C57.1987 15.724 55.3057 14.9346 53.977 14.9953C53.3477 15.024 52.5897 15.3039 52.1194 15.7458C49.6645 17.9952 46.5105 21.0473 46.6862 24.8933C46.929 30.2078 54.1029 30.0202 54.1365 30.7544C54.1508 31.0691 50.2972 32.6116 49.9398 33.2235C49.6443 33.6575 49.5569 34.0468 49.5713 34.3615C49.6208 35.4454 50.8399 36.0554 51.6791 36.017C53.3224 35.942 58.0369 32.5382 57.9523 30.6852ZM75.8056 25.2097C75.7609 24.2307 74.6688 23.3346 73.7248 23.3777C72.8507 23.4177 72.3996 24.2791 71.8737 25.0389C71.4463 25.6541 67.7123 29.048 65.6527 29.2122C64.0777 29.2491 63.0157 27.4757 62.9534 26.1122L62.9438 25.9024C65.6344 25.7444 69.3973 23.7506 71.4135 21.1008C71.9092 20.4475 72.0203 19.8118 72.0043 19.4622C71.95 18.2734 70.4528 17.7111 68.4948 17.8006C63.9146 18.0099 58.8838 21.393 59.0994 26.1131C59.2512 29.4346 61.9998 32.8477 65.2864 32.6976C68.468 32.5522 71.2566 29.9372 73.3573 28.3697C73.6957 28.109 74.4028 27.481 74.7079 27.2569C75.2179 26.9183 75.8439 26.0488 75.8056 25.2097ZM68.2046 20.6518C67.5293 21.2082 66.3503 22.2431 63.8823 22.6712C63.8124 22.6744 64.5163 21.9765 65.8193 21.3564C66.9174 20.8508 67.9599 20.663 68.2046 20.6518ZM102.467 28.6515C102.267 24.281 94.9565 25.3157 94.8383 22.7284C94.7632 21.0851 97.6897 16.8872 99.1771 16.4689C99.6413 16.6579 99.9274 16.785 100.452 16.761C101.501 16.7131 101.82 16.0328 101.786 15.2986C101.713 13.6903 99.82 12.9008 98.4914 12.9615C97.862 12.9903 97.104 13.2702 96.6337 13.7121C94.1788 15.9615 91.0248 19.0136 91.2005 22.8596C91.4433 28.1741 98.6172 27.9864 98.6508 28.7207C98.6651 29.0353 94.8115 30.5778 94.4541 31.1898C94.1586 31.6237 94.0713 32.0131 94.0856 32.3278C94.1351 33.4117 95.3543 34.0217 96.1934 33.9833C97.8367 33.9082 102.551 30.5045 102.467 28.6515ZM118.939 15.4609C118.899 14.5868 118.158 13.7097 116.65 13.6735C116.124 13.6625 115.67 13.6833 115.215 13.704C114.271 13.7472 113.365 13.8586 112.358 14.0448C112.459 13.1993 112.751 11.1538 112.665 9.26581C112.577 7.34282 112.077 5.61381 110.574 5.6825C109.141 5.74799 108.917 6.98449 108.966 8.06836C108.985 8.48793 109.043 8.97582 109.065 9.46531C109.156 11.4582 108.777 13.8931 108.647 14.88C107.301 15.3269 104.445 16.4735 103.503 17.3224C102.964 17.8024 102.778 18.3365 102.802 18.8609C102.849 19.8749 103.837 20.8107 104.886 20.7628C105.201 20.7484 105.581 20.626 105.886 20.4018C106.968 19.5465 107.198 19.2207 108.266 18.8215C107.885 25.0404 107.902 26.1958 108.017 28.7132C108.096 30.4264 109.396 31.2779 110.48 31.2284C111.354 31.1885 112.133 30.5923 112.078 29.4036C112.062 29.0539 111.778 28.191 111.709 26.6876C111.587 24.0304 111.819 19.8855 111.967 17.7765C113.145 17.4775 114.599 17.0957 116.172 17.0238C116.452 17.011 116.912 17.0952 117.331 17.076C118.413 16.9915 118.974 16.2301 118.939 15.4609ZM128.823 17.8473C128.759 16.4488 127.637 15.6591 126.623 15.7055C125.714 15.747 124.905 16.4496 124.936 17.8847C124.923 18.3758 125.019 25.8342 123.271 25.9141C121.942 25.9748 121.496 20.8098 121.371 18.0826L121.322 16.9988C121.232 15.8116 120.315 14.9075 119.161 14.9602C118.287 15.0002 117.51 15.6313 117.571 16.9599C117.726 20.3514 118.518 30.0203 123.588 29.7887C127.923 29.5906 128.749 20.058 128.823 17.8473ZM140.818 23.0453C139.934 23.6462 136.411 26.2948 134.733 26.3715C134.139 26.3986 133.843 26.0617 133.821 25.5723C133.733 23.6493 136.281 19.6088 138.449 19.5097C140.232 19.4283 140.558 21.971 140.818 23.0453ZM146.559 6.84137C146.49 5.33794 145.115 4.38469 143.927 4.439C143.088 4.47734 142.344 5.0719 142.409 6.50541C142.427 6.89 142.519 7.3763 142.683 7.89436C142.72 8.69852 142.37 14.0751 142.107 17.5207C140.969 16.3815 139.686 15.9145 138.357 15.9752C134.232 16.1637 129.951 21.4045 130.146 25.6701C130.26 28.1525 131.778 29.94 134.4 29.8202C136.918 29.7052 139.891 28.0628 141.594 27.004C141.989 27.967 142.858 28.593 143.837 28.5482C144.956 28.4971 145.238 26.2419 145.214 24.9466C146.417 24.4362 147.003 23.4634 146.963 22.5893C146.93 21.8551 146.443 21.1766 145.555 20.9019C145.647 16.0275 146.275 8.29085 146.431 7.8633C146.555 7.50727 146.575 7.191 146.559 6.84137ZM154.268 15.4936C154.214 14.3048 153.432 13.2894 152.138 13.3485C150.005 13.446 150.325 16.6197 150.321 18.0564C150.304 20.755 150.196 23.0022 150.267 24.5406C150.363 26.6384 150.552 28.4867 152.58 28.394C153.664 28.3445 154.423 27.3288 154.374 26.2449C154.345 25.6156 153.898 25.0404 153.862 24.2362C153.775 22.3482 154.318 16.5774 154.268 15.4936ZM153.854 4.89641C153.798 3.67269 152.921 2.8719 152.011 2.91343C151.312 2.94538 150.602 3.50338 150.211 4.92268C149.884 6.19894 149.339 7.30997 149.394 8.49873C149.454 9.82734 150.249 10.3516 151.053 10.3149C151.822 10.2797 152.636 9.68198 152.765 8.66005C152.888 7.53323 152.979 7.21377 153.49 6.1393C153.682 5.74512 153.837 5.28261 153.854 4.89641ZM173.652 20.7394C173.607 19.7604 172.515 18.8643 171.571 18.9074C170.697 18.9474 170.246 19.8088 169.72 20.5686C169.292 21.1838 165.558 24.5777 163.499 24.7419C161.924 24.7788 160.862 23.0055 160.799 21.6419L160.79 21.4321C163.48 21.2741 167.243 19.2803 169.259 16.6305C169.755 15.9772 169.866 15.3415 169.85 14.9919C169.796 13.8031 168.299 13.2409 166.341 13.3303C161.761 13.5396 156.73 16.9227 156.945 21.6428C157.097 24.9643 159.846 28.3774 163.132 28.2273C166.314 28.0819 169.103 25.4669 171.203 23.8994C171.542 23.6387 172.249 23.0108 172.554 22.7866C173.064 22.448 173.69 21.5785 173.652 20.7394ZM166.051 16.1815C165.375 16.7379 164.196 17.7728 161.728 18.2009C161.658 18.2041 162.362 17.5062 163.665 16.8861C164.763 16.3805 165.806 16.1927 166.051 16.1815ZM185.793 24.8445C185.593 20.4741 178.283 21.5088 178.165 18.9215C178.09 17.2782 181.016 13.0803 182.504 12.6619C182.968 12.851 183.254 12.978 183.778 12.9541C184.827 12.9062 185.147 12.2259 185.113 11.4916C185.04 9.88331 183.147 9.09389 181.818 9.15459C181.189 9.18334 180.431 9.46323 179.96 9.90515C177.505 12.1545 174.351 15.2067 174.527 19.0527C174.77 24.3671 181.944 24.1795 181.977 24.9137C181.992 25.2284 178.138 26.7709 177.781 27.3828C177.485 27.8168 177.398 28.2062 177.412 28.5208C177.462 29.6047 178.681 30.2147 179.52 30.1764C181.163 30.1013 185.878 26.6976 185.793 24.8445Z" fill="#292929"/>
</svg>
