<svg width="36" height="14" viewBox="0 0 36 14" fill="none" xmlns="http://www.w3.org/2000/svg">
<path d="M32.4941 4.69996C32.179 4.7418 31.8633 4.78228 31.5468 4.82145C32.0492 4.58831 32.559 4.36177 33.0765 4.14204C32.7439 4.0976 32.3522 4.04494 31.913 3.97969C29.6554 3.64424 16.7469 -0.152876 25.2455 2.00045C26.246 2.25397 34.2185 3.67209 33.8923 3.80401C33.6182 3.91482 33.3463 4.0275 33.0765 4.14204C34.6725 4.35529 34.9073 4.37951 32.4941 4.69996Z" fill="#202020"/>
<path d="M2 6.52441C11.9446 5.98516 22.5696 6.01787 32.4941 4.69996C35.4102 4.31272 34.4596 4.35807 31.913 3.97969C29.6554 3.64425 16.7469 -0.152876 25.2455 2.00045C26.246 2.25397 34.2185 3.67209 33.8923 3.80401C28.6678 5.91628 24.2349 8.71051 20.1838 11.9969" stroke="#202020" stroke-width="3" stroke-linecap="round"/>
</svg>
