<svg width="68" height="149" viewBox="0 0 68 149" fill="none" xmlns="http://www.w3.org/2000/svg">
<path d="M64.0168 10.5013C58.1925 7.21453 48.2912 -1.80487 37.9574 5.09657C32.758 8.56895 33.7344 16.6693 34.3152 20.0869C35.343 26.1337 37.2962 32.7388 36.7409 39.4903C36.1474 46.7066 30.0965 45.8364 25.3606 46.1643C9.11974 47.2886 -1.73861e-06 70.5 4 86.5C8 102.5 12.6483 106.694 37.9574 124C63.2665 141.306 59.6774 142.359 59.9638 142.869C61.3018 145.253 63.1153 144.919 63.2665 141.306C63.3744 138.725 63.162 121.427 62.9954 131.289C62.925 135.461 65.9269 140.509 64.9089 144.745C64.2418 147.52 48.6614 142.915 43.7715 144.71" stroke="#202020" stroke-width="5" stroke-linecap="round"/>
</svg>
