<svg width="247" height="173" viewBox="0 0 247 173" fill="none" xmlns="http://www.w3.org/2000/svg">
<path d="M205.32 32.999L217 172.999L5.53257 166.155L-6.18962e-06 42.3323L205.32 32.999Z" fill="#282828"/>
<circle cx="202.355" cy="43.2218" r="20.463" transform="rotate(-3.19643 202.355 43.2218)" fill="white"/>
<path d="M187.12 17.2087L203.208 39.0302L223.166 20.682L207.384 42.7259L231.002 56.0377L205.16 47.8401L199.798 74.4155L199.609 47.3052L172.677 50.4178L198.402 41.8604L187.12 17.2087Z" fill="#F9E857"/>
<path d="M49.6798 140.588C49.6527 141.165 47.0841 142.594 45.4683 143.301L45.4929 142.775C45.5176 142.248 45.5592 141.723 45.6868 141.541C45.7248 141.458 48.9859 140.504 49.5803 140.532C49.6482 140.535 49.6814 140.554 49.6798 140.588ZM53.1624 146.537C53.1938 144.411 50.5184 143.759 48.8808 143.478C50.0057 142.714 51.8303 141.182 51.886 139.994C51.9305 139.043 50.8962 138.96 50.2509 138.93C48.7226 138.858 46.5236 139.3 45.5769 139.528C45.3996 139.315 45.1828 139.22 44.979 139.211C44.5036 139.188 44.009 139.574 43.8995 140.096C43.5665 140.302 43.2725 140.765 43.2526 141.189C43.2367 141.529 43.3745 141.859 43.7911 142.048C43.7391 142.795 43.6874 143.898 43.6357 145.002C43.5857 146.072 43.5581 147.024 43.5239 147.754C43.5144 147.958 43.4492 148.261 43.4404 148.448C43.384 149.654 44.058 150.162 44.6693 150.19C45.3485 150.222 45.6279 149.707 45.6549 149.13C45.6692 148.824 45.5963 148.566 45.5134 148.153C45.377 147.432 45.391 146.769 45.4538 145.428C46.1265 145.238 47.1703 145.117 47.6797 145.14C50.4986 145.272 51.3249 146.162 51.3154 146.366C51.2558 147.639 49.4513 149.104 48.381 149.428C48.208 149.488 47.9695 149.494 47.7819 149.502C46.9967 149.55 46.1212 149.714 46.0798 150.597C46.052 151.191 46.3579 151.563 46.9183 151.589C48.7184 151.673 53.0004 149.27 53.1624 146.537ZM57.8823 147.048C57.8378 147.999 56.8824 149.503 55.8296 149.453C55.405 149.433 55.3421 148.597 55.3532 148.359C55.389 147.595 56.459 145.824 57.308 145.863C57.7835 145.886 57.9006 146.657 57.8823 147.048ZM59.5895 147.298C59.6602 145.786 58.7532 144.076 57.1739 144.002C55.323 143.916 53.6611 146.697 53.5864 148.293C53.5252 149.601 54.2363 151.132 55.5949 151.195C57.1741 151.269 59.4766 149.709 59.5895 147.298ZM64.5694 147.361C64.5249 148.312 63.5695 149.816 62.5167 149.766C62.0921 149.746 62.0292 148.91 62.0403 148.672C62.0761 147.908 63.1461 146.137 63.9951 146.177C64.4706 146.199 64.5877 146.97 64.5694 147.361ZM66.2766 147.611C66.3473 146.099 65.4403 144.389 63.861 144.315C62.0101 144.229 60.3482 147.01 60.2735 148.606C60.2122 149.914 60.9234 151.445 62.2819 151.508C63.8612 151.582 66.1637 150.022 66.2766 147.611ZM77.6008 150.66C77.6246 150.15 77.1367 149.668 76.6102 149.643C76.3216 149.63 76.0281 149.718 75.8416 150.067C75.8222 150.117 75.4853 150.407 74.7551 150.373C73.1418 150.298 71.018 148.769 69.8932 147.712C71.4146 147.205 72.5335 146.934 73.443 146.772C73.8384 146.688 75.1563 146.529 75.419 146.371C75.6469 146.228 75.852 145.847 75.8686 145.49C75.8853 145.133 75.7136 144.802 75.0853 144.773C74.44 144.742 71.0478 145.588 69.6702 145.932C69.8731 144.869 70.1906 143.539 70.5862 142.724C70.6992 142.491 70.8292 142.259 70.8412 142.004C70.8666 141.461 70.5007 140.916 69.9063 140.888C69.7705 140.882 69.633 140.909 69.4948 140.954C68.5619 141.251 67.4606 147.326 67.3469 149.754C67.2627 151.554 67.4692 152.959 68.0296 152.986C68.8447 153.024 69.0643 152.694 69.089 152.167C69.1112 151.692 68.9849 151.482 69.0398 150.31C69.0549 149.987 69.07 149.665 69.1183 149.361C70.5246 150.584 72.434 151.966 74.4378 152.06C75.5247 152.111 75.8762 151.872 76.5504 151.649C77.3103 151.412 77.5833 151.033 77.6008 150.66ZM87.3798 150.76C87.2222 150.855 86.6072 151.268 86.3355 151.256C86.2506 151.252 86.202 151.198 86.2068 151.097C86.2306 150.587 86.696 150.098 87.1205 150.118C87.2734 150.125 87.3076 150.484 87.3798 150.76ZM89.9983 148.994C90.0786 147.278 89.2814 145.403 87.4474 145.317C86.4285 145.27 85.2677 145.709 85.2208 146.711C85.1985 147.186 85.6597 147.514 86.0503 147.532C86.356 147.547 86.6178 147.406 86.6839 147.085C86.704 147.018 86.9675 146.843 87.2562 146.857C88.1053 146.897 88.2715 148.436 88.2428 149.048C87.9045 148.64 87.5041 148.468 87.0966 148.449C85.8739 148.392 84.6022 149.745 84.541 151.053C84.4973 151.987 85.1408 152.783 86.0748 152.826C86.6861 152.855 87.3279 152.596 87.8145 152.38C87.9926 152.576 88.2765 152.691 88.5312 152.703C88.752 152.713 88.9419 152.654 89.034 152.505C89.2707 152.176 89.9236 150.59 89.9983 148.994ZM112.094 152.938C112.123 152.327 111.906 151.142 111.81 150.287C111.494 147.583 111.495 145.745 111.497 144.605C111.489 143.328 111.394 142.456 110.409 142.41C109.916 142.387 109.567 142.592 109.327 142.989C107.764 145.468 106.32 147.954 104.792 150.435C104.533 149.419 104.182 148.194 103.778 147.001C103.538 146.309 102.24 141.687 101.757 141.46C101.657 141.404 101.589 141.401 101.505 141.397C101.08 141.377 100.704 141.768 100.436 142.045C100.007 142.484 99.9383 142.498 99.9049 143.211C99.866 144.044 99.5731 144.847 99.3991 145.655C99.2678 146.279 98.2418 151.473 98.1699 151.554C97.8436 151.982 97.708 152.333 97.6937 152.638C97.6651 153.25 98.1594 153.596 98.7028 153.622C99.2972 153.649 99.9422 153.322 99.9835 152.439C99.9859 152.388 99.9729 152.303 99.9753 152.252C99.9991 151.742 100.847 147.817 101.382 145.459C102.096 147.671 102.877 149.886 103.245 152.201C103.39 153.109 103.9 153.491 104.409 153.514C105.037 153.544 105.69 153.064 105.77 152.438C105.793 152.303 108.175 148.33 109.555 146.114L110.086 152.572C110.066 153.013 109.989 153.197 109.976 153.486C109.962 154.132 110.301 154.522 111.1 154.559C111.779 154.591 112.05 153.889 112.094 152.938ZM121.293 150.901C121.315 150.426 120.827 149.943 120.369 149.922C119.944 149.902 119.688 150.298 119.399 150.642C119.165 150.921 117.207 152.395 116.203 152.382C115.44 152.329 115.006 151.424 115.037 150.761L115.042 150.659C116.35 150.704 118.259 149.908 119.353 148.717C119.622 148.423 119.704 148.121 119.712 147.951C119.739 147.374 119.041 147.034 118.09 146.99C115.865 146.886 113.28 148.296 113.173 150.589C113.097 152.202 114.274 153.976 115.87 154.051C117.415 154.123 118.881 152.984 119.967 152.32C120.143 152.209 120.513 151.937 120.67 151.842C120.932 151.701 121.274 151.309 121.293 150.901ZM117.821 148.356C117.47 148.595 116.853 149.042 115.64 149.139C115.606 149.137 115.978 148.831 116.636 148.59C117.19 148.394 117.703 148.35 117.821 148.356ZM129.821 151.3C129.843 150.825 129.355 150.342 128.897 150.321C128.472 150.301 128.215 150.698 127.927 151.041C127.693 151.32 125.735 152.794 124.731 152.781C123.968 152.728 123.534 151.823 123.565 151.161L123.569 151.059C124.878 151.103 126.787 150.307 127.881 149.116C128.15 148.822 128.232 148.52 128.24 148.35C128.267 147.773 127.568 147.434 126.617 147.389C124.393 147.285 121.808 148.696 121.701 150.988C121.625 152.601 122.802 154.375 124.398 154.45C125.943 154.522 127.409 153.383 128.495 152.719C128.671 152.608 129.041 152.336 129.198 152.241C129.46 152.1 129.802 151.708 129.821 151.3ZM126.349 148.755C125.998 148.994 125.381 149.442 124.168 149.538C124.134 149.536 124.506 149.23 125.164 148.989C125.718 148.794 126.23 148.75 126.349 148.755ZM138.495 148.728C138.522 148.151 138.189 147.625 137.561 147.595C137.527 147.594 137.51 147.593 137.441 147.607C137.338 147.278 137.011 146.991 136.453 146.914C136.199 146.885 135.978 146.874 135.757 146.864C135.299 146.843 134.856 146.856 134.36 146.901C134.447 146.496 134.68 145.52 134.723 144.603C134.767 143.669 134.603 142.811 133.872 142.776C133.176 142.744 133.012 143.332 132.988 143.858C132.978 144.062 132.984 144.301 132.973 144.538C132.928 145.506 132.635 146.667 132.528 147.138C131.857 147.294 130.424 147.721 129.931 148.089C129.649 148.297 129.535 148.547 129.523 148.802C129.5 149.294 129.936 149.791 130.446 149.815C130.598 149.822 130.788 149.78 130.945 149.685C131.507 149.32 131.633 149.173 132.167 149.027C131.704 152.018 131.661 152.578 131.603 153.8C131.564 154.632 132.155 155.103 132.682 155.127C133.106 155.147 133.509 154.894 133.536 154.316C133.544 154.146 133.445 153.716 133.48 152.986C133.54 151.696 133.838 149.701 134.004 148.688C134.587 148.596 135.307 148.477 136.072 148.512C136.19 148.518 136.409 148.579 136.596 148.588C136.507 149.026 136.503 149.486 136.471 149.791C136.342 151.095 136.189 152.177 136.154 152.924C136.107 153.943 136.115 154.845 137.1 154.892C137.627 154.916 138.04 154.459 138.064 153.933C138.079 153.627 137.888 153.329 137.907 152.938C137.95 152.021 138.471 149.254 138.495 148.728ZM138.77 143.584C138.798 142.99 138.409 142.563 137.968 142.543C137.628 142.527 137.26 142.765 137.007 143.434C136.792 144.036 136.478 144.549 136.451 145.127C136.421 145.772 136.782 146.061 137.173 146.079C137.546 146.097 137.966 145.844 138.074 145.356C138.185 144.816 138.243 144.666 138.538 144.169C138.649 143.987 138.744 143.77 138.77 143.584ZM141.97 154.524C142.947 152.187 143.62 150.534 143.79 150.542C143.96 150.55 143.716 152.853 143.799 153.98C143.837 154.628 143.948 156.25 144.746 156.288C145.222 156.31 145.753 155.858 145.775 155.4C145.79 155.077 145.652 154.747 145.513 154.451C145.474 154.194 145.486 153.94 145.498 153.685C145.518 153.243 145.572 152.82 145.592 152.396C145.703 150.019 145.596 147.954 144.645 147.91C144.135 147.886 143.412 148.431 142.359 149.845C142.386 149.625 142.454 149.271 142.469 148.948C142.482 148.676 142.46 148.42 142.347 148.279C142.171 148.049 141.79 147.827 141.433 147.81C141.076 147.794 140.744 147.982 140.651 148.523C140.56 149.012 140.417 149.873 140.394 150.366C140.353 151.249 140.058 153.907 140.045 154.195C140.015 154.824 140.123 155.441 140.768 155.472C141.515 155.507 141.739 155.092 141.97 154.524ZM152.303 158.479C152.194 160.806 150.156 163.263 148.407 163.181C147.575 163.142 146.69 162.42 146.729 161.571C146.75 161.13 147.013 160.597 147.605 159.961C149.146 158.298 151.3 157.735 152.243 157.575C152.298 157.866 152.317 158.174 152.303 158.479ZM151.384 152.293C151.349 153.04 149.864 153.515 149.038 153.697C149.072 152.967 150.388 151.769 150.795 151.431C151.144 151.618 151.401 151.936 151.384 152.293ZM158.755 156.994C158.809 155.823 156.383 155.658 155.636 155.623C154.77 155.583 153.934 155.629 153.457 155.64C153.144 155.064 152.639 154.581 151.975 154.209C152.648 153.662 153.119 153.038 153.153 152.324C153.171 151.934 153.07 151.538 152.801 151.117C153.246 151.052 153.692 150.988 154.133 151.009C154.337 151.018 154.387 151.038 154.421 151.039C155.168 151.074 155.543 150.717 155.561 150.327C155.589 149.732 154.972 149.448 154.497 149.426C153.376 149.374 150.554 149.667 150.232 149.652C150.232 149.652 149.885 149.414 149.597 149.401C149.138 149.379 148.715 149.683 148.695 150.125C148.685 150.328 148.76 150.553 148.936 150.783C148.167 151.58 147.227 152.404 147.173 153.559C147.165 153.729 147.19 153.917 147.215 154.106C146.884 154.277 146.561 154.62 146.544 154.993C146.521 155.486 146.98 155.848 147.524 155.873C147.846 155.888 148.159 155.75 148.487 155.646C148.954 155.498 149.451 155.419 149.91 155.44C150.47 155.466 150.99 155.627 151.416 155.97C149.423 156.387 148.087 156.938 146.214 158.773C145.339 159.651 144.92 160.601 144.877 161.518C144.782 163.539 146.555 164.933 148.406 165.019C151.446 165.162 154.006 161.367 154.146 158.378C154.162 158.022 154.145 157.664 154.092 157.338C154.81 157.286 155.44 157.265 156.154 157.298C156.238 157.302 156.34 157.307 156.424 157.328C156.631 157.644 157.015 157.798 157.389 157.815C158.051 157.846 158.731 157.504 158.755 156.994ZM157.915 157.398C157.93 156.718 157.42 156.336 156.928 156.313C156.486 156.293 156.03 156.578 155.996 157.308C155.978 157.698 156.297 158.513 156.908 158.542C157.692 158.527 157.892 157.89 157.915 157.398ZM159.41 145.095C159.443 144.382 159.399 143.512 158.567 143.473C157.531 143.424 157.386 144.337 157.346 145.203L157.306 146.052C157.241 147.427 156.4 151.949 156.36 152.815C156.311 153.851 156.817 154.317 157.326 154.341C157.802 154.363 158.294 154.029 158.321 153.451C158.338 153.078 158.199 152.782 158.213 152.476C158.232 152.069 158.427 151.193 158.469 151.008C158.755 149.625 159.326 146.878 159.41 145.095Z" fill="#F9E857"/>
</svg>
