<svg width="80" height="35" viewBox="0 0 80 35" fill="none" xmlns="http://www.w3.org/2000/svg">
<path d="M0.0329299 6.76093L78.4888 2.63987L77.7608 27.1896L4.21631 31.0909L0.0329299 6.76093Z" fill="#FF8383"/>
<path d="M21.3301 11.6567C21.4249 12.873 17.2289 15.1461 15.0779 16.1162C15.0537 15.0348 15.0663 13.9104 15.0606 12.8076C17.1892 12.3206 19.7655 11.6583 21.1014 11.5541C21.2609 11.5417 21.3254 11.5969 21.3301 11.6567ZM15.0865 18.5429C16.5338 17.8082 23.9661 13.8183 23.7578 11.1464C23.6334 9.55124 21.46 9.72071 20.1639 9.82178C18.4491 9.95549 15.2132 10.6492 14.8145 10.6803C14.5951 10.6974 14.3494 10.3755 13.7113 10.4252C12.9935 10.4812 12.4696 11.2242 12.5225 11.9021C12.5318 12.0218 12.5842 12.1782 12.6334 12.2947C12.7041 12.4296 12.7473 12.7271 12.7815 13.1658C12.8935 14.6015 12.8563 17.2122 12.8509 17.9148C12.7652 18.102 12.7194 18.2861 12.735 18.4855C12.7474 18.6451 12.7997 18.8015 12.9119 18.9532C12.9303 20.4764 13.0607 21.8905 13.0607 23.4352C13.0607 23.4352 13.018 23.6592 13.0367 23.8985C13.102 24.7359 13.6973 24.9102 14.2756 24.8651C14.8937 24.8169 15.4944 24.2886 15.4214 23.3514C15.3996 23.0723 15.2473 22.6629 15.2007 22.0647C15.1198 21.0278 15.1057 19.3037 15.0865 18.5429ZM24.8558 18.9647C24.9428 20.0813 24.0475 21.9767 22.8112 22.0731C22.3127 22.1119 22.1169 21.1442 22.0952 20.8651C22.0252 19.9678 23.0153 17.7441 24.0123 17.6663C24.5706 17.6228 24.82 18.5061 24.8558 18.9647ZM26.8852 19.0071C26.7468 17.2324 25.438 15.3686 23.5836 15.5132C21.4102 15.6826 19.8768 19.1724 20.023 21.0467C20.1427 22.582 21.1968 24.2652 22.7919 24.1408C24.6463 23.9962 27.106 21.8385 26.8852 19.0071ZM30.7105 10.1428C30.6576 9.4649 30.1324 8.90403 29.4545 8.9569C28.4376 9.03619 28.3975 10.3232 28.3737 11.0472C28.3373 12.8957 28.276 18.7983 28.5372 22.1481C28.6398 23.4641 28.7911 24.3751 29.0213 24.4976C29.3774 24.6905 29.6628 24.7485 29.8821 24.7314C30.6199 24.6739 30.7262 23.7227 30.6749 23.0647C30.6112 22.2472 30.5032 21.6337 30.4565 21.0356C30.3539 19.7195 30.3479 18.3559 30.3833 17.0091C30.4303 15.0394 30.5571 13.0636 30.6885 11.1476C30.7188 10.7641 30.7291 10.3821 30.7105 10.1428ZM35.3994 15.6751C35.3466 14.9971 34.8812 14.4316 34.1434 14.4891C32.9271 14.584 33.1683 16.3907 33.1922 17.2113C33.2322 18.7529 33.212 20.0383 33.2804 20.9157C33.3737 22.112 33.516 23.1642 34.6724 23.074C35.2906 23.0258 35.7056 22.4317 35.6574 21.8136C35.6294 21.4547 35.3637 21.1344 35.328 20.6757C35.244 19.599 35.4476 16.2932 35.3994 15.6751ZM34.9682 9.63029C34.9138 8.93241 34.3979 8.49118 33.8795 8.5316C33.4807 8.5627 33.0853 8.89444 32.8883 9.71223C32.7249 10.4472 32.4341 11.0917 32.487 11.7697C32.5461 12.5274 33.0096 12.8122 33.4682 12.7764C33.9069 12.7422 34.3606 12.3859 34.4152 11.7998C34.4651 11.154 34.511 10.9699 34.7833 10.3468C34.8859 10.1182 34.9654 9.85118 34.9682 9.63029ZM40.3807 22.7492C42.913 22.5518 46.4367 19.8898 48.0766 18.5382C48.2835 18.3616 48.3509 18.1958 48.3369 18.0164C48.3042 17.5976 47.7363 17.2608 47.1979 17.3028C47.0384 17.3152 46.8621 17.3691 46.7287 17.4597C45.2188 18.42 42.0874 20.7104 40.3526 20.8456C39.8542 20.8845 39.4567 20.6748 39.4193 20.1962C39.3338 19.0996 40.7137 16.9859 41.4742 16.7059C41.6951 16.7088 41.8593 16.7561 42.0387 16.7421C42.8363 16.6799 43.4904 15.8065 43.4375 15.1285C43.3847 14.4506 42.6943 14.3439 42.116 14.389C39.7632 14.5725 37.0936 18.4116 37.2615 20.5651C37.3983 22.3198 38.7457 22.8767 40.3807 22.7492ZM49.9841 14.5378C49.9312 13.8598 49.4658 13.2943 48.7281 13.3518C47.5118 13.4467 47.753 15.2534 47.7768 16.074C47.8168 17.6156 47.7967 18.901 47.8651 19.7784C47.9584 20.9747 48.1006 22.0269 49.2571 21.9367C49.8752 21.8885 50.2903 21.2944 50.2421 20.6763C50.2141 20.3174 49.9484 19.9971 49.9126 19.5385C49.8287 18.4617 50.0323 15.1559 49.9841 14.5378ZM49.5528 8.49302C49.4984 7.79513 48.9826 7.3539 48.4641 7.39433C48.0653 7.42542 47.6699 7.75717 47.4729 8.57496C47.3096 9.30988 47.0188 9.95444 47.0716 10.6324C47.1307 11.3901 47.5943 11.6749 48.0529 11.6391C48.4915 11.6049 48.9452 11.2486 48.9998 10.6626C49.0498 10.0167 49.0956 9.83262 49.368 9.20956C49.4705 8.98089 49.55 8.7139 49.5528 8.49302ZM60.9517 17.1932C60.9081 16.6349 60.268 16.1432 59.7296 16.1851C59.2311 16.224 58.9893 16.7243 58.7029 17.1679C58.4701 17.5271 56.3999 19.5341 55.2266 19.6657C54.3277 19.7158 53.6886 18.7225 53.6279 17.9448L53.6186 17.8252C55.1524 17.6855 57.2649 16.4776 58.3677 14.9272C58.6388 14.545 58.6906 14.1798 58.675 13.9805C58.6221 13.3025 57.7567 13.0089 56.6401 13.096C54.028 13.2997 51.2169 15.3243 51.4268 18.0162C51.5745 19.9104 53.2071 21.8092 55.0814 21.6631C56.8959 21.5216 58.4405 19.9768 59.6114 19.043C59.7999 18.8879 60.1922 18.5162 60.3624 18.3826C60.6474 18.1798 60.989 17.6717 60.9517 17.1932ZM56.5268 14.7297C56.1513 15.0599 55.4969 15.6726 54.0952 15.9625C54.0554 15.9656 54.4445 15.5541 55.1774 15.176C55.7952 14.867 56.3872 14.7406 56.5268 14.7297ZM67.7622 19.3302C67.5678 16.8378 63.4116 17.5631 63.2966 16.0875C63.2235 15.1504 64.8177 12.699 65.6596 12.4328C65.9281 12.5322 66.0939 12.5995 66.393 12.5762C66.9911 12.5296 67.161 12.1352 67.1283 11.7164C67.0568 10.7992 65.9612 10.3831 65.2035 10.4422C64.8445 10.4702 64.4168 10.644 64.1563 10.905C62.7955 12.2348 61.0503 14.036 61.2213 16.2293C61.4576 19.2601 65.5514 19.0211 65.5841 19.4399C65.5981 19.6193 63.4255 20.5711 63.2326 20.9272C63.0718 21.1804 63.0291 21.4044 63.0431 21.5839C63.0913 22.202 63.7988 22.528 64.2773 22.4907C65.2145 22.4176 67.8446 20.387 67.7622 19.3302Z" fill="#202020"/>
</svg>
