<?xml version="1.0" encoding="utf-8"?>
<!-- Generator: Adobe Illustrator 27.3.1, SVG Export Plug-In . SVG Version: 6.00 Build 0)  -->
<svg version="1.1" id="Layer_1" xmlns="http://www.w3.org/2000/svg" xmlns:xlink="http://www.w3.org/1999/xlink" x="0px" y="0px"
	 viewBox="0 0 196.2 196.2" style="enable-background:new 0 0 196.2 196.2;" xml:space="preserve">
<style type="text/css">
	.st0{fill:#F9E959;}
	.st1{fill:none;stroke:#000000;stroke-width:3;}
	.st2{fill:#FFFFFF;}
	.st3{fill:#202020;}
</style>
<circle class="st0" cx="98.1" cy="98.1" r="98.1"/>
<path class="st1" d="M168,51.4c8,11.9,12.9,25.6,14.2,39.9"/>
<path class="st1" d="M27.2,143.7c-8-11.9-12.9-25.7-14.1-39.9"/>
<path class="st2" d="M98.5,136c20.7,0,37.5-16.8,37.5-37.5C136,77.8,119.3,61,98.5,61C77.8,61,61,77.8,61,98.5
	C61,119.2,77.8,136,98.5,136z"/>
<path class="st3" d="M175,102.7l9.9,3.6l0,0.2l-10.4,1.7l-0.2,2.1l12.4,4.9l0.2-1.7l-10.3-3.9l0-0.2l10.8-1.7l0.2-2l-10.3-3.8l0-0.2
	l10.8-1.8l0.2-1.8l-13.1,2.4L175,102.7z"/>
<path class="st3" d="M171.2,122.6l1.4,0.4l2-7.2l4.1,1.1l-1.7,6.3l1.4,0.4l1.7-6.3l4.1,1.1l-1.9,7.1l1.4,0.4l2.4-8.7l-12.4-3.4
	L171.2,122.6z"/>
<path class="st3" d="M168.5,129.3c-1.1,2.6-0.2,4.2,1.5,4.9c1.3,0.6,2.7,0.4,3.8-0.8l0.2,0.1c0,1.4,0.7,2.3,2,2.9
	c1.7,0.7,3.5,0.3,4.6-2.3l2.3-5.4l-11.8-5.1L168.5,129.3z M180.8,129.6l-1.7,3.9c-0.7,1.6-1.8,1.8-2.9,1.3c-1.1-0.5-1.8-1.4-1.1-3
	l1.7-3.9L180.8,129.6z M175.5,127.3l-1.8,4.2c-0.7,1.6-1.8,1.8-2.9,1.3c-1.1-0.5-1.7-1.4-1.1-3l1.8-4.2L175.5,127.3z"/>
<path class="st3" d="M163.7,137.8c-1.8,3-1.2,5.3,0.5,6.3c4.3,2.6,6.4-5.8,9.5-3.9c1.1,0.7,1.4,2,0.3,3.8c-1.2,2-2.6,2.2-3.8,1.4
	l-0.1-0.1l-0.8,1.4l0.2,0.1c1.8,1.1,4,0.9,5.8-2.1c1.7-2.8,1.1-4.9-0.6-6c-4.4-2.7-6.5,5.7-9.4,3.9c-1.1-0.7-1.4-2.1-0.1-4.2
	c1.3-2.2,2.8-2.4,4-1.7l0.1,0.1l0.8-1.4l-0.2-0.1C167.9,134.3,165.6,134.7,163.7,137.8z"/>
<path class="st3" d="M159.5,144.5l10.3,7.7l1-1.3l-10.3-7.7L159.5,144.5z"/>
<path class="st3" d="M155,149.9l8.5,7.6l-2.9,3.2l1.1,1l6.9-7.7l-1.1-1l-2.9,3.2l-8.5-7.6L155,149.9z"/>
<path class="st3" d="M144.7,159.5l0.9,1.1l5.7-4.9l2.8,3.2l-5,4.3l0.9,1.1l5-4.3l2.8,3.2l-5.6,4.8l0.9,1.1l6.8-5.9l-8.4-9.8
	L144.7,159.5z"/>
<path class="st3" d="M139,163.5l4.8,8.9l-0.2,0.1l-8.5-7l-1.4,0.8l1.2,10.9l-0.2,0.1l-4.8-8.9l-1.4,0.8l6.1,11.3l2-1.1l-1.3-11.4
	l0.2-0.1l8.9,7.3l2.1-1.1l-6.1-11.3L139,163.5z"/>
<path class="st3" d="M127.6,169.3l-0.1,3.5l-5.9,2.1l-2.3-2.6l-1.7,0.6l9.2,10.4l1.8-0.6l0.7-13.9L127.6,169.3z M127.1,181.1
	l-0.2,0.1l-4.4-5.1l4.9-1.7L127.1,181.1z"/>
<path class="st3" d="M116.1,173l1.9,10l-0.2,0l-9-8.6l-1.8,0.3l2.4,12.6l1.6-0.3l-1.9-10l0.2,0l9,8.6l1.8-0.3l-2.4-12.6L116.1,173z"
	/>
<path class="st3" d="M105.4,174.8l-1.2,3.3l-6.3,0.2l-1.4-3.2l-1.8,0.1l5.7,12.6l1.9-0.1l4.8-13L105.4,174.8z M101.5,185.9l-0.2,0
	l-2.7-6.2l5.2-0.2L101.5,185.9z"/>
<path class="st3" d="M89.1,174.3c-1.4-0.2-3,0.2-4.2,1.3l-0.2,0V174l-1.4-0.2l-0.7,6.4l5.6,0.6l0.2-1.4l-4-0.5l0-0.2
	c0.4-2.4,2.6-3.3,4.4-3.1c2.6,0.3,4.2,2.2,3.8,5.7c-0.4,3.6-2.5,5-5,4.7c-1.9-0.2-3.4-1.5-3.5-3.4l-1.6-0.2c0.1,2.8,2.2,4.7,5,5
	c3.4,0.4,6.3-1.4,6.9-5.9C94.7,177.1,92.4,174.7,89.1,174.3z"/>
<path class="st3" d="M73.9,171.3l-0.4,1.4l7.2,1.9l-1.1,4.1l-6.4-1.7l-0.4,1.4l6.4,1.7l-1.1,4.1l-7.1-1.9l-0.4,1.4l8.7,2.3l3.3-12.4
	L73.9,171.3z"/>
<path class="st3" d="M71.6,170.6l-4.1,9.3l-0.2-0.1l0.3-11l-1.5-0.7l-7.9,7.6l-0.2-0.1l4.1-9.3l-1.4-0.6l-5.2,11.8l2.1,0.9l8.2-8
	l0.2,0.1L65.7,182l2.1,0.9l5.2-11.8L71.6,170.6z"/>
<path class="st3" d="M52.8,160.5l-0.8,1.2l6.3,4l-2.3,3.6l-5.5-3.5l-0.8,1.2l5.5,3.5l-2.3,3.6l-6.2-4l-0.8,1.2l7.6,4.9l6.9-10.8
	L52.8,160.5z"/>
<path class="st3" d="M50.7,158.9l-6.6,7.7l-0.1-0.1l1.1-12.4l-1.4-1.2l-8.4,9.7l1.2,1.1l6.6-7.7l0.1,0.1l-1.1,12.4l1.4,1.2L52,160
	L50.7,158.9z"/>
<path class="st3" d="M39.6,148.2l-8.6,7.5l-2.8-3.3l-1.1,0.9l6.7,7.8l1.1-0.9l-2.8-3.3l8.6-7.5L39.6,148.2z"/>
<path class="st3" d="M21.2,92.5l-9.8-3.8l0-0.2L21.8,87l0.2-2.1l-12.4-5l-0.2,1.7l10.3,4l0,0.2L8.8,87.4l-0.2,2l10.3,3.9l0,0.2
	L8,95.1l-0.2,1.8L21,94.6L21.2,92.5z"/>
<path class="st3" d="M25.1,73l-1.4-0.4l-2,7.2l-4.1-1.1l1.8-6.3L18,72l-1.8,6.3l-4.1-1.1l2-7.1l-1.4-0.4l-2.4,8.7l12.4,3.5L25.1,73z
	"/>
<path class="st3" d="M27.9,66.3c1.2-2.6,0.2-4.2-1.4-4.9c-1.3-0.6-2.7-0.5-3.8,0.8l-0.2-0.1c0-1.4-0.7-2.3-1.9-2.9
	c-1.6-0.7-3.5-0.3-4.6,2.3l-2.3,5.4L25.4,72L27.9,66.3z M15.5,66l1.7-3.9c0.7-1.6,1.8-1.8,2.9-1.3c1.1,0.5,1.7,1.4,1.1,3l-1.7,3.9
	L15.5,66z M20.8,68.3l1.8-4.2c0.7-1.6,1.8-1.8,2.9-1.3c1.1,0.5,1.7,1.4,1,3L24.7,70L20.8,68.3z"/>
<path class="st3" d="M32.7,57.9c1.9-3,1.3-5.3-0.4-6.3c-4.2-2.6-6.4,5.7-9.5,3.9c-1.1-0.7-1.4-2-0.3-3.8c1.2-2,2.6-2.2,3.8-1.4
	l0.1,0.1l0.9-1.4l-0.2-0.1c-1.8-1.1-4-0.9-5.8,2c-1.7,2.8-1.1,4.9,0.6,6c4.3,2.7,6.6-5.7,9.5-3.9c1.1,0.7,1.4,2.1,0.1,4.2
	c-1.3,2.1-2.8,2.4-4,1.7l-0.1-0.1l-0.9,1.4l0.2,0.1C28.4,61.4,30.7,61,32.7,57.9z"/>
<path class="st3" d="M37,51.1l-10.2-7.8l-1,1.3l10.2,7.8L37,51.1z"/>
<path class="st3" d="M41.4,46l-8.4-7.7l2.9-3.2l-1.1-1l-6.9,7.6l1.1,1l2.9-3.2l8.4,7.7L41.4,46z"/>
<path class="st3" d="M51.7,36.4l-0.9-1.1l-5.7,4.8l-2.8-3.3l5-4.2l-0.9-1.1l-5,4.2l-2.8-3.3l5.6-4.8l-0.9-1.1l-6.9,5.8l8.3,9.8
	L51.7,36.4z"/>
<path class="st3" d="M57.3,32.5l-4.8-9l0.2-0.1l8.4,7l1.4-0.8l-1.1-10.9l0.2-0.1l4.8,9l1.4-0.7l-6-11.3l-2,1.1l1.2,11.4l-0.2,0.1
	l-8.8-7.4l-2.1,1.1l6,11.3L57.3,32.5z"/>
<path class="st3" d="M69,26.5l0.2-3.5l6-2l2.2,2.6l1.7-0.6L70,12.6l-1.8,0.6l-0.9,13.9L69,26.5z M69.6,14.8l0.2-0.1l4.4,5.1
	l-4.9,1.7L69.6,14.8z"/>
<path class="st3" d="M80.3,23l-1.8-10l0.2,0l9,8.7l1.8-0.3L87.2,8.7L85.6,9l1.8,10l-0.2,0l-9-8.7l-1.8,0.3l2.3,12.7L80.3,23z"/>
<path class="st3" d="M91.3,21.2l1.2-3.3l6.3-0.2l1.4,3.2l1.8,0L96.3,8.2l-1.9,0.1l-4.9,13L91.3,21.2z M95.3,10.1l0.2,0l2.7,6.2
	L93,16.5L95.3,10.1z"/>
<path class="st3" d="M107.5,21.9c1.4,0.2,3-0.2,4.2-1.3l0.2,0l0,1.6l1.4,0.2l0.8-6.4l-5.6-0.7l-0.2,1.4l4,0.5l0,0.2
	c-0.4,2.4-2.6,3.3-4.4,3.1c-2.6-0.3-4.2-2.2-3.8-5.7c0.4-3.6,2.5-5,5.1-4.7c1.9,0.2,3.4,1.5,3.5,3.4l1.6,0.2c0-2.8-2.1-4.7-4.9-5.1
	c-3.4-0.4-6.4,1.4-6.9,5.9C101.9,19,104.2,21.5,107.5,21.9z"/>
<path class="st3" d="M122.3,24.8l0.4-1.4l-7.2-2l1.1-4.1l6.3,1.7l0.4-1.4L117,16l1.1-4.1l7.1,1.9l0.4-1.4l-8.7-2.4l-3.4,12.4
	L122.3,24.8z"/>
<path class="st3" d="M124.9,25.7l4.2-9.3l0.2,0.1l-0.4,11l1.5,0.7l7.9-7.6l0.2,0.1l-4.2,9.3l1.4,0.6l5.3-11.7l-2.1-1l-8.3,8
	l-0.2-0.1l0.4-11.5l-2.1-1L123.5,25L124.9,25.7z"/>
<path class="st3" d="M143.7,35.9l0.8-1.2l-6.3-4.1l2.3-3.6l5.5,3.6l0.8-1.2l-5.5-3.6l2.3-3.6l6.2,4l0.8-1.2l-7.5-4.9l-7,10.8
	L143.7,35.9z"/>
<path class="st3" d="M145.8,37.4l6.7-7.6l0.1,0.1l-1.2,12.4l1.4,1.2l8.5-9.7l-1.2-1.1l-6.7,7.6l-0.1-0.1l1.2-12.4l-1.4-1.2l-8.5,9.7
	L145.8,37.4z"/>
<path class="st3" d="M156.8,48.3l8.7-7.4l2.8,3.3l1.1-0.9l-6.7-7.8l-1.1,0.9l2.8,3.3l-8.7,7.4L156.8,48.3z"/>
</svg>
