<svg width="121" height="28" viewBox="0 0 121 28" fill="none" xmlns="http://www.w3.org/2000/svg">
<path d="M114.251 3.12138L113.974 3.11403V0.745405H109.22V27.2188H114.754V12.4451C114.754 10.0441 115.064 7.30043 117.41 6.09957C118.367 5.57178 119.898 5.139 121 5.139V0C118.319 0.096731 115.878 0.816757 114.251 3.12138ZM91.8503 23.4376C86.7767 23.4376 82.8043 19.0667 82.8043 14.0727C82.8043 8.88515 86.6336 4.56229 91.8981 4.56229C97.3067 4.56229 101.088 8.74146 101.088 14.0727C101.088 19.2105 97.0194 23.4376 91.8502 23.4376H91.8503ZM100.737 4.18027C98.7423 1.34957 95.327 0 91.8981 0C83.8573 0 77.8264 6.05139 77.8264 14.1205C77.8264 22.1407 83.9532 28 91.8981 28C95.4144 28 98.8279 26.5191 100.737 23.5153V27.2188H106.168V0.745282H100.737V4.18027ZM63.4191 4.56242C66.9612 4.56242 69.402 6.43537 70.8857 9.55736H76.3901C74.906 3.84227 69.0669 0 63.371 0C55.5214 0 49.7305 6.19556 49.7305 13.9761C49.7305 21.7569 55.426 28 63.3232 28C69.4021 28 74.4278 24.2537 76.3902 18.539H70.8381C69.45 21.6123 66.7217 23.4377 63.3232 23.4377C58.0106 23.4377 54.7082 19.019 54.7082 13.9761C54.7082 8.74159 57.9624 4.56242 63.4192 4.56242H63.4191ZM39.8221 10.8547C38.0032 10.2786 35.7062 9.7496 35.7062 7.39618C35.7062 5.61922 37.1418 4.56242 38.8169 4.56242C40.8273 4.56242 41.9759 5.85927 42.2153 7.78053H47.1932C47.0972 3.17005 43.6034 0 39.0561 0C34.7008 0 30.7281 3.12138 30.7281 7.68392C30.7281 17.098 42.8374 14.2165 42.8374 19.7872C42.8374 22.0923 41.21 23.4377 39.0084 23.4377C36.041 23.4377 35.3207 21.3307 35.1288 18.5938H29.6644C29.6644 22.7716 31.5896 25.983 35.5143 27.3756C36.6155 27.7606 37.7639 28 38.9128 28C43.9861 28 47.8154 24.7343 47.8154 19.4998C47.8154 14.3601 44.1778 12.199 39.8221 10.8547ZM14.3109 23.4377C9.14164 23.4377 4.97754 19.163 4.97754 13.9761C4.97754 8.78928 9.14164 4.56242 14.3109 4.56242C19.4803 4.56242 23.6442 8.74159 23.6442 13.9283C23.6442 19.1148 19.5278 23.4377 14.3109 23.4377ZM14.3109 0C6.65252 0 0 6.00357 0 13.8315C0 21.7087 6.5093 28 14.3109 28C22.3521 28 28.6223 21.5161 28.6223 13.9283C28.6223 6.05126 22.0648 0 14.3109 0Z" fill="black"/>
</svg>
