<svg width="41" height="43" viewBox="0 0 41 43" fill="none" xmlns="http://www.w3.org/2000/svg">
<path d="M39.5 16C42 25 39.8143 28.8826 29 36.5C16.4094 44.0111 3.9998 44 1.00064 32C-0.913555 24.3411 6.03164 4 18.0859 4C30.1401 4 37 7 39.5 16Z" fill="#343434"/>
<path d="M25.8911 42.488C14.6887 35.4662 5.7102 25.408 0 13.4835L15.1089 0C20.8173 11.9287 29.796 21.991 41 29.0159L25.8911 42.488Z" fill="#4FFF40"/>
<path opacity="0.1" d="M17.5946 23.625L16.0723 24.9757C16.7247 25.5251 17.2169 25.5251 17.6404 25.2046C18.0639 24.8841 17.9036 24.2774 17.5946 23.625Z" fill="black"/>
<path opacity="0.1" d="M18.1644 20.2482C17.7523 20.6259 17.8897 21.1753 18.1644 21.8163L19.6982 20.4542C19.0686 19.9048 18.5421 19.9162 18.1644 20.2482Z" fill="black"/>
<path opacity="0.3" d="M25.8911 42.488C14.6887 35.4662 5.7102 25.408 0 13.4835L15.1089 0C20.8173 11.9287 29.796 21.991 41 29.0159L25.8911 42.488Z" fill="#FFF6E8"/>
<path opacity="0.2" d="M36.7875 27.5394C28.209 21.4588 21.1183 13.5151 16.0471 4.3038C15.8084 4.55765 15.5095 4.74715 15.1781 4.85484C14.8467 4.96252 14.4935 4.98489 14.1512 4.91984C13.8088 4.8548 13.4884 4.70448 13.2196 4.48275C12.9508 4.26103 12.7423 3.97508 12.6133 3.65137L3.36482 11.904C3.7058 12.6178 3.81626 13.4199 3.6809 14.1993C3.54554 14.9786 3.17106 15.6965 2.60938 16.2535C7.67589 25.4677 14.7627 33.4154 23.3383 39.5006C23.9565 39.0039 24.7138 38.7118 25.5054 38.6646C26.297 38.6174 27.0837 38.8176 27.7565 39.2374L37.005 30.9847C36.7089 30.814 36.4596 30.5727 36.2794 30.2823C36.0992 29.9919 35.9936 29.6615 35.9721 29.3204C35.9506 28.9793 36.0138 28.6382 36.156 28.3275C36.2983 28.0167 36.5152 27.746 36.7875 27.5394ZM15.0971 25.811L14.1356 26.6695L13.5061 25.9484L14.4561 25.1014C13.7922 24.2996 13.3924 23.3121 13.3115 22.2742L14.4561 21.9079C14.5008 22.7617 14.7909 23.5844 15.2917 24.2773L17.0086 22.7435C16.402 21.5989 15.864 20.2025 17.0086 19.138C17.8785 18.3482 19.1719 18.3596 20.4424 19.6187L21.4039 18.7488L22.0334 19.4699L21.0834 20.3169C21.6105 20.9586 21.9791 21.7154 22.1594 22.526L20.9575 22.9495C20.8109 22.3002 20.5387 21.6859 20.1563 21.141L18.4165 22.6977C19.046 23.8423 19.7213 25.1472 18.5195 26.2117C17.8556 26.99 16.4821 27.0472 15.1314 25.811H15.0971Z" fill="black"/>
</svg>
