<svg width="88" height="95" viewBox="0 0 88 95" fill="none" xmlns="http://www.w3.org/2000/svg">
<path d="M42.6602 86.78C63.3708 86.78 80.1602 69.9907 80.1602 49.28C80.1602 28.5693 63.3708 11.78 42.6602 11.78C21.9495 11.78 5.16016 28.5693 5.16016 49.28C5.16016 69.9907 21.9495 86.78 42.6602 86.78Z" fill="white"/>
<path d="M43.5969 86.3386C43.5041 85.4955 43.4162 84.6501 43.3331 83.8025C44.0706 85.0915 44.7833 86.4028 45.4706 87.7375C45.6864 86.8181 45.9418 85.7351 46.2501 84.5188C47.8351 78.2668 63.5535 41.8941 54.4325 65.7256C53.3587 68.5314 46.9343 90.6878 46.5244 89.8441C46.1801 89.1354 45.8288 88.4333 45.4706 87.7375C44.4347 92.1494 44.3076 92.7962 43.5969 86.3386Z" fill="#202020"/>
<path d="M42.4961 4C42.6577 30.8704 40.6739 59.7815 43.5969 86.3386C44.4557 94.1419 44.4623 91.5712 46.2501 84.5188C47.8351 78.2668 63.5535 41.8941 54.4325 65.7256C53.3587 68.5314 46.9343 90.6878 46.5244 89.8441C39.9616 76.335 30.8441 65.2055 19.9164 55.2782" stroke="#202020" stroke-width="7" stroke-linecap="round"/>
</svg>
