<svg width="197" height="197" viewBox="0 0 197 197" fill="none" xmlns="http://www.w3.org/2000/svg">
<circle cx="98.0827" cy="98.0827" r="98.0827" fill="#F9E959"/>
<path d="M62.5011 30.1128L61.0311 30.7935L55.6304 19.1313L57.1004 18.4506L59.5436 23.7263L59.7069 23.6507L62.8662 15.7805L64.7935 14.8879L61.3987 23.3631L70.5209 26.3988L68.3975 27.3822L60.1759 24.6634L60.0125 24.739L62.5011 30.1128Z" fill="#202020"/>
<path d="M79.7674 23.5633L71.0699 26.2056L67.3341 13.9085L75.9455 11.2924L76.3641 12.6702L69.3027 14.8154L70.5428 18.8972L76.8291 16.9875L77.2476 18.3653L70.9613 20.275L72.2014 24.3568L79.3488 22.1855L79.7674 23.5633Z" fill="#202020"/>
<path d="M89.7984 21.8138L80.8269 23.2771L78.758 10.5927L87.6406 9.14388L87.8724 10.5651L80.5887 11.7531L81.2754 15.9635L87.7598 14.9059L87.9916 16.3271L81.5073 17.3847L82.194 21.5951L89.5666 20.3925L89.7984 21.8138Z" fill="#202020"/>
<path d="M92.6217 21.6038L91.0021 21.6413L90.7045 8.79277L95.5992 8.67939C99.2162 8.59561 100.429 10.422 100.481 12.6714C100.533 14.9028 99.4067 16.8194 95.7897 16.9032L92.5146 16.9791L92.6217 21.6038ZM92.3574 10.1949L92.4812 15.5394L95.7024 15.4648C98.0957 15.4094 98.8592 14.1674 98.8254 12.7098C98.7916 11.2522 97.9719 10.0648 95.5786 10.1203L92.3574 10.1949Z" fill="#202020"/>
<path d="M111.311 22.907C107.735 22.2531 106.543 20.2604 106.916 18.2241L106.961 17.9762L108.555 18.2676L108.525 18.427C108.276 19.7904 109.049 21.0662 111.528 21.5194C113.954 21.9629 115.159 21.1768 115.392 19.9019C116.007 16.5377 107.406 17.5452 108.325 12.5166C108.688 10.5334 110.455 9.17311 113.678 9.76227C117.095 10.387 118.109 12.3474 117.724 14.4544L117.692 14.6315L116.098 14.3402L116.124 14.1985C116.386 12.7643 115.709 11.561 113.425 11.1434C111.283 10.7517 110.184 11.5572 109.957 12.7967C109.313 16.3203 117.915 15.3127 117.018 20.2174C116.665 22.1475 114.782 23.5415 111.311 22.907Z" fill="#202020"/>
<path d="M122.9 25.9084C119.616 24.774 117.849 21.8402 119.307 17.6209C120.776 13.3676 123.978 12.1502 127.261 13.2846C129.915 14.2016 131.66 16.5374 131.072 19.2862L129.507 18.7454C129.801 16.8473 128.611 15.2746 126.791 14.6457C124.375 13.811 122.047 14.8159 120.889 18.1675C119.743 21.4851 120.954 23.7127 123.37 24.5474C125.19 25.1763 127.097 24.6734 128.043 22.9817L129.609 23.5225C128.357 26.0989 125.554 26.8254 122.9 25.9084Z" fill="#202020"/>
<path d="M130.105 28.4409L128.67 27.6901L134.626 16.3018L139.013 18.596C142.171 20.2479 142.4 22.2568 141.49 23.9954C140.764 25.383 139.727 26.2014 137.921 25.8866L137.838 26.0461C138.986 27.1137 138.997 28.2572 138.564 29.8998L137.905 32.5205L136.437 31.7529L137.079 29.2446C137.417 27.9385 137.536 26.7008 135.463 25.6162L132.416 24.0228L130.105 28.4409ZM135.394 18.3286L133.083 22.7468L136.05 24.2985C138.044 25.3413 139.28 24.6474 139.898 23.4671C140.532 22.2549 140.355 20.9232 138.361 19.8804L135.394 18.3286Z" fill="#202020"/>
<path d="M143.269 36.6378C140.136 34.3057 139.674 30.9774 142.232 27.5408C144.79 24.1042 148.11 23.5917 151.244 25.9238C154.363 28.2452 154.825 31.5736 152.267 35.0101C149.709 38.4467 146.388 38.9593 143.269 36.6378ZM144.129 35.4827C146.439 37.2023 148.929 36.7216 150.939 34.0214C152.948 31.3212 152.694 28.7985 150.384 27.079C148.059 25.3487 145.584 25.8401 143.575 28.5403C141.565 31.2404 141.804 33.7524 144.129 35.4827Z" fill="#202020"/>
<path d="M154.972 46.7625L148.904 40.7387L157.959 31.618L159.109 32.7594L151.069 40.8581L155.987 45.7406L154.972 46.7625Z" fill="#202020"/>
<path d="M160.773 54.0443L155.47 47.3374L165.551 39.3664L166.556 40.6372L157.604 47.7151L161.902 53.1512L160.773 54.0443Z" fill="#202020"/>
<path d="M162.101 56.2287L161.207 54.8781L171.922 47.7813L172.816 49.1319L162.101 56.2287Z" fill="#202020"/>
<path d="M163.79 58.724L163.034 57.2913L174.4 51.2926L175.241 52.8845L169.681 64.0617L169.765 64.2209L178.727 59.4908L179.483 60.9235L168.117 66.9223L167.277 65.3304L172.837 54.1531L172.753 53.9939L163.79 58.724Z" fill="#202020"/>
<path d="M170.192 73.3871C169.146 70.2447 170.359 67.0519 174.629 65.6305C178.95 64.1921 181.824 66.0432 182.921 69.3393C183.808 72.0036 182.981 74.707 180.459 75.964L179.936 74.3928C181.627 73.5453 182.152 71.5874 181.555 69.7942C180.736 67.3349 178.556 66.0874 175.158 67.2188C171.793 68.3389 170.791 70.6267 171.615 73.1031C172.206 74.8792 173.947 76.4623 176.287 75.7973L176.475 75.7347L175.213 71.9433L176.579 71.4885L178.353 76.817L172.273 78.841L171.818 77.4747L173.23 76.815L173.173 76.6442C171.608 75.989 170.63 74.7022 170.192 73.3871Z" fill="#202020"/>
<path d="M174.554 99.9296L174.666 98.3135L187.488 99.2052L187.375 100.821L181.575 100.418L181.563 100.597L186.934 107.16L186.787 109.279L180.999 102.218L173.941 108.746L174.103 106.412L180.449 100.52L180.462 100.34L174.554 99.9296Z" fill="#202020"/>
<path d="M171.929 118.261L173.802 109.366L186.379 112.015L184.524 120.822L183.115 120.525L184.636 113.303L180.461 112.424L179.107 118.853L177.698 118.556L179.052 112.127L174.878 111.248L173.338 118.558L171.929 118.261Z" fill="#202020"/>
<path d="M168.63 127.793L171.663 119.224L183.778 123.512L180.775 131.997L179.418 131.516L181.88 124.559L177.859 123.136L175.667 129.329L174.309 128.849L176.501 122.655L172.48 121.232L169.987 128.274L168.63 127.793Z" fill="#202020"/>
<path d="M167.539 130.116L168.285 128.677L179.695 134.592L177.442 138.939C175.777 142.151 173.592 142.336 171.595 141.301C169.613 140.274 168.474 138.365 170.139 135.153L171.646 132.244L167.539 130.116ZM177.671 135.367L172.925 132.907L171.442 135.768C170.34 137.893 171.063 139.16 172.357 139.831C173.651 140.501 175.087 140.353 176.188 138.228L177.671 135.367Z" fill="#202020"/>
<path d="M157.382 145.833C159.669 143.005 161.988 142.913 163.598 144.215L163.794 144.373L162.775 145.633L162.649 145.531C161.572 144.66 160.081 144.728 158.497 146.687C156.946 148.605 157.06 150.039 158.067 150.854C160.727 153.004 163.959 144.97 167.935 148.184C169.502 149.452 169.851 151.655 167.791 154.202C165.606 156.904 163.4 156.856 161.734 155.509L161.594 155.396L162.613 154.136L162.725 154.226C163.859 155.143 165.239 155.125 166.699 153.319C168.068 151.626 167.887 150.275 166.907 149.483C164.122 147.231 160.889 155.265 157.012 152.13C155.487 150.897 155.164 148.576 157.382 145.833Z" fill="#202020"/>
<path d="M149.258 154.448C151.819 152.101 155.241 151.945 158.257 155.236C161.297 158.554 160.843 161.948 158.282 164.295C156.211 166.192 153.327 166.614 151.189 164.788L152.41 163.67C153.939 164.832 155.889 164.535 157.309 163.234C159.193 161.507 159.418 158.981 157.022 156.367C154.651 153.779 152.116 153.783 150.231 155.51C148.811 156.811 148.345 158.727 149.382 160.365L148.161 161.484C146.492 159.156 147.188 156.346 149.258 154.448Z" fill="#202020"/>
<path d="M143.391 159.672L144.735 158.768L151.91 169.431L147.804 172.194C144.847 174.184 142.971 173.428 141.876 171.8C141.002 170.501 140.777 169.199 141.914 167.761L141.813 167.612C140.328 168.113 139.317 167.578 138.079 166.415L136.089 164.587L137.463 163.662L139.362 165.421C140.35 166.34 141.381 167.035 143.323 165.728L146.175 163.809L143.391 159.672ZM149.763 169.14L146.979 165.004L144.201 166.873C142.335 168.129 142.356 169.547 143.099 170.652C143.863 171.787 145.118 172.266 146.985 171.01L149.763 169.14Z" fill="#202020"/>
<path d="M130.191 167.141C133.729 165.486 136.879 166.656 138.694 170.536C140.509 174.417 139.387 177.585 135.849 179.239C132.327 180.886 129.177 179.716 127.362 175.836C125.547 171.955 126.669 168.787 130.191 167.141ZM130.801 168.445C128.192 169.665 127.436 172.085 128.862 175.134C130.288 178.183 132.63 179.155 135.239 177.935C137.864 176.707 138.604 174.295 137.178 171.245C135.752 168.196 133.426 167.217 130.801 168.445Z" fill="#202020"/>
<path d="M115.581 172.615L123.772 170.161L127.461 182.472L125.909 182.937L122.633 172.005L115.995 173.995L115.581 172.615Z" fill="#202020"/>
<path d="M106.548 174.162L114.976 172.721L117.142 185.389L115.545 185.662L113.622 174.414L106.791 175.582L106.548 174.162Z" fill="#202020"/>
<path d="M104.034 174.27L105.648 174.126L106.786 186.928L105.173 187.071L104.034 174.27Z" fill="#202020"/>
<path d="M100.465 174.562L102.084 174.593L101.836 187.443L100.037 187.408L92.9435 177.135L92.7635 177.132L92.568 187.264L90.9483 187.233L91.1963 174.383L92.996 174.418L100.089 184.691L100.269 184.694L100.465 174.562Z" fill="#202020"/>
<path d="M84.7079 173.094C87.9682 173.678 90.1925 176.27 89.4001 180.699C88.5983 185.182 85.5988 186.822 82.179 186.21C79.4149 185.716 77.4353 183.697 77.5368 180.881L79.1669 181.173C79.1031 183.063 80.5721 184.46 82.4326 184.792C84.9841 185.249 87.1216 183.931 87.7523 180.405C88.3767 176.914 86.8464 174.94 84.2772 174.48C82.4344 174.151 80.2116 174.923 79.6775 177.296L79.6426 177.491L83.5762 178.195L83.3226 179.612L77.7944 178.623L78.9227 172.316L80.3402 172.569L80.2448 174.125L80.422 174.156C81.7456 173.095 83.3436 172.85 84.7079 173.094Z" fill="#202020"/>
<path d="M53.8745 160.571L55.1562 161.562L47.2959 171.73L46.0142 170.739L49.57 166.139L49.4276 166.029L40.9871 166.853L39.3067 165.554L48.3927 164.66L46.8822 155.165L48.7335 156.597L50.1102 165.146L50.2526 165.256L53.8745 160.571Z" fill="#202020"/>
<path d="M40.1254 148.216L46.4826 154.713L37.2963 163.701L31.0021 157.268L32.0314 156.261L37.1926 161.536L40.2418 158.553L35.6471 153.856L36.6763 152.849L41.2711 157.545L44.3203 154.562L39.0961 149.223L40.1254 148.216Z" fill="#202020"/>
<path d="M34.0311 140.189L39.4851 147.461L29.2034 155.172L23.8035 147.972L24.9555 147.108L29.3834 153.012L32.7962 150.453L28.8543 145.197L30.0063 144.333L33.9483 149.589L37.3611 147.029L32.8791 141.053L34.0311 140.189Z" fill="#202020"/>
<path d="M32.7437 138.051L33.5314 139.467L22.3011 145.716L19.9204 141.438C18.1612 138.277 19.2123 136.353 21.1784 135.259C23.1288 134.173 25.3492 134.277 27.1085 137.438L28.7014 140.301L32.7437 138.051ZM22.7716 143.6L27.4431 141.001L25.8764 138.186C24.7124 136.094 23.2577 135.997 21.9837 136.706C20.7096 137.415 20.0409 138.693 21.205 140.785L22.7716 143.6Z" fill="#202020"/>
<path d="M25.2733 120.918C26.3565 124.389 25.1455 126.37 23.1695 126.986L22.929 127.061L22.4464 125.515L22.601 125.467C23.9241 125.054 24.6945 123.776 23.9438 121.371C23.2092 119.017 21.9531 118.315 20.7159 118.701C17.4512 119.72 22.3406 126.868 17.4607 128.391C15.5362 128.991 13.5104 128.058 12.5344 124.931C11.4995 121.615 12.7641 119.806 14.8088 119.168L14.9807 119.114L15.4633 120.661L15.3258 120.704C13.934 121.138 13.183 122.296 13.8747 124.513C14.5235 126.592 15.7474 127.191 16.9502 126.815C20.3696 125.748 15.4802 118.6 20.2398 117.115C22.1127 116.53 24.2223 117.55 25.2733 120.918Z" fill="#202020"/>
<path d="M22.6094 109.355C23.1292 112.79 21.3511 115.717 16.9374 116.385C12.488 117.059 9.92352 114.789 9.40374 111.354C8.9836 108.577 10.2423 105.947 12.9497 105.192L13.1975 106.829C11.3799 107.45 10.5394 109.234 10.8275 111.138C11.21 113.666 13.1808 115.261 16.6869 114.73C20.1574 114.205 21.568 112.098 21.1856 109.571C20.8974 107.667 19.5667 106.211 17.629 106.159L17.3812 104.521C20.2444 104.434 22.1893 106.579 22.6094 109.355Z" fill="#202020"/>
<path d="M21.5195 101.48V103.1H8.66753V98.15C8.66753 94.586 10.3415 93.452 12.3035 93.452C13.8695 93.452 15.0755 93.992 15.6335 95.738H15.8135C16.2275 94.226 17.2355 93.686 18.8915 93.308L21.5195 92.678V94.334L18.9995 94.928C17.6855 95.234 16.5335 95.702 16.5335 98.042V101.48H21.5195ZM10.1075 101.48H15.0935V98.132C15.0935 95.882 13.9055 95.108 12.5735 95.108C11.2055 95.108 10.1075 95.882 10.1075 98.132V101.48Z" fill="#202020"/>
<path d="M22.6923 86.1068C22.0783 89.9642 19.3434 91.9166 15.1126 91.2432C10.8819 90.5697 8.88835 87.8647 9.50236 84.0073C10.1136 80.1676 12.8485 78.2153 17.0792 78.8887C21.3099 79.5621 23.3035 82.2672 22.6923 86.1068ZM21.2702 85.8804C21.7229 83.0363 20.143 81.0532 16.8189 80.5241C13.4947 79.995 11.3772 81.3894 10.9245 84.2336C10.4689 87.0956 12.0516 89.0608 15.3758 89.59C18.6999 90.1191 20.8147 88.7424 21.2702 85.8804Z" fill="#202020"/>
<path d="M26.3026 70.936L23.7555 79.0978L11.4871 75.2692L11.9697 73.7227L22.8635 77.1224L24.928 70.507L26.3026 70.936Z" fill="#202020"/>
<path d="M30.0226 62.6296L26.5166 70.4277L14.7948 65.1576L15.4591 63.6801L25.8675 68.3597L28.7092 62.0391L30.0226 62.6296Z" fill="#202020"/>
<path d="M31.1716 60.7685L30.3891 62.187L19.1357 55.9793L19.9182 54.5608L31.1716 60.7685Z" fill="#202020"/>
<path d="M32.8063 57.7772L31.8822 59.1078L21.3258 51.7774L22.3525 50.2989L34.8344 50.0911L34.9371 49.9433L26.6132 44.1631L27.5372 42.8325L38.0936 50.1629L37.067 51.6414L24.585 51.8491L24.4823 51.997L32.8063 57.7772Z" fill="#202020"/>
<path d="M42.6646 45.5585C40.3656 47.9425 36.974 48.3479 33.7348 45.2242C30.4567 42.0631 30.764 38.6586 33.1754 36.1579C35.1246 34.1366 37.903 33.6151 40.1862 35.2667L39.0367 36.4588C37.5018 35.3537 35.5239 35.797 34.212 37.1575C32.4128 39.0233 32.3183 41.5328 34.8968 44.0192C37.4493 46.4807 39.9413 46.3081 41.753 44.4293C43.0524 43.0818 43.6476 40.805 41.9733 39.0405L41.8308 38.9031L39.057 41.7795L38.0204 40.78L41.9188 36.7374L46.5315 41.1855L45.5319 42.222L44.2926 41.277L44.1677 41.4066C44.313 43.0971 43.6267 44.5608 42.6646 45.5585Z" fill="#202020"/>
</svg>
