<svg width="262" height="22" viewBox="0 0 262 22" fill="none" xmlns="http://www.w3.org/2000/svg">
<path d="M221.016 21.3209C219.871 21.3437 218.738 21.067 217.719 20.5153C216.784 20.0112 216 19.2412 215.456 18.2917C214.922 17.3119 214.641 16.2004 214.641 15.069C214.641 13.9377 214.922 12.8262 215.456 11.8464C216.012 10.9102 216.793 10.1466 217.719 9.63345C218.738 9.08176 219.871 8.80503 221.016 8.82779C222.115 8.79866 223.202 9.07265 224.171 9.62276C225.044 10.1257 225.734 10.9236 226.129 11.8893L223.572 13.3825C223.306 12.8641 222.914 12.4302 222.436 12.1256C221.993 11.8628 221.493 11.7259 220.985 11.7282C220.458 11.7257 219.939 11.8623 219.474 12.1256C219.022 12.3957 218.647 12.7889 218.388 13.2643C218.107 13.8183 217.967 14.4404 217.982 15.069C217.968 15.701 218.108 16.3261 218.388 16.8844C218.641 17.3675 219.017 17.7657 219.474 18.0338C219.937 18.3029 220.457 18.4399 220.985 18.4313C221.494 18.4387 221.995 18.3014 222.436 18.0338C222.918 17.7302 223.311 17.2915 223.572 16.7663L226.129 18.2487C225.73 19.2095 225.042 20.003 224.171 20.5046C223.206 21.0669 222.117 21.3485 221.016 21.3209Z" fill="#151515"/>
<path d="M233.344 21.3225C232.22 21.3459 231.11 21.0649 230.117 20.5061C229.201 19.995 228.433 19.2302 227.896 18.2932C227.361 17.3134 227.08 16.202 227.08 15.0706C227.08 13.9392 227.361 12.8278 227.896 11.8479C228.431 10.9086 229.199 10.143 230.117 9.635C231.113 9.08812 232.222 8.81479 233.344 8.84009C234.478 8.81398 235.601 9.08715 236.611 9.635C237.532 10.1428 238.303 10.9082 238.843 11.8479C239.39 12.8217 239.671 13.9375 239.654 15.0706C239.676 16.2043 239.395 17.3215 238.843 18.2932C238.301 19.2306 237.529 19.9952 236.611 20.5061C235.604 21.0662 234.48 21.347 233.344 21.3225ZM233.344 18.4328C233.869 18.4473 234.388 18.3099 234.845 18.0354C235.281 17.7593 235.633 17.3567 235.86 16.8753C236.135 16.3194 236.271 15.6981 236.255 15.0706C236.274 14.4429 236.137 13.8209 235.86 13.2659C235.624 12.7969 235.274 12.4037 234.845 12.1272C234.396 11.8602 233.889 11.7232 233.374 11.7297C232.853 11.7249 232.34 11.8617 231.883 12.1272C231.451 12.3989 231.099 12.7934 230.868 13.2659C230.591 13.8209 230.454 14.4429 230.473 15.0706C230.457 15.6981 230.593 16.3194 230.868 16.8753C231.09 17.3599 231.443 17.7637 231.883 18.0354C232.327 18.3043 232.832 18.4416 233.344 18.4328Z" fill="#151515"/>
<path d="M256.546 8.8271C257.385 8.80691 258.217 9.00229 258.97 9.39647C259.678 9.78819 260.253 10.4041 260.614 11.1582C261.048 12.0996 261.254 13.1408 261.213 14.1875V21.1377H257.895V14.6924C257.946 13.9282 257.745 13.1688 257.327 12.5439C257.127 12.3123 256.882 12.1297 256.609 12.0091C256.335 11.8885 256.04 11.8327 255.744 11.8457C255.279 11.8368 254.821 11.9591 254.415 12.2002C254.014 12.4416 253.703 12.8205 253.532 13.2744C253.311 13.8424 253.207 14.4542 253.228 15.0684V21.1592H249.9V14.7139C249.959 13.9489 249.757 13.1871 249.332 12.5654C249.128 12.328 248.876 12.1421 248.595 12.0212C248.315 11.9004 248.012 11.8477 247.709 11.8672C247.254 11.8593 246.805 11.9818 246.41 12.2217C246.011 12.4683 245.698 12.8451 245.518 13.2959C245.283 13.8604 245.172 14.4736 245.193 15.0898V21.1806H241.865V9.04196H245.041V12.3398L244.452 11.3945C244.808 10.5932 245.394 9.93149 246.126 9.50387C246.893 9.06958 247.753 8.85136 248.622 8.87011C249.604 8.84797 250.569 9.13995 251.392 9.70797C252.216 10.321 252.784 11.2493 252.974 12.2969L251.798 11.9531C252.179 11.0242 252.82 10.2408 253.634 9.70797C254.504 9.12225 255.515 8.81625 256.546 8.8271Z" fill="#151515"/>
<path d="M207.848 20.0234C209.372 20.0234 210.607 18.7153 210.607 17.1016C210.607 15.4879 209.372 14.1797 207.848 14.1797C206.323 14.1797 205.088 15.4879 205.088 17.1016C205.088 18.7153 206.323 20.0234 207.848 20.0234Z" fill="#151515"/>
<path d="M0.0202797 1.43408H5.67129C8.90768 1.43408 10.6831 3.32466 10.6831 6.42915C10.6831 8.91059 9.55699 10.1245 8.5323 10.5327C9.84106 11.102 11.2208 12.3803 11.2208 15.3451C11.2208 19.0834 8.91781 21.1352 5.60026 21.1352H0L0.0202797 1.43408ZM4.89008 9.29729C6.9699 9.29729 7.50761 8.44866 7.50761 6.7514C7.50761 5.05414 6.64525 4.22702 5.01184 4.22702H3.28711V9.29729H4.89008ZM3.28711 18.3852H5.31619C6.98004 18.3852 7.94387 17.4828 7.94387 15.2699C7.94387 13.2397 7.14237 12.0473 4.95095 12.0473H3.3277L3.28711 18.3852Z" fill="#007333"/>
<path d="M23.7705 21.4255C22.3532 21.4412 20.9457 21.1751 19.621 20.6413C18.3921 20.1406 17.2683 19.3887 16.3136 18.4284C15.3788 17.4841 14.6365 16.3472 14.1323 15.0876C13.1044 12.4193 13.1044 9.43076 14.1323 6.76242C14.6341 5.50462 15.3768 4.37074 16.3136 3.43237C17.2723 2.49876 18.3917 1.76934 19.6109 1.28394C22.2821 0.238687 25.2183 0.238687 27.8895 1.28394C29.1128 1.76029 30.2339 2.49074 31.1868 3.43237C32.1131 4.37556 32.8484 5.50858 33.3478 6.76242C33.8634 8.09475 34.1221 9.52286 34.1087 10.9626C34.1241 12.3957 33.8652 13.8171 33.3478 15.1413C32.8445 16.4102 32.1003 17.556 31.1613 18.5077C30.2224 19.4593 29.1087 20.1966 27.8895 20.6735C26.5724 21.1922 25.1756 21.4472 23.7705 21.4255ZM23.7705 18.1061C24.6872 18.1184 25.5973 17.9395 26.4489 17.5798C27.2499 17.2504 27.976 16.7452 28.5794 16.0974C29.1914 15.446 29.6743 14.6717 29.9998 13.82C30.6693 11.9625 30.6693 9.909 29.9998 8.05149C29.6853 7.19944 29.2048 6.42714 28.5896 5.78491C27.973 5.14144 27.2419 4.63391 26.4387 4.29173C25.5851 3.94066 24.676 3.76566 23.7603 3.77613C22.8316 3.76772 21.9096 3.94256 21.0414 4.29173C20.2338 4.62991 19.5014 5.14206 18.8905 5.79566C18.2798 6.45031 17.7941 7.22354 17.46 8.073C17.0977 8.9798 16.918 9.95664 16.9325 10.9411C16.9163 12.8631 17.6204 14.7134 18.8905 16.0866C19.4989 16.7408 20.2322 17.2499 21.0414 17.5798C21.9108 17.939 22.8373 18.1177 23.7705 18.1061Z" fill="#007333"/>
<path d="M40.2566 12.7348V21.1352H36.9492V1.43408H42.6408C46.0294 1.43408 47.9468 3.29248 47.9468 6.80517C47.9468 9.65184 46.5062 10.8872 45.5322 11.2954C46.9729 12.0044 47.6526 13.3041 47.6526 16.2152V16.9995C47.6198 18.3797 47.7047 19.7603 47.9063 21.1244H44.68C44.4064 19.7588 44.3007 18.3615 44.3655 16.9672V16.2475C44.3655 13.6157 43.7872 12.724 41.6871 12.724L40.2566 12.7348ZM40.2566 9.87741H41.819C43.8481 9.87741 44.6192 8.9643 44.6192 6.96626C44.6705 6.60814 44.6428 6.24231 44.538 5.89748C44.4332 5.55266 44.2543 5.23822 44.0154 4.97898C43.7765 4.71975 43.484 4.52276 43.161 4.40345C42.8379 4.28415 42.4932 4.24582 42.1538 4.29147H40.2566V9.87741Z" fill="#007333"/>
<path d="M53.8203 1.43408V21.1352H50.4824V1.43408H53.8203Z" fill="#007333"/>
<path d="M57.1191 21.1353V3.69006C57.1191 3.39381 57.1742 3.10046 57.2813 2.82676C57.3884 2.55307 57.5453 2.3044 57.7432 2.09493C57.941 1.88545 58.1759 1.71931 58.4343 1.60594C58.6928 1.49258 58.9699 1.43423 59.2497 1.43423H59.4424C59.8825 1.42894 60.3134 1.56736 60.6765 1.8307C61.0396 2.09404 61.3172 2.4695 61.4715 2.9059C64.8702 12.5094 65.5297 14.443 65.763 15.3668C65.6007 12.9928 65.5906 10.0924 65.5906 6.86976V1.43423H68.5733V18.8795C68.5733 19.4778 68.3488 20.0516 67.9493 20.4746C67.5497 20.8977 67.0078 21.1353 66.4428 21.1353C66.0003 21.139 65.5676 20.9975 65.2042 20.7301C64.8409 20.4627 64.5647 20.0826 64.4137 19.6422C60.8831 9.34041 60.2338 7.39612 60.0004 6.52601C60.1425 8.95374 60.1425 11.8971 60.1425 15.3883V21.1353H57.1191Z" fill="#007333"/>
<path d="M82.7754 21.1357H80.2391C80.1533 20.5811 80.0991 20.0215 80.0767 19.4599C79.7125 20.1395 79.1695 20.6923 78.5138 21.0509C77.8581 21.4095 77.118 21.5584 76.3838 21.4795C72.4981 21.4795 71.0879 17.8057 71.0879 11.4033C71.0879 4.21681 73.3808 1.1123 77.378 1.1123C82.4508 1.1123 82.7044 5.68851 82.7551 6.8594H79.4579C79.4071 6.06448 79.2448 4.09866 77.2766 4.09866C75.1258 4.09866 74.5272 7.12794 74.5272 11.4033C74.5272 15.9902 75.0446 18.5146 77.165 18.5146C78.9303 18.5146 79.468 17.0859 79.468 14.2178V13.1435H76.9621V10.125H82.7754V21.1357Z" fill="#007333"/>
<path d="M97.2554 13.809C97.2554 10.4467 97.3163 6.60106 97.367 4.36669H97.296C96.6467 8.10497 95.622 14.7544 94.4045 21.1352H91.3609C90.458 15.1948 89.3927 8.11572 88.7941 4.313H88.6927C88.7941 6.61182 88.8854 10.7583 88.8854 14.142V21.1352H85.8418V4.25923C85.8418 3.88732 85.9111 3.51911 86.0459 3.17564C86.1806 2.83217 86.378 2.52021 86.6269 2.25773C86.8757 1.99525 87.1711 1.78735 87.496 1.64601C87.8209 1.50466 88.1689 1.43269 88.5202 1.4341H88.6014C89.2267 1.43351 89.8324 1.66547 90.3127 2.08956C90.7929 2.51364 91.1173 3.10289 91.229 3.75438C92.0305 8.395 92.7102 12.7886 93.0248 15.2485C93.3494 12.9604 94.2523 8.27685 95.1147 3.70068C95.2366 3.06089 95.5639 2.4855 96.0411 2.07231C96.5182 1.65912 97.1158 1.43363 97.7322 1.4341C98.083 1.43268 98.4306 1.50473 98.7549 1.64621C99.0792 1.78768 99.3739 1.99576 99.6219 2.25839C99.87 2.52101 100.066 2.83302 100.2 3.17643C100.334 3.51984 100.402 3.88783 100.4 4.25923V21.1352H97.2047L97.2554 13.809Z" fill="#007333"/>
<path d="M106.456 16.1723L105.533 21.1352H102.195L106.01 3.66842C106.15 3.03293 106.488 2.46627 106.971 2.06057C107.454 1.65487 108.052 1.43408 108.668 1.4341C109.282 1.43208 109.879 1.65098 110.36 2.055C110.841 2.45901 111.178 3.02412 111.316 3.65767L115.181 21.1352H111.691L110.758 16.1723H106.456ZM110.17 13.1108C109.47 9.34033 108.922 6.59031 108.628 4.69969H108.546C108.323 6.51512 107.725 9.47997 107.045 13.1108H110.17Z" fill="#007333"/>
<path d="M120.081 12.7319V21.1322H116.773V1.43115H122.465C125.853 1.43115 127.771 3.28955 127.771 6.80224C127.771 9.64891 126.33 10.8843 125.356 11.2925C126.797 12.0014 127.477 13.3012 127.477 16.2123V16.9965C127.444 18.3768 127.529 19.7574 127.73 21.1215H124.504C124.236 19.7551 124.13 18.3585 124.19 16.9643V16.2446C124.19 13.6127 123.621 12.7211 121.511 12.7211L120.081 12.7319ZM120.081 9.87448H121.643C123.672 9.87448 124.443 8.96137 124.443 6.96333C124.495 6.60521 124.467 6.23938 124.362 5.89455C124.257 5.54973 124.078 5.23529 123.839 4.97605C123.6 4.71682 123.308 4.51983 122.985 4.40053C122.662 4.28122 122.317 4.24289 121.978 4.28854H120.081V9.87448Z" fill="#007333"/>
<path d="M130.309 1.43408H133.596V10.2641C134.61 8.47017 137.015 3.97998 138.506 1.43408H142.351L137.563 9.12544L142.453 21.1352H138.75L135.29 12.0795L133.606 14.5717V21.1352H130.319L130.309 1.43408Z" fill="#007333"/>
<path d="M152.972 12.3804H146.996V18.0951H153.702V21.1352H143.709V1.43408H153.256V4.51708H146.996V9.3188H152.972V12.3804Z" fill="#007333"/>
<path d="M158.786 4.51708H154.809V1.43408H166.101V4.51708H162.124V21.1352H158.786V4.51708Z" fill="#007333"/>
<path d="M171.264 1.43408V21.1352H167.926V1.43408H171.264Z" fill="#007333"/>
<path d="M174.553 21.1352V3.78664C174.553 3.4768 174.611 3.17 174.723 2.88388C174.835 2.59775 175 2.33792 175.207 2.11933C175.414 1.90073 175.661 1.72768 175.931 1.61008C176.202 1.49249 176.492 1.43269 176.785 1.43411C177.242 1.43595 177.687 1.58485 178.062 1.86113C178.437 2.13741 178.724 2.52802 178.885 2.98098C182.263 12.52 182.943 14.4428 183.146 15.3667C182.994 12.9926 182.984 10.0923 182.984 6.86964V1.43411H185.956V18.8794C185.956 19.4777 185.732 20.0514 185.332 20.4745C184.933 20.8976 184.391 21.1352 183.826 21.1352C183.384 21.1373 182.951 20.9952 182.588 20.728C182.225 20.4608 181.949 20.0816 181.797 19.642C178.276 9.34029 177.617 7.396 177.393 6.52588C177.536 8.95361 177.535 11.897 177.535 15.3882V21.1352H174.553Z" fill="#007333"/>
<path d="M200.26 21.1357H197.713C197.636 20.5802 197.585 20.0209 197.561 19.4599C197.194 20.1395 196.649 20.6919 195.992 21.0503C195.335 21.4087 194.594 21.5578 193.858 21.4795C189.972 21.4795 188.572 17.8056 188.572 11.4033C188.572 4.21681 190.865 1.1123 194.862 1.1123C199.935 1.1123 200.179 5.68851 200.239 6.8594H196.942C196.942 6.06448 196.729 4.09866 194.761 4.09866C192.61 4.09866 192.012 7.12794 192.012 11.4033C192.012 15.9902 192.519 18.5146 194.649 18.5146C196.415 18.5146 196.942 17.0859 196.942 14.2178V13.1435H194.436V10.125H200.26V21.1357Z" fill="#007333"/>
</svg>
