<svg width="36" height="36" viewBox="0 0 36 36" fill="none" xmlns="http://www.w3.org/2000/svg">
<circle cx="18" cy="18" r="18" fill="#EAF4E2"/>
<path d="M27.3654 12.3961C27.3841 12.6211 27.3654 12.8555 27.3091 13.0898L24.1498 25.7742C23.9248 26.7211 23.081 27.3773 22.106 27.3773H9.78726C8.37163 27.3773 7.36852 25.9898 7.78102 24.6305L11.7279 11.9461C11.9998 11.0648 12.8154 10.4648 13.7342 10.4648H25.2654C26.1654 10.4648 26.8966 10.9992 27.206 11.7492C27.2998 11.9461 27.3466 12.1711 27.3654 12.3961Z" fill="#AAD28E"/>
<path d="M28.3033 25.1437C28.3971 26.3531 27.4408 27.375 26.2314 27.375H22.1064C23.0814 27.375 23.9252 26.7187 24.1502 25.7719L27.3096 13.0875C27.3658 12.8531 27.3846 12.6188 27.3658 12.3938L27.3752 12.375L28.3033 25.1437Z" fill="#007333"/>
<path d="M15.8251 13.4356C15.7689 13.4356 15.7127 13.4262 15.6564 13.4169C15.2814 13.3231 15.047 12.9482 15.1408 12.5638L16.1158 8.51377C16.2095 8.13877 16.5845 7.91378 16.9689 7.99815C17.3439 8.0919 17.5783 8.46688 17.4845 8.85125L16.5095 12.9013C16.4345 13.22 16.1439 13.4356 15.8251 13.4356Z" fill="#007333"/>
<path d="M22.1057 13.4444C22.0589 13.4444 22.0026 13.4444 21.9557 13.4257C21.5807 13.3413 21.337 12.9663 21.412 12.5913L22.2932 8.52254C22.3776 8.13817 22.7526 7.90378 23.1276 7.97878C23.5026 8.06315 23.7463 8.43817 23.6713 8.81317L22.7901 12.8819C22.7245 13.2194 22.4339 13.4444 22.1057 13.4444Z" fill="#007333"/>
<path d="M21.4688 18.7031H13.9688C13.5844 18.7031 13.2656 18.3844 13.2656 18C13.2656 17.6156 13.5844 17.2969 13.9688 17.2969H21.4688C21.8531 17.2969 22.1719 17.6156 22.1719 18C22.1719 18.3844 21.8531 18.7031 21.4688 18.7031Z" fill="#007333"/>
<path d="M20.5312 22.4531H13.0312C12.6469 22.4531 12.3281 22.1344 12.3281 21.75C12.3281 21.3656 12.6469 21.0469 13.0312 21.0469H20.5312C20.9156 21.0469 21.2344 21.3656 21.2344 21.75C21.2344 22.1344 20.9156 22.4531 20.5312 22.4531Z" fill="#007333"/>
</svg>
