<svg width="37" height="36" viewBox="0 0 37 36" fill="none" xmlns="http://www.w3.org/2000/svg">
<circle cx="18.5" cy="18" r="18" fill="#EAF4E2"/>
<path d="M22.4746 10.168H14.5246C12.209 10.168 10.334 12.0523 10.334 14.3586V23.1805C10.334 25.4867 12.2184 27.3711 14.5246 27.3711H22.4652C24.7809 27.3711 26.6559 25.4867 26.6559 23.1805V14.3586C26.6652 12.043 24.7809 10.168 22.4746 10.168Z" fill="#AAD28E"/>
<path d="M20.7035 8.625H16.2973C15.3223 8.625 14.5254 9.4125 14.5254 10.3875V11.2688C14.5254 12.2438 15.3129 13.0312 16.2879 13.0312H20.7035C21.6785 13.0312 22.466 12.2438 22.466 11.2688V10.3875C22.4754 9.4125 21.6785 8.625 20.7035 8.625Z" fill="#007333"/>
<path d="M17.3844 22.6383C17.2063 22.6383 17.0281 22.5727 16.8875 22.432L15.4813 21.0258C15.2094 20.7539 15.2094 20.3039 15.4813 20.032C15.7531 19.7602 16.2031 19.7602 16.475 20.032L17.3844 20.9414L20.6375 17.6883C20.9094 17.4164 21.3594 17.4164 21.6313 17.6883C21.9031 17.9602 21.9031 18.4102 21.6313 18.682L17.8813 22.432C17.75 22.5727 17.5625 22.6383 17.3844 22.6383Z" fill="#007333"/>
</svg>
