<svg width="37" height="36" viewBox="0 0 37 36" fill="none" xmlns="http://www.w3.org/2000/svg">
<circle cx="18.5" cy="18" r="18" fill="#EAF4E2"/>
<path d="M24.4533 25.2C23.9376 26.5219 22.6814 27.375 21.2658 27.375H15.7345C14.3095 27.375 13.0626 26.5219 12.547 25.2C12.0314 23.8688 12.3876 22.3969 13.4376 21.4406L17.2345 18H19.7751L23.5626 21.4406C24.6126 22.3969 24.9595 23.8688 24.4533 25.2Z" fill="#AAD28E"/>
<path d="M20.2062 23.7594H16.7938C16.4375 23.7594 16.1562 23.4687 16.1562 23.1219C16.1562 22.7656 16.4469 22.4844 16.7938 22.4844H20.2062C20.5625 22.4844 20.8438 22.775 20.8438 23.1219C20.8438 23.4687 20.5531 23.7594 20.2062 23.7594Z" fill="#007333"/>
<path d="M24.4537 10.8C23.9381 9.47813 22.6819 8.625 21.2662 8.625H15.735C14.3194 8.625 13.0631 9.47813 12.5475 10.8C12.0412 12.1313 12.3881 13.6031 13.4475 14.5594L17.235 18H19.7756L23.5631 14.5594C24.6131 13.6031 24.96 12.1313 24.4537 10.8ZM20.2069 13.5281H16.7944C16.4381 13.5281 16.1569 13.2375 16.1569 12.8906C16.1569 12.5438 16.4475 12.2531 16.7944 12.2531H20.2069C20.5631 12.2531 20.8444 12.5438 20.8444 12.8906C20.8444 13.2375 20.5537 13.5281 20.2069 13.5281Z" fill="#007333"/>
</svg>
