<svg width="36" height="36" viewBox="0 0 36 36" fill="none" xmlns="http://www.w3.org/2000/svg">
<circle cx="18" cy="18" r="18" fill="#EAF4E2"/>
<path d="M22.7514 13.8232C22.6884 13.8144 22.6253 13.8144 22.5622 13.8232C21.1652 13.7792 20.0566 12.6626 20.0566 11.291C20.0566 9.893 21.2193 8.75 22.6613 8.75C24.0943 8.75 25.266 9.88421 25.266 11.291C25.257 12.6626 24.1484 13.7792 22.7514 13.8232Z" fill="#AAD28E"/>
<path d="M25.6894 19.9149C24.68 20.5744 23.265 20.8205 21.9582 20.6535C22.3006 19.9325 22.4809 19.1324 22.4899 18.2884C22.4899 17.4091 22.2916 16.5739 21.9131 15.8441C23.247 15.6682 24.662 15.9144 25.6804 16.5738C27.1044 17.4882 27.1044 18.9917 25.6894 19.9149Z" fill="#AAD28E"/>
<path d="M12.7577 13.8232C12.8208 13.8144 12.8839 13.8144 12.947 13.8232C14.344 13.7792 15.4525 12.6626 15.4525 11.291C15.4525 9.893 14.2899 8.75 12.8478 8.75C11.4148 8.75 10.2432 9.88421 10.2432 11.291C10.2522 12.6626 11.3607 13.7792 12.7577 13.8232Z" fill="#AAD28E"/>
<path d="M12.8553 18.2885C12.8553 19.1414 13.0446 19.9503 13.3871 20.68C12.1163 20.8119 10.7914 20.5482 9.81801 19.9239C8.394 19.0007 8.394 17.4972 9.81801 16.574C10.7824 15.941 12.1433 15.686 13.4231 15.8267C13.0536 16.5652 12.8553 17.4005 12.8553 18.2885Z" fill="#AAD28E"/>
<path d="M17.8767 20.9466C17.8046 20.9378 17.7235 20.9378 17.6424 20.9466C15.9841 20.8938 14.6592 19.5662 14.6592 17.9308C14.6592 16.2603 16.0381 14.9062 17.7596 14.9062C19.472 14.9062 20.8599 16.2603 20.8599 17.9308C20.8599 19.5662 19.5441 20.8938 17.8767 20.9466Z" fill="#007333"/>
<path d="M14.9475 22.7662C13.5865 23.6542 13.5865 25.1137 14.9475 25.9929C16.4976 27.0041 19.0392 27.0041 20.5894 25.9929C21.9504 25.1049 21.9504 23.6454 20.5894 22.7662C19.0483 21.755 16.5067 21.755 14.9475 22.7662Z" fill="#007333"/>
</svg>
