<svg width="37" height="36" viewBox="0 0 37 36" fill="none" xmlns="http://www.w3.org/2000/svg">
<circle cx="18.5" cy="18" r="18" fill="#EAF4E2"/>
<path d="M18.5 11.7188V26.747C18.3406 26.747 18.1719 26.7188 18.0406 26.6438L18.0031 26.6251C16.2031 25.6407 13.0625 24.6095 11.0281 24.3376L10.7563 24.3001C9.85625 24.1876 9.125 23.3438 9.125 22.4438V11.1188C9.125 10.0032 10.0344 9.15946 11.15 9.25321C13.1187 9.41259 16.1 10.4063 17.7688 11.447L18.0031 11.5876C18.1438 11.672 18.3219 11.7188 18.5 11.7188Z" fill="#AAD28E"/>
<path d="M27.875 11.1267V22.4423C27.875 23.3423 27.1438 24.1861 26.2438 24.2986L25.9344 24.3361C23.8906 24.608 20.7406 25.6486 18.9406 26.6423C18.8188 26.7173 18.6688 26.7455 18.5 26.7455V11.7173C18.6781 11.7173 18.8562 11.6705 18.9969 11.5861L19.1562 11.483C20.825 10.433 23.8156 9.42984 25.7844 9.26109H25.8406C26.9563 9.16734 27.875 10.0017 27.875 11.1267Z" fill="#007333"/>
<path d="M14.5156 15.4102H12.4062C12.0219 15.4102 11.7031 15.0914 11.7031 14.707C11.7031 14.3227 12.0219 14.0039 12.4062 14.0039H14.5156C14.9 14.0039 15.2188 14.3227 15.2188 14.707C15.2188 15.0914 14.9 15.4102 14.5156 15.4102Z" fill="#007333"/>
<path d="M15.2188 18.2227H12.4062C12.0219 18.2227 11.7031 17.9039 11.7031 17.5195C11.7031 17.1352 12.0219 16.8164 12.4062 16.8164H15.2188C15.6031 16.8164 15.9219 17.1352 15.9219 17.5195C15.9219 17.9039 15.6031 18.2227 15.2188 18.2227Z" fill="#007333"/>
</svg>
