<svg width="349" height="28" viewBox="0 0 349 28" fill="none" xmlns="http://www.w3.org/2000/svg">
<path d="M294.69 27.7619C293.163 27.7922 291.653 27.4233 290.293 26.6877C289.047 26.0156 288.002 24.989 287.277 23.7229C286.564 22.4165 286.189 20.9346 286.189 19.426C286.189 17.9175 286.564 16.4356 287.277 15.1292C288.019 13.8809 289.059 12.8628 290.293 12.1786C291.653 11.443 293.163 11.074 294.69 11.1044C296.155 11.0655 297.605 11.4309 298.897 12.1643C300.061 12.835 300.98 13.8988 301.507 15.1864L298.099 17.1773C297.743 16.4861 297.22 15.9075 296.584 15.5015C295.993 15.151 295.326 14.9685 294.649 14.9716C293.946 14.9683 293.253 15.1504 292.634 15.5015C292.032 15.8616 291.532 16.3858 291.186 17.0197C290.812 17.7584 290.625 18.5878 290.645 19.426C290.626 20.2687 290.813 21.1022 291.186 21.8465C291.524 22.4906 292.025 23.0216 292.634 23.3791C293.251 23.7379 293.945 23.9205 294.649 23.909C295.327 23.9189 295.995 23.7359 296.584 23.3791C297.226 22.9742 297.75 22.3894 298.099 21.689L301.507 23.6656C300.976 24.9467 300.058 26.0047 298.897 26.6734C297.61 27.4232 296.158 27.7987 294.69 27.7619Z" fill="white"/>
<path d="M311.126 27.7627C309.628 27.7938 308.147 27.4192 306.824 26.6742C305.603 25.9926 304.579 24.9729 303.862 23.7237C303.149 22.4173 302.774 20.9353 302.774 19.4268C302.774 17.9183 303.149 16.4364 303.862 15.1299C304.575 13.8775 305.6 12.8567 306.824 12.1793C308.152 11.4502 309.631 11.0857 311.126 11.1195C312.638 11.0847 314.135 11.4489 315.482 12.1793C316.71 12.8564 317.739 13.877 318.458 15.1299C319.188 16.4283 319.562 17.916 319.54 19.4268C319.569 20.9385 319.194 22.428 318.458 23.7237C317.735 24.9734 316.707 25.993 315.482 26.6742C314.14 27.4209 312.641 27.7954 311.126 27.7627ZM311.126 23.9098C311.826 23.9291 312.519 23.7459 313.128 23.3799C313.709 23.0117 314.179 22.4749 314.481 21.833C314.848 21.0919 315.029 20.2634 315.008 19.4268C315.032 18.5899 314.851 17.7605 314.481 17.0205C314.166 16.3952 313.699 15.8709 313.128 15.5023C312.529 15.1463 311.853 14.9636 311.167 14.9723C310.472 14.9658 309.787 15.1483 309.178 15.5023C308.602 15.8645 308.133 16.3905 307.825 17.0205C307.455 17.7605 307.273 18.5899 307.298 19.4268C307.277 20.2634 307.458 21.0919 307.825 21.833C308.121 22.4792 308.592 23.0176 309.178 23.3799C309.771 23.7385 310.443 23.9215 311.126 23.9098Z" fill="white"/>
<path d="M342.062 11.1035C343.182 11.0765 344.291 11.337 345.295 11.8626C346.239 12.3849 347.005 13.2061 347.487 14.2116C348.065 15.4668 348.34 16.855 348.285 18.2507V27.5175H343.861V18.9238C343.93 17.9049 343.662 16.8924 343.104 16.0592C342.838 15.7503 342.511 15.507 342.146 15.3461C341.782 15.1853 341.388 15.111 340.994 15.1283C340.374 15.1164 339.762 15.2795 339.221 15.6009C338.687 15.9228 338.272 16.428 338.045 17.0332C337.749 17.7906 337.611 18.6063 337.639 19.4251V27.5462H333.202V18.9525C333.28 17.9326 333.011 16.9168 332.444 16.0879C332.172 15.7713 331.837 15.5234 331.462 15.3623C331.087 15.2012 330.684 15.131 330.28 15.1569C329.673 15.1464 329.075 15.3097 328.548 15.6295C328.016 15.9583 327.598 16.4608 327.358 17.0618C327.046 17.8146 326.898 18.6321 326.925 19.4537V27.5748H322.488V11.3899H326.722V15.7871L325.938 14.5266C326.412 13.4583 327.193 12.576 328.17 12.0058C329.192 11.4268 330.338 11.1358 331.497 11.1608C332.807 11.1313 334.094 11.5206 335.19 12.2779C336.29 13.0953 337.046 14.333 337.301 15.7298L335.731 15.2715C336.241 14.0329 337.095 12.9884 338.18 12.2779C339.339 11.497 340.688 11.089 342.062 11.1035Z" fill="white"/>
<path d="M277.132 26.0299C279.164 26.0299 280.811 24.2857 280.811 22.1341C280.811 19.9825 279.164 18.2383 277.132 18.2383C275.099 18.2383 273.452 19.9825 273.452 22.1341C273.452 24.2857 275.099 26.0299 277.132 26.0299Z" fill="white"/>
<path d="M0.0270396 1.24609H7.56172C11.8769 1.24609 14.2442 3.76687 14.2442 7.90619C14.2442 11.2148 12.7427 12.8333 11.3764 13.3775C13.1214 14.1367 14.9611 15.8411 14.9611 19.7942C14.9611 24.7785 11.8904 27.5142 7.46702 27.5142H0L0.0270396 1.24609ZM6.52011 11.7304C9.2932 11.7304 10.0101 10.5989 10.0101 8.33586C10.0101 6.07284 8.86034 4.97001 6.68245 4.97001H4.38281V11.7304H6.52011ZM4.38281 23.8476H7.08825C9.30672 23.8476 10.5918 22.6444 10.5918 19.6939C10.5918 16.9869 9.52316 15.397 6.60127 15.397H4.43693L4.38281 23.8476Z" fill="white"/>
<path d="M31.6942 27.9007C29.8045 27.9216 27.9278 27.5668 26.1616 26.855C24.523 26.1874 23.0246 25.1849 21.7517 23.9045C20.5053 22.6454 19.5155 21.1295 18.8434 19.4501C17.4728 15.8923 17.4728 11.9077 18.8434 8.34989C19.5124 6.67283 20.5027 5.16098 21.7517 3.90983C23.0299 2.66502 24.5225 1.69245 26.1481 1.04525C29.7098 -0.348418 33.6246 -0.348418 37.1863 1.04525C38.8174 1.68039 40.3121 2.65433 41.5826 3.90983C42.8178 5.16741 43.7981 6.6781 44.4639 8.34989C45.1514 10.1263 45.4964 12.0305 45.4785 13.9502C45.499 15.8609 45.1539 17.7561 44.4639 19.5217C43.7929 21.2136 42.8006 22.7413 41.5487 24.0102C40.2968 25.2791 38.8119 26.2621 37.1863 26.8981C35.4301 27.5896 33.5678 27.9296 31.6942 27.9007ZM31.6942 23.4749C32.9166 23.4912 34.13 23.2527 35.2654 22.7731C36.3335 22.3339 37.3016 21.6603 38.1061 20.7965C38.9221 19.928 39.566 18.8957 39.9999 17.76C40.8927 15.2834 40.8927 12.5453 39.9999 10.0687C39.5807 8.93259 38.94 7.90285 38.1197 7.04655C37.2975 6.18859 36.3228 5.51188 35.2519 5.05565C34.1138 4.58755 32.9016 4.35422 31.6807 4.36817C30.4424 4.35696 29.213 4.59008 28.0554 5.05565C26.9786 5.50655 26.0021 6.18941 25.1876 7.06089C24.3733 7.93375 23.7257 8.96473 23.2803 10.0973C22.7972 11.3064 22.5576 12.6089 22.5769 13.9215C22.5553 16.4841 23.4942 18.9512 25.1876 20.7822C25.9987 21.6545 26.9765 22.3333 28.0554 22.7731C29.2146 23.252 30.45 23.4902 31.6942 23.4749Z" fill="white"/>
<path d="M53.6755 16.3137V27.5142H49.2656V1.24609H56.8544C61.3725 1.24609 63.9291 3.72395 63.9291 8.40754C63.9291 12.2031 62.0083 13.8502 60.7096 14.3945C62.6305 15.3398 63.5369 17.0728 63.5369 20.9543V21.9999C63.4931 23.8403 63.6063 25.6811 63.875 27.4999H59.5734C59.2086 25.6791 59.0677 23.816 59.154 21.9569V20.9973C59.154 17.4882 58.383 16.2994 55.5828 16.2994L53.6755 16.3137ZM53.6755 12.5039H55.7587C58.4641 12.5039 59.4922 11.2864 59.4922 8.62233C59.5607 8.14484 59.5237 7.65706 59.384 7.1973C59.2443 6.73753 59.0058 6.31828 58.6872 5.97263C58.3686 5.62698 57.9786 5.36433 57.548 5.20526C57.1173 5.04619 56.6576 4.99508 56.2051 5.05594H53.6755V12.5039Z" fill="white"/>
<path d="M71.762 1.24609V27.5142H67.3115V1.24609H71.762Z" fill="white"/>
<path d="M76.1572 27.5144V4.25406C76.1572 3.85907 76.2307 3.46793 76.3735 3.103C76.5162 2.73808 76.7255 2.40652 76.9892 2.12722C77.253 1.84792 77.5662 1.6264 77.9108 1.47524C78.2555 1.32409 78.6249 1.24629 78.9979 1.24629H79.255C79.8417 1.23923 80.4163 1.42379 80.9004 1.77492C81.3845 2.12604 81.7546 2.62665 81.9604 3.20852C86.492 16.0132 87.3713 18.5913 87.6824 19.823C87.466 16.6577 87.4524 12.7905 87.4524 8.49367V1.24629H91.4295V24.5067C91.4295 25.3044 91.1302 26.0694 90.5974 26.6335C90.0647 27.1976 89.3421 27.5144 88.5887 27.5144C87.9987 27.5193 87.4218 27.3306 86.9373 26.9741C86.4528 26.6176 86.0846 26.1107 85.8833 25.5235C81.1758 11.7879 80.3101 9.19548 79.999 8.03533C80.1883 11.2723 80.1883 15.1968 80.1883 19.8517V27.5144H76.1572Z" fill="white"/>
<path d="M110.369 27.5143H106.987C106.872 26.7748 106.8 26.0286 106.77 25.2799C106.285 26.186 105.561 26.9231 104.686 27.4012C103.812 27.8793 102.825 28.0778 101.846 27.9726C96.6654 27.9726 94.7852 23.0742 94.7852 14.5378C94.7852 4.95575 97.8423 0.816406 103.172 0.816406C109.936 0.816406 110.274 6.91801 110.341 8.47921H105.945C105.877 7.41931 105.661 4.79821 103.037 4.79821C100.169 4.79821 99.3709 8.83725 99.3709 14.5378C99.3709 20.6536 100.061 24.0195 102.888 24.0195C105.242 24.0195 105.959 22.1146 105.959 18.2904V16.8581H102.617V12.8333H110.369V27.5143Z" fill="white"/>
<path d="M129.673 17.746C129.673 13.263 129.754 8.1354 129.822 5.15624H129.727C128.862 10.1406 127.495 19.0065 125.872 27.5143H121.814C120.61 19.5937 119.19 10.1549 118.391 5.08465H118.256C118.391 8.14974 118.513 13.6783 118.513 18.19V27.5143H114.455V5.01296C114.455 4.51707 114.548 4.02613 114.727 3.56817C114.907 3.11021 115.17 2.69427 115.502 2.34429C115.834 1.99431 116.227 1.71712 116.661 1.52866C117.094 1.3402 117.558 1.24424 118.026 1.24612H118.134C118.968 1.24534 119.776 1.55461 120.416 2.12006C121.057 2.68551 121.489 3.47118 121.638 4.33983C122.707 10.5273 123.613 16.3854 124.032 19.6653C124.465 16.6146 125.669 10.3698 126.819 4.26823C126.981 3.41517 127.418 2.64799 128.054 2.09707C128.69 1.54614 129.487 1.24549 130.309 1.24612C130.777 1.24423 131.24 1.34029 131.673 1.52892C132.105 1.71756 132.498 1.995 132.829 2.34517C133.159 2.69533 133.421 3.11134 133.599 3.56922C133.778 4.0271 133.868 4.51775 133.867 5.01296V27.5143H129.606L129.673 17.746Z" fill="white"/>
<path d="M141.94 20.8971L140.709 27.5142H136.259L141.345 4.22521C141.531 3.3779 141.983 2.62234 142.627 2.08141C143.27 1.54048 144.067 1.24609 144.889 1.24611C145.708 1.24342 146.503 1.53529 147.145 2.07398C147.786 2.61267 148.236 3.36614 148.42 4.21087L153.574 27.5142H148.92L147.676 20.8971H141.94ZM146.891 16.8151C145.958 11.7878 145.227 8.12107 144.835 5.60024H144.727C144.429 8.02081 143.631 11.974 142.725 16.8151H146.891Z" fill="white"/>
<path d="M160.107 16.3098V27.5103H155.697V1.24219H163.286C167.804 1.24219 170.361 3.72005 170.361 8.40363C170.361 12.1992 168.44 13.8463 167.141 14.3906C169.062 15.3359 169.968 17.0689 169.968 20.9504V21.996C169.925 23.8364 170.038 25.6772 170.307 27.496H166.005C165.647 25.6741 165.506 23.812 165.586 21.953V20.9934C165.586 17.4843 164.828 16.2955 162.014 16.2955L160.107 16.3098ZM160.107 12.5H162.19C164.896 12.5 165.924 11.2825 165.924 8.61842C165.992 8.14093 165.955 7.65316 165.816 7.19339C165.676 6.73362 165.437 6.31437 165.119 5.96872C164.8 5.62307 164.41 5.36042 163.98 5.20135C163.549 5.04228 163.089 4.99117 162.637 5.05204H160.107V12.5Z" fill="white"/>
<path d="M173.744 1.24609H178.127V13.0195C179.48 10.6275 182.686 4.64062 184.674 1.24609H189.801L183.416 11.5012L189.936 27.5142H184.999L180.386 15.44L178.14 18.763V27.5142H173.758L173.744 1.24609Z" fill="white"/>
<path d="M203.964 15.8411H195.996V23.4608H204.938V27.5142H191.613V1.24609H204.342V5.35676H195.996V11.759H203.964V15.8411Z" fill="white"/>
<path d="M211.714 5.35676H206.411V1.24609H221.467V5.35676H216.164V27.5142H211.714V5.35676Z" fill="white"/>
<path d="M228.352 1.24609V27.5142H223.901V1.24609H228.352Z" fill="white"/>
<path d="M232.736 27.5143V4.38284C232.736 3.96972 232.813 3.56066 232.963 3.17916C233.113 2.79766 233.332 2.45121 233.609 2.15975C233.885 1.86829 234.213 1.63755 234.574 1.48076C234.935 1.32397 235.322 1.24424 235.712 1.24613C236.322 1.24859 236.916 1.44711 237.416 1.81549C237.916 2.18387 238.298 2.70468 238.512 3.30863C243.017 16.0274 243.923 18.5911 244.194 19.8229C243.991 16.6575 243.977 12.7904 243.977 8.4935V1.24613H247.941V24.5065C247.941 25.3042 247.642 26.0693 247.109 26.6333C246.576 27.1974 245.854 27.5143 245.1 27.5143C244.511 27.5171 243.935 27.3275 243.451 26.9713C242.966 26.615 242.598 26.1094 242.395 25.5234C237.701 11.7877 236.822 9.19532 236.524 8.03516C236.713 11.2721 236.713 15.1966 236.713 19.8515V27.5143H232.736Z" fill="white"/>
<path d="M267.014 27.5143H263.619C263.516 26.7736 263.448 26.0279 263.416 25.2799C262.927 26.186 262.2 26.9225 261.324 27.4004C260.447 27.8783 259.459 28.077 258.478 27.9726C253.297 27.9726 251.431 23.0742 251.431 14.5378C251.431 4.95575 254.488 0.816406 259.818 0.816406C266.581 0.816406 266.906 6.91801 266.987 8.4792H262.591C262.591 7.41931 262.307 4.79821 259.682 4.79821C256.815 4.79821 256.016 8.83725 256.016 14.5378C256.016 20.6536 256.693 24.0195 259.533 24.0195C261.887 24.0195 262.591 22.1146 262.591 18.2903V16.8581H259.249V12.8333H267.014V27.5143Z" fill="white"/>
</svg>
