<svg width="36" height="36" viewBox="0 0 36 36" fill="none" xmlns="http://www.w3.org/2000/svg">
<circle cx="18" cy="18" r="18" fill="#EAF4E2"/>
<path d="M27.3906 18.25C27.3906 19.3495 25.8244 20.1792 25.3973 21.211C24.9859 22.206 25.5221 23.904 24.7135 24.7135C23.9049 25.5229 22.206 24.9859 21.211 25.3973C20.1836 25.8244 19.3486 27.3906 18.25 27.3906C17.1514 27.3906 16.3164 25.8244 15.289 25.3973C14.294 24.9859 12.5951 25.5221 11.7865 24.7135C10.9779 23.9049 11.5141 22.206 11.1027 21.211C10.6756 20.1836 9.10938 19.3486 9.10938 18.25C9.10938 17.1514 10.6756 16.3164 11.1027 15.289C11.5141 14.2949 10.9779 12.5951 11.7865 11.7865C12.5951 10.9779 14.2949 11.5141 15.289 11.1027C16.3208 10.6756 17.1514 9.10938 18.25 9.10938C19.3486 9.10938 20.1836 10.6756 21.211 11.1027C22.206 11.5141 23.9049 10.9779 24.7135 11.7865C25.5221 12.5951 24.9859 14.294 25.3973 15.289C25.8244 16.3208 27.3906 17.1514 27.3906 18.25Z" fill="#007333"/>
<path d="M26.851 16.0369C26.5196 15.6906 26.1769 15.3338 26.0477 15.02C25.9281 14.7326 25.9211 14.2562 25.9141 13.7948C25.9009 12.937 25.8868 11.9649 25.2109 11.2891C24.5351 10.6132 23.563 10.5991 22.7052 10.5859C22.2438 10.5789 21.7674 10.5719 21.48 10.4523C21.1671 10.3231 20.8094 9.98037 20.4631 9.64902C19.8566 9.06631 19.1676 8.40625 18.25 8.40625C17.3324 8.40625 16.6442 9.06631 16.0369 9.64902C15.6906 9.98037 15.3338 10.3231 15.02 10.4523C14.7344 10.5719 14.2562 10.5789 13.7948 10.5859C12.937 10.5991 11.9649 10.6132 11.2891 11.2891C10.6132 11.9649 10.6035 12.937 10.5859 13.7948C10.5789 14.2562 10.5719 14.7326 10.4523 15.02C10.3231 15.3329 9.98037 15.6906 9.64902 16.0369C9.06631 16.6434 8.40625 17.3324 8.40625 18.25C8.40625 19.1676 9.06631 19.8558 9.64902 20.4631C9.98037 20.8094 10.3231 21.1662 10.4523 21.48C10.5719 21.7674 10.5789 22.2438 10.5859 22.7052C10.5991 23.563 10.6132 24.5351 11.2891 25.2109C11.9649 25.8868 12.937 25.9009 13.7948 25.9141C14.2562 25.9211 14.7326 25.9281 15.02 26.0477C15.3329 26.1769 15.6906 26.5196 16.0369 26.851C16.6434 27.4337 17.3324 28.0938 18.25 28.0938C19.1676 28.0938 19.8558 27.4337 20.4631 26.851C20.8094 26.5196 21.1662 26.1769 21.48 26.0477C21.7674 25.9281 22.2438 25.9211 22.7052 25.9141C23.563 25.9009 24.5351 25.8868 25.2109 25.2109C25.8868 24.5351 25.9009 23.563 25.9141 22.7052C25.9211 22.2438 25.9281 21.7674 26.0477 21.48C26.1769 21.1671 26.5196 20.8094 26.851 20.4631C27.4337 19.8566 28.0938 19.1676 28.0938 18.25C28.0938 17.3324 27.4337 16.6442 26.851 16.0369ZM19.3047 22.8203C19.3047 23.0289 19.2428 23.2328 19.1269 23.4063C19.011 23.5797 18.8463 23.7149 18.6536 23.7947C18.4609 23.8745 18.2488 23.8954 18.0442 23.8547C17.8397 23.814 17.6517 23.7136 17.5042 23.5661C17.3567 23.4186 17.2563 23.2307 17.2156 23.0261C17.1749 22.8215 17.1958 22.6094 17.2756 22.4167C17.3554 22.224 17.4906 22.0593 17.664 21.9434C17.8375 21.8275 18.0414 21.7656 18.25 21.7656C18.5297 21.7656 18.798 21.8767 18.9958 22.0745C19.1936 22.2723 19.3047 22.5406 19.3047 22.8203ZM21.7656 16.4922C21.7656 18.0197 20.5562 19.2985 18.9531 19.593V19.6562C18.9531 19.8427 18.879 20.0216 18.7472 20.1534C18.6153 20.2853 18.4365 20.3594 18.25 20.3594C18.0635 20.3594 17.8847 20.2853 17.7528 20.1534C17.621 20.0216 17.5469 19.8427 17.5469 19.6562V18.9531C17.5469 18.7666 17.621 18.5878 17.7528 18.4559C17.8847 18.3241 18.0635 18.25 18.25 18.25C19.4128 18.25 20.3594 17.459 20.3594 16.4922C20.3594 15.5254 19.4128 14.7344 18.25 14.7344C17.0872 14.7344 16.1406 15.5254 16.1406 16.4922V16.8438C16.1406 17.0302 16.0665 17.2091 15.9347 17.3409C15.8028 17.4728 15.624 17.5469 15.4375 17.5469C15.251 17.5469 15.0722 17.4728 14.9403 17.3409C14.8085 17.2091 14.7344 17.0302 14.7344 16.8438V16.4922C14.7344 14.7476 16.3111 13.3281 18.25 13.3281C20.1889 13.3281 21.7656 14.7476 21.7656 16.4922Z" fill="#AAD28E"/>
</svg>
