<svg width="37" height="36" viewBox="0 0 37 36" fill="none" xmlns="http://www.w3.org/2000/svg">
<circle cx="18.5" cy="18" r="18" fill="#EAF4E2"/>
<path d="M18.0312 26.4375C22.95 26.4375 26.9375 22.45 26.9375 17.5312C26.9375 12.6125 22.95 8.625 18.0312 8.625C13.1125 8.625 9.125 12.6125 9.125 17.5312C9.125 22.45 13.1125 26.4375 18.0312 26.4375Z" fill="#AAD28E"/>
<path d="M20.8438 16.8281H15.2188C14.8344 16.8281 14.5156 16.5094 14.5156 16.125C14.5156 15.7406 14.8344 15.4219 15.2188 15.4219H20.8438C21.2281 15.4219 21.5469 15.7406 21.5469 16.125C21.5469 16.5094 21.2281 16.8281 20.8438 16.8281Z" fill="#007333"/>
<path d="M18.0312 19.6406H15.2188C14.8344 19.6406 14.5156 19.3219 14.5156 18.9375C14.5156 18.5531 14.8344 18.2344 15.2188 18.2344H18.0312C18.4156 18.2344 18.7344 18.5531 18.7344 18.9375C18.7344 19.3219 18.4156 19.6406 18.0312 19.6406Z" fill="#007333"/>
<path d="M27.2191 27.3734C27.0504 27.3734 26.8816 27.3078 26.7598 27.1859L25.016 25.4422C24.7629 25.1891 24.7629 24.7766 25.016 24.5141C25.2691 24.2609 25.6816 24.2609 25.9441 24.5141L27.6879 26.2578C27.941 26.5109 27.941 26.9234 27.6879 27.1859C27.5566 27.3078 27.3879 27.3734 27.2191 27.3734Z" fill="#007333"/>
</svg>
