<svg width="36" height="36" viewBox="0 0 36 36" fill="none" xmlns="http://www.w3.org/2000/svg">
<circle cx="18" cy="18" r="18" fill="#EAF4E2"/>
<path d="M23.625 24.4336H22.9125C22.1625 24.4336 21.45 24.7242 20.925 25.2492L19.3218 26.8336C18.5906 27.5554 17.4 27.5554 16.6688 26.8336L15.0656 25.2492C14.5406 24.7242 13.8187 24.4336 13.0781 24.4336H12.375C10.8188 24.4336 9.5625 23.1867 9.5625 21.6492V11.4211C9.5625 9.88357 10.8188 8.63672 12.375 8.63672H23.625C25.1812 8.63672 26.4375 9.88357 26.4375 11.4211V21.6492C26.4375 23.1773 25.1812 24.4336 23.625 24.4336Z" fill="#AAD28E"/>
<path d="M17.9998 16.5093C19.2062 16.5093 20.1842 15.5314 20.1842 14.325C20.1842 13.1186 19.2062 12.1406 17.9998 12.1406C16.7934 12.1406 15.8154 13.1186 15.8154 14.325C15.8154 15.5314 16.7934 16.5093 17.9998 16.5093Z" fill="#007333"/>
<path d="M20.5119 20.8688C21.2712 20.8688 21.7119 20.025 21.29 19.3969C20.6525 18.45 19.415 17.8125 17.9994 17.8125C16.5837 17.8125 15.3462 18.45 14.7087 19.3969C14.2869 20.025 14.7275 20.8688 15.4869 20.8688H20.5119Z" fill="#007333"/>
</svg>
