<svg width="106" height="24" viewBox="0 0 106 24" fill="none" xmlns="http://www.w3.org/2000/svg">
<g clip-path="url(#clip0_1_26)">
<path d="M80.2861 1.63136C78.8606 0.629061 77.2114 0.0798365 75.52 0.0442513C75.52 0.0442513 69.171 -0.0536318 69.143 0.0442513C69.1156 0.142134 69.143 23.7226 69.2023 23.7855C69.2617 23.8485 73.4628 23.9673 73.6574 23.8089L73.7065 14.6358C76.881 14.6847 77.6663 14.4238 78.7859 14.0578C79.768 13.7339 82.6846 11.8858 82.9088 8.38997C83.0589 6.01978 82.2229 3.02968 80.2861 1.63136ZM78.4829 8.85606C78.2905 9.17673 78.0389 9.44947 77.745 9.65655C77.4505 9.86369 77.1201 10.0007 76.7749 10.0586C75.9012 10.2124 73.7721 10.245 73.6723 10.1425C73.573 10.04 73.6346 4.01551 73.7487 3.91763C73.8629 3.81974 75.2045 3.8244 75.6536 3.86635C76.2356 3.92229 76.9655 4.00152 77.6811 4.76595C78.3961 5.53037 78.5445 5.838 78.6735 6.77957C78.7944 7.58824 78.6929 8.42024 78.4829 8.85606Z" fill="white"/>
<path d="M57.9913 1.63136C56.5652 0.628877 54.915 0.0796507 53.2232 0.0442513C53.2232 0.0442513 46.8738 -0.0536318 46.8483 0.0442513C46.823 0.142134 46.8484 23.7226 46.9076 23.7855C46.9669 23.8485 51.1681 23.9673 51.3522 23.8089L51.3988 14.6358C54.5735 14.6847 55.3608 14.4238 56.4783 14.0578C57.4583 13.7362 60.3789 11.8905 60.6015 8.4016C60.7641 6.01978 59.9281 3.02968 57.9913 1.63136ZM56.1883 8.85606C55.9957 9.17673 55.7442 9.44947 55.4501 9.65655C55.1558 9.86369 54.8256 10.0007 54.4804 10.0586C53.6062 10.2124 51.475 10.245 51.3776 10.1425C51.2803 10.04 51.3374 4.01551 51.4538 3.91763C51.5702 3.81974 52.9099 3.8244 53.3586 3.86635C53.9406 3.92229 54.6687 4.00152 55.3841 4.76595C56.0995 5.53037 56.2497 5.838 56.3788 6.77957C56.4995 7.58824 56.3979 8.42024 56.1883 8.85606Z" fill="white"/>
<path d="M11.9331 1.73164C10.5057 0.733311 8.85544 0.188886 7.16471 0.158519C7.16471 0.158519 0.81319 0.0583056 0.789909 0.156189C0.766628 0.254072 0.789909 23.8322 0.84917 23.8951C0.908431 23.9581 5.10962 24.0769 5.30433 23.9208L5.35089 14.7454C8.5256 14.7967 9.31293 14.5334 10.4304 14.1674C11.4104 13.8458 14.3311 12.0001 14.5533 8.5112C14.7057 6.13405 13.8696 3.14395 11.9331 1.73164ZM10.1299 8.95637C9.93666 9.27717 9.68477 9.55003 9.39025 9.75748C9.0958 9.96498 8.76528 10.1025 8.41975 10.1612C7.54779 10.3127 5.4165 10.3454 5.31915 10.2428C5.22179 10.1402 5.27893 4.11579 5.39534 4.02024C5.51174 3.92469 6.85148 3.92469 7.30019 3.96663C7.88219 4.02257 8.61023 4.10181 9.3256 4.86623C10.041 5.63065 10.1891 5.93828 10.3183 6.87982C10.441 7.69083 10.3394 8.53218 10.1299 8.95865V8.95637Z" fill="white"/>
<path d="M38.3106 8.95157C37.9868 3.00637 35.1529 0.0558929 30.2765 0.0558929C25.487 0.0558929 22.3525 2.69408 22.1006 8.95157C21.8318 15.6753 25.3812 17.9219 30.1707 17.9219C34.9603 17.9219 38.6747 15.6683 38.3106 8.95157ZM30.0014 14.3934C27.1632 14.3934 26.6722 12.2004 26.6722 8.70456C26.6722 5.56764 27.5696 3.02268 30.1241 2.97141C32.9285 2.91315 33.5232 5.57696 33.5232 8.71391C33.5232 12.2679 33.4364 14.3934 30.0014 14.3934Z" fill="white"/>
<path d="M32.027 22.583C32.0093 22.8023 31.9502 23.0151 31.8534 23.2076C31.7811 23.3562 31.6727 23.4797 31.5401 23.5642L31.3941 23.6737C31.1357 23.8185 30.8537 23.9049 30.5645 23.9278C30.5313 23.93 30.4981 23.93 30.465 23.9278C30.253 23.9372 30.0407 23.9278 29.8301 23.8998C29.4707 23.8415 29.142 23.644 28.903 23.3428C28.8081 23.2188 28.7362 23.0755 28.6914 22.921C28.6501 22.7944 28.6273 22.6615 28.6237 22.5271C28.6237 22.4642 28.6237 22.3989 28.6237 22.343C28.6248 22.3205 28.6248 22.2979 28.6237 22.2754C28.6237 22.2334 28.6237 22.1915 28.6237 22.1519C28.6237 22.0633 28.6237 21.9817 28.6364 21.8978C28.6546 21.7338 28.6901 21.5727 28.7422 21.4178C28.7874 21.2887 28.8448 21.1652 28.9136 21.0495C29.0209 20.8774 29.1667 20.7385 29.3369 20.6463C29.5299 20.5384 29.7382 20.4674 29.9528 20.4366C30.2739 20.3981 30.5983 20.4114 30.9158 20.4762C31.0458 20.5202 31.1719 20.5772 31.2925 20.6463C31.4586 20.7185 31.6046 20.8375 31.7159 20.9913C31.8193 21.1195 31.8985 21.2693 31.9486 21.4318C32.0063 21.6398 32.039 21.8553 32.046 22.0726C32.0524 22.21 32.0524 22.3478 32.046 22.4852C32.046 22.5084 32.046 22.5318 32.046 22.5574" fill="white"/>
<path d="M88.9258 0.293704C89.0194 0.139888 93.2776 0.0606494 93.6183 0.228449C94.0268 0.424215 97.3498 8.6184 97.6396 8.67667C97.8297 8.7163 100.795 0.324001 100.945 0.228449C101.157 0.0956076 105.684 0.0513273 105.773 0.228449C105.906 0.48947 99.9953 13.184 99.8281 14.4262C99.7305 15.1673 100.082 23.6132 99.8281 23.8206C99.6501 23.9674 95.5356 24.1352 95.5824 23.8206C95.7006 23.0189 95.4974 15.4003 95.4341 14.9202C95.195 13.1397 88.8031 0.496462 88.9258 0.293704Z" fill="white"/>
</g>
<defs>
<clipPath id="clip0_1_26">
<rect width="105" height="24" fill="white" transform="translate(0.777145)"/>
</clipPath>
</defs>
</svg>
