<svg width="118" height="40" viewBox="0 0 118 40" fill="none" xmlns="http://www.w3.org/2000/svg">
<g clip-path="url(#clip0_1_65)">
<path d="M2.73959 19.301V21.3459C2.73959 22.4309 3.01347 23.3907 4.06685 23.3907C5.18344 23.3907 5.30985 22.3891 5.30985 21.3876V21.325H8.02757V21.3876C8.02757 22.8482 7.73263 25.7277 4.10899 25.7277C0.527485 25.7277 0.000793457 23.5159 0.000793457 20.7199V16.1294C0.000793457 14.2097 0.590688 11.3302 4.10899 11.3302C7.1006 11.3302 8.09078 13.3542 8.09078 16.1085V19.2801L2.73959 19.301ZM5.41518 17.1101V15.6912C5.41518 14.3975 5.12024 13.6881 4.10899 13.6881C3.20308 13.6881 2.78173 14.3349 2.78173 15.6912V17.1101H5.41518Z" fill="white"/>
<path d="M11.9883 11.5597C12.4518 14.314 13.2313 19.3844 13.6105 22.41H13.6316C13.8844 19.4679 14.8746 14.4392 15.317 11.5597H18.119L15.1274 25.519H11.9672L8.9967 11.5597H11.9883Z" fill="white"/>
<path d="M21.7216 19.301V21.3459C21.7216 22.4309 21.9955 23.3907 23.0488 23.3907C24.1654 23.3907 24.2918 22.3891 24.2918 21.3876V21.325H27.0096V21.3876C27.0096 22.8482 26.7146 25.7277 23.091 25.7277C19.5095 25.7277 18.9828 23.5159 18.9828 20.7199V16.1294C18.9828 14.2097 19.5727 11.3302 23.091 11.3302C26.0826 11.3302 27.0728 13.3542 27.0728 16.1085V19.2801L21.7216 19.301ZM24.3972 17.1101V15.6912C24.3972 14.3975 24.1022 13.6881 23.091 13.6881C22.1851 13.6881 21.7637 14.3349 21.7637 15.6912V17.1101H24.3972Z" fill="white"/>
<path d="M28.9688 15.879C28.9688 13.0412 28.9688 12.2066 28.9478 11.5597H31.6234C31.6866 11.8936 31.7287 12.457 31.7287 12.8325C32.129 12.0188 32.9085 11.3511 34.3411 11.3511C36.0476 11.3511 37.2273 12.3944 37.2273 15.0235V25.5399H34.4253V15.566C34.4253 14.2932 33.9829 13.8758 33.2034 13.8758C32.2343 13.8758 31.7919 14.3975 31.7919 16.2963V25.5399H28.9899L28.9688 15.879Z" fill="white"/>
<path d="M38.3229 11.5597H39.8187V8.22118H42.6207V11.5597H44.3904V14.0219H42.6207V22.264C42.6207 22.9108 42.705 23.4533 43.5477 23.4533C43.8005 23.4533 44.1797 23.4324 44.3061 23.3698V25.4356C43.8426 25.686 43.1263 25.7277 42.5996 25.7277C40.851 25.7277 39.8187 25.1643 39.8187 22.7439V14.0219H38.3229V11.5597Z" fill="white"/>
<path d="M63.1827 11.6015H64.6785V8.26292H67.4805V11.6015H69.2502V14.0636H67.4805V22.3057C67.4805 22.9525 67.5648 23.4951 68.4075 23.4951C68.6603 23.4951 69.0395 23.4742 69.166 23.4116V25.4773C68.7025 25.7277 67.9862 25.7694 67.4595 25.7694C65.7109 25.7694 64.6785 25.2061 64.6785 22.7856V14.0636H63.1827V11.6015Z" fill="white"/>
<path d="M70.7039 11.6015H73.5059V25.5608H70.7039V11.6015ZM70.725 6.78143H73.527V9.7444H70.725V6.78143Z" fill="white"/>
<path d="M83.2392 20.9285V21.1163C83.2392 23.6411 82.5861 25.7694 79.3206 25.7694C76.0762 25.7694 75.4863 23.6202 75.4863 20.7407V15.9624C75.4863 13.6672 76.2447 11.3719 79.4681 11.3719C82.9232 11.3719 83.2602 13.855 83.2602 15.566V16.1085H80.5214V15.5243C80.5214 14.4392 80.3318 13.7089 79.4259 13.7089C78.6043 13.7089 78.3093 14.3558 78.3093 15.5451V21.5754C78.3093 22.5352 78.4989 23.4116 79.4259 23.4116C80.3318 23.4116 80.5214 22.7021 80.5214 21.5754V20.9077H83.2392V20.9285Z" fill="white"/>
<path d="M87.7055 17.6526H87.7687C88.4007 16.0876 89.6016 13.3333 90.2757 11.6223H93.2463C92.3404 13.5003 91.4555 15.2113 90.655 16.7971L93.5202 25.5816H90.4443L88.6957 19.4888C88.4218 20.0104 87.9583 20.9494 87.7265 21.4085V25.5816H84.9456V6.8023H87.7265V17.6526H87.7055Z" fill="white"/>
<path d="M96.8489 19.3427V21.3876C96.8489 22.4726 97.1228 23.4325 98.1762 23.4325C99.2928 23.4325 99.4192 22.4309 99.4192 21.4293V21.3667H102.137V21.4293C102.137 22.8899 101.842 25.7694 98.2183 25.7694C94.6368 25.7694 94.1101 23.5576 94.1101 20.7616V16.1711C94.1101 14.2514 94.7 11.3719 98.2183 11.3719C101.21 11.3719 102.2 13.3959 102.2 16.1502V19.3219L96.8489 19.3427ZM99.5034 17.1518V15.7329C99.5034 14.4392 99.2085 13.7298 98.1972 13.7298C97.2913 13.7298 96.87 14.3766 96.87 15.7329V17.1518H99.5034Z" fill="white"/>
<path d="M103.127 11.6015H104.623V8.26292H107.425V11.6015H109.194V14.0636H107.425V22.3057C107.425 22.9525 107.509 23.4951 108.352 23.4951C108.605 23.4951 108.984 23.4742 109.11 23.4116V25.4773C108.647 25.7277 107.93 25.7694 107.404 25.7694C105.655 25.7694 104.623 25.2061 104.623 22.7856V14.0636H103.127V11.6015Z" fill="white"/>
<path d="M112.902 21.1998V21.8466C112.902 22.7021 113.155 23.4325 114.04 23.4325C114.798 23.4325 115.136 22.9734 115.136 22.0553C115.136 21.1372 114.883 20.5112 113.176 19.4471C111.238 18.216 110.311 17.1935 110.311 15.1904C110.311 12.8534 111.596 11.3928 114.04 11.3928C116.716 11.3928 117.769 12.8534 117.769 15.3991V15.9624H115.051V15.1069C115.051 14.1471 114.735 13.7298 114.082 13.7298C113.366 13.7298 113.113 14.2514 113.113 14.9609C113.113 15.7329 113.387 16.0876 114.672 16.9014C117.116 18.4664 118.001 19.4679 118.001 21.7214C118.001 24.3923 116.674 25.7694 113.998 25.7694C110.838 25.7694 110.1 23.808 110.1 21.8049V21.1789H112.902V21.1998Z" fill="white"/>
<path d="M75.6127 30.8816C75.3388 30.8816 75.1281 30.9442 74.9385 31.0694C74.7489 31.1946 74.6014 31.3406 74.4961 31.5284C74.3907 31.7162 74.3065 31.9249 74.2433 32.1544C74.2011 32.3839 74.1801 32.6135 74.1801 32.843C74.1801 33.0516 74.2011 33.2812 74.2433 33.5107C74.2854 33.7402 74.3697 33.9489 74.475 34.1367C74.5803 34.3245 74.7278 34.4705 74.9174 34.5957C75.107 34.7209 75.3177 34.7627 75.5705 34.7627C75.9708 34.7627 76.2868 34.6583 76.4975 34.4288C76.7082 34.1993 76.8556 33.9071 76.8978 33.5316H78.52C78.4147 34.3453 78.0986 34.9504 77.5719 35.3678C77.0453 35.7851 76.3922 35.9937 75.5705 35.9937C75.107 35.9937 74.6857 35.9103 74.3065 35.7642C73.9272 35.6182 73.5902 35.3886 73.3373 35.1174C73.0635 34.8461 72.8528 34.5123 72.7053 34.1367C72.5578 33.7611 72.4736 33.3438 72.4736 32.8847C72.4736 32.4257 72.5368 31.9875 72.6842 31.5702C72.8317 31.1737 73.0213 30.819 73.2952 30.5269C73.5691 30.2347 73.8851 30.0052 74.2854 29.8383C74.6646 29.6714 75.107 29.5879 75.6127 29.5879C75.9708 29.5879 76.329 29.6296 76.666 29.734C77.0031 29.8174 77.2981 29.9635 77.5719 30.1721C77.8458 30.3599 78.0565 30.6103 78.225 30.8816C78.3936 31.1737 78.4779 31.5076 78.4989 31.904H76.8556C76.7503 31.2363 76.329 30.8816 75.6127 30.8816Z" fill="white"/>
<path d="M83.0706 34.4079C83.3234 34.6583 83.6816 34.7627 84.1661 34.7627C84.5032 34.7627 84.7982 34.6792 85.051 34.5123C85.3038 34.3453 85.4513 34.1575 85.4934 33.9697H86.9681C86.7364 34.7001 86.3782 35.2217 85.8726 35.5347C85.3881 35.8477 84.7982 35.9937 84.1029 35.9937C83.6184 35.9937 83.197 35.9103 82.7967 35.7642C82.4175 35.6182 82.0804 35.3886 81.8066 35.1174C81.5327 34.8461 81.322 34.4914 81.1956 34.1158C81.0481 33.7194 80.9849 33.302 80.9849 32.8221C80.9849 32.3631 81.0692 31.9458 81.2167 31.5493C81.3641 31.1528 81.5748 30.819 81.8487 30.5269C82.1226 30.2347 82.4597 30.0261 82.8389 29.8592C83.2181 29.6922 83.6395 29.6088 84.1029 29.6088C84.6296 29.6088 85.0721 29.7131 85.4723 29.9009C85.8516 30.1095 86.1676 30.3599 86.4204 30.6938C86.6732 31.0277 86.8417 31.4032 86.9681 31.8414C87.0735 32.2796 87.1156 32.7178 87.0945 33.1977H82.6703C82.6703 33.7611 82.8178 34.1575 83.0706 34.4079ZM84.9667 31.2154C84.756 31.0068 84.4611 30.8816 84.0397 30.8816C83.7659 30.8816 83.5552 30.9233 83.3656 31.0068C83.197 31.0902 83.0496 31.2154 82.9442 31.3406C82.8389 31.4658 82.7546 31.6119 82.7125 31.758C82.6703 31.904 82.6493 32.0292 82.6282 32.1544H85.367C85.3038 31.758 85.1563 31.4241 84.9667 31.2154Z" fill="white"/>
<path d="M91.4345 29.7966V30.6312H91.4766C91.6873 30.2765 91.9612 30.0261 92.2982 29.8592C92.6353 29.6922 92.9935 29.6088 93.3305 29.6088C93.773 29.6088 94.1522 29.6714 94.4471 29.7966C94.7421 29.9218 94.9528 30.0887 95.1213 30.2973C95.2898 30.506 95.3952 30.7773 95.4795 31.0902C95.5427 31.4032 95.5848 31.7371 95.5848 32.1127V35.8477H93.8994V32.4257C93.8994 31.9249 93.8151 31.5493 93.6676 31.2989C93.5202 31.0485 93.2252 30.9233 92.8249 30.9233C92.3614 30.9233 92.0454 31.0485 91.8347 31.3198C91.6241 31.591 91.5187 32.0292 91.5187 32.6552V35.8268H89.8333V29.7757H91.4345V29.7966Z" fill="white"/>
<path d="M101.989 29.7966V30.9025H100.767V33.9071C100.767 34.1784 100.81 34.3662 100.915 34.4705C100.999 34.554 101.189 34.6166 101.484 34.6166C101.568 34.6166 101.673 34.6166 101.758 34.5957C101.842 34.5957 101.926 34.5749 102.01 34.554V35.8477C101.863 35.8685 101.715 35.8894 101.547 35.8894C101.378 35.8894 101.21 35.9103 101.041 35.9103C100.789 35.9103 100.536 35.8894 100.304 35.8477C100.072 35.8059 99.8615 35.7434 99.693 35.639C99.5244 35.5347 99.377 35.3886 99.2716 35.2008C99.1663 35.013 99.1242 34.7627 99.1242 34.4705V30.9025H98.1129V29.7966H99.1242V27.9812H100.81V29.7966H101.989Z" fill="white"/>
<path d="M106.371 34.4079C106.624 34.6583 106.982 34.7627 107.467 34.7627C107.804 34.7627 108.099 34.6792 108.352 34.5123C108.605 34.3453 108.752 34.1575 108.794 33.9697H110.269C110.037 34.7001 109.679 35.2217 109.173 35.5347C108.689 35.8477 108.099 35.9937 107.404 35.9937C106.919 35.9937 106.498 35.9103 106.098 35.7642C105.718 35.6182 105.381 35.3886 105.107 35.1174C104.834 34.8461 104.623 34.4914 104.496 34.1158C104.349 33.7194 104.286 33.302 104.286 32.8221C104.286 32.3631 104.37 31.9458 104.518 31.5493C104.665 31.1528 104.876 30.819 105.15 30.5269C105.423 30.2347 105.761 30.0261 106.14 29.8592C106.519 29.6922 106.94 29.6088 107.404 29.6088C107.93 29.6088 108.373 29.7131 108.773 29.9009C109.152 30.1095 109.468 30.3599 109.721 30.6938C109.974 31.0277 110.143 31.4032 110.269 31.8414C110.374 32.2796 110.416 32.7178 110.395 33.1977H105.971C105.971 33.7611 106.119 34.1575 106.371 34.4079ZM108.268 31.2154C108.057 31.0068 107.762 30.8816 107.341 30.8816C107.067 30.8816 106.856 30.9233 106.666 31.0068C106.498 31.0902 106.35 31.2154 106.245 31.3406C106.14 31.4658 106.055 31.6119 106.013 31.758C105.971 31.904 105.95 32.0292 105.929 32.1544H108.668C108.605 31.758 108.478 31.4241 108.268 31.2154Z" fill="white"/>
<path d="M114.735 29.7966V30.9233H114.756C114.841 30.7355 114.946 30.5686 115.072 30.4017C115.199 30.2347 115.367 30.1095 115.536 29.9844C115.704 29.88 115.894 29.7757 116.084 29.7131C116.273 29.6505 116.484 29.6088 116.695 29.6088C116.8 29.6088 116.926 29.6296 117.053 29.6714V31.2154C116.968 31.1946 116.884 31.1946 116.779 31.1737C116.674 31.1528 116.568 31.1528 116.463 31.1528C116.147 31.1528 115.894 31.1946 115.683 31.2989C115.473 31.4032 115.304 31.5493 115.178 31.7162C115.051 31.8832 114.946 32.0918 114.904 32.3213C114.841 32.5509 114.82 32.8013 114.82 33.0934V35.8268H113.134V29.7757H114.735V29.7966Z" fill="white"/>
<path d="M45.6544 1.69014L51.743 30.7773C52.4593 30.0887 53.7444 29.2123 55.5773 29.0871C56.6728 29.0037 57.9158 29.2749 59.3484 29.9844L60.9285 0L45.6544 1.69014ZM57.5155 18.9463L56.0618 19.1132L56.3568 27.8143L54.7557 27.8978L53.7023 19.3427L51.9115 19.5514L51.6166 18.049L57.5366 17.3605L57.5155 18.9463ZM57.7262 4.98696L53.2177 5.52947L53.4916 8.53417L57.031 8.11685L56.9888 10.2034L53.6812 10.5373L53.9972 13.9593L57.5998 13.542L57.5787 15.7121L51.3006 16.3589L49.3834 3.46375L57.8105 2.33699L57.7262 4.98696Z" fill="white"/>
<path d="M56.0408 31.1528C53.5127 31.1528 51.4902 33.1351 51.4902 35.5764C51.4902 38.0177 53.5337 40 56.0408 40C58.5478 40 60.5914 38.0177 60.5914 35.5764C60.5914 33.1351 58.5478 31.1528 56.0408 31.1528ZM56.0829 38.602C54.4607 38.6646 54.1026 37.9969 54.0604 37.1205L53.9762 34.1575C53.9551 33.2603 54.545 32.6343 55.9355 32.5717C57.5787 32.5091 57.9158 33.2186 57.9369 34.0323V34.3036L56.5886 34.3662L56.5675 33.9906C56.5464 33.5942 56.3989 33.3855 55.9355 33.4064C55.472 33.4272 55.3456 33.6359 55.3456 34.0532L55.4298 37.1414C55.4509 37.517 55.5773 37.8299 56.0829 37.8091C56.5675 37.7882 56.6939 37.517 56.6728 37.0996V36.7658L58.0422 36.7032V36.9327C58.0844 37.6004 57.9369 38.5394 56.0829 38.602Z" fill="white"/>
</g>
<defs>
<clipPath id="clip0_1_65">
<rect width="118" height="40" fill="white" transform="translate(0.000793457)"/>
</clipPath>
</defs>
</svg>
