<svg width="117" height="32" viewBox="0 0 117 32" fill="none" xmlns="http://www.w3.org/2000/svg">
<path fill-rule="evenodd" clip-rule="evenodd" d="M4.80074 4.8C4.3764 4.8 3.96943 4.96857 3.66937 5.26863C3.36932 5.56869 3.20074 5.97566 3.20074 6.4C3.20074 6.82435 3.36932 7.23132 3.66937 7.53137C3.96943 7.83143 4.3764 8 4.80074 8V20.8C4.80074 21.6487 5.13789 22.4626 5.738 23.0627C6.33812 23.6629 7.15205 24 8.00074 24H12.1383L10.0695 26.0688C9.91673 26.2164 9.79484 26.393 9.71098 26.5882C9.62713 26.7834 9.58299 26.9933 9.58114 27.2058C9.5793 27.4182 9.61978 27.6289 9.70023 27.8255C9.78068 28.0222 9.89948 28.2008 10.0497 28.351C10.1999 28.5013 10.3786 28.6201 10.5752 28.7005C10.7719 28.781 10.9825 28.8215 11.195 28.8196C11.4074 28.8178 11.6174 28.7736 11.8126 28.6898C12.0078 28.6059 12.1843 28.484 12.3319 28.3312L16.0007 24.6624L19.6695 28.3312C19.9713 28.6227 20.3755 28.7839 20.795 28.7803C21.2145 28.7766 21.6158 28.6084 21.9125 28.3117C22.2091 28.0151 22.3774 27.6138 22.381 27.1942C22.3847 26.7747 22.2234 26.3706 21.9319 26.0688L19.8631 24H24.0007C24.8494 24 25.6634 23.6629 26.2635 23.0627C26.8636 22.4626 27.2007 21.6487 27.2007 20.8V8C27.6251 8 28.0321 7.83143 28.3321 7.53137C28.6322 7.23132 28.8007 6.82435 28.8007 6.4C28.8007 5.97566 28.6322 5.56869 28.3321 5.26863C28.0321 4.96857 27.6251 4.8 27.2007 4.8H4.80074ZM22.4007 11.2C22.4007 10.7757 22.2322 10.3687 21.9321 10.0686C21.6321 9.76857 21.2251 9.6 20.8007 9.6C20.3764 9.6 19.9694 9.76857 19.6694 10.0686C19.3693 10.3687 19.2007 10.7757 19.2007 11.2V17.6C19.2007 18.0243 19.3693 18.4313 19.6694 18.7314C19.9694 19.0314 20.3764 19.2 20.8007 19.2C21.2251 19.2 21.6321 19.0314 21.9321 18.7314C22.2322 18.4313 22.4007 18.0243 22.4007 17.6V11.2ZM17.6007 12.8C17.6007 12.3757 17.4322 11.9687 17.1321 11.6686C16.8321 11.3686 16.4251 11.2 16.0007 11.2C15.5764 11.2 15.1694 11.3686 14.8694 11.6686C14.5693 11.9687 14.4007 12.3757 14.4007 12.8V17.6C14.4007 18.0243 14.5693 18.4313 14.8694 18.7314C15.1694 19.0314 15.5764 19.2 16.0007 19.2C16.4251 19.2 16.8321 19.0314 17.1321 18.7314C17.4322 18.4313 17.6007 18.0243 17.6007 17.6V12.8ZM12.8007 14.4C12.8007 13.9757 12.6322 13.5687 12.3321 13.2686C12.0321 12.9686 11.6251 12.8 11.2007 12.8C10.7764 12.8 10.3694 12.9686 10.0694 13.2686C9.76932 13.5687 9.60074 13.9757 9.60074 14.4V17.6C9.60074 18.0243 9.76932 18.4313 10.0694 18.7314C10.3694 19.0314 10.7764 19.2 11.2007 19.2C11.6251 19.2 12.0321 19.0314 12.3321 18.7314C12.6322 18.4313 12.8007 18.0243 12.8007 17.6V14.4Z" fill="white"/>
<path d="M45.1556 12.6378C45.0987 12.0649 44.8549 11.6198 44.424 11.3026C43.9932 10.9853 43.4084 10.8267 42.6698 10.8267C42.1679 10.8267 41.7441 10.8977 41.3985 11.0398C41.0528 11.1771 40.7877 11.3688 40.603 11.6151C40.4231 11.8613 40.3331 12.1406 40.3331 12.4531C40.3236 12.7135 40.3781 12.9408 40.4965 13.1349C40.6196 13.3291 40.7877 13.4972 41.0007 13.6392C41.2138 13.7765 41.46 13.8973 41.7394 14.0014C42.0187 14.1009 42.317 14.1861 42.6343 14.2571L43.9411 14.5696C44.5755 14.7116 45.1579 14.901 45.6882 15.1378C46.2185 15.3745 46.6778 15.6657 47.0661 16.0114C47.4543 16.357 47.755 16.7642 47.9681 17.233C48.1859 17.7017 48.2971 18.2391 48.3019 18.8452C48.2971 19.7353 48.0699 20.5071 47.6201 21.1605C47.175 21.8092 46.531 22.3134 45.6882 22.6733C44.8502 23.0284 43.8393 23.206 42.6556 23.206C41.4813 23.206 40.4586 23.026 39.5874 22.6662C38.7209 22.3063 38.0438 21.7737 37.5561 21.0682C37.0732 20.358 36.8199 19.4796 36.7962 18.4332H39.772C39.8052 18.9209 39.9449 19.3281 40.1911 19.6548C40.442 19.9768 40.7758 20.2206 41.1925 20.3864C41.6139 20.5473 42.0897 20.6278 42.6201 20.6278C43.1409 20.6278 43.5931 20.5521 43.9766 20.4006C44.3648 20.2491 44.6655 20.0384 44.8786 19.7685C45.0916 19.4986 45.1982 19.1884 45.1982 18.8381C45.1982 18.5114 45.1011 18.2367 44.907 18.0142C44.7176 17.7917 44.4382 17.6023 44.0689 17.446C43.7043 17.2898 43.2569 17.1477 42.7266 17.0199L41.1428 16.6222C39.9165 16.3239 38.9482 15.8575 38.2379 15.223C37.5277 14.5885 37.175 13.7339 37.1797 12.6591C37.175 11.7784 37.4093 11.009 37.8828 10.3509C38.3611 9.69271 39.0168 9.17898 39.8502 8.80966C40.6835 8.44034 41.6305 8.25568 42.6911 8.25568C43.7706 8.25568 44.7129 8.44034 45.5178 8.80966C46.3274 9.17898 46.9572 9.69271 47.407 10.3509C47.8568 11.009 48.0888 11.7713 48.103 12.6378H45.1556ZM53.3392 8.45455V23H50.3136V8.45455H53.3392ZM55.7628 23V12.0909H58.7884V23H55.7628ZM57.2827 10.6847C56.8329 10.6847 56.447 10.5355 56.125 10.2372C55.8078 9.93419 55.6492 9.57197 55.6492 9.15057C55.6492 8.7339 55.8078 8.37642 56.125 8.07812C56.447 7.77509 56.8329 7.62358 57.2827 7.62358C57.7325 7.62358 58.116 7.77509 58.4333 8.07812C58.7552 8.37642 58.9162 8.7339 58.9162 9.15057C58.9162 9.57197 58.7552 9.93419 58.4333 10.2372C58.116 10.5355 57.7325 10.6847 57.2827 10.6847ZM65.2319 23.1776C64.4033 23.1776 63.6528 22.9645 62.9805 22.5384C62.3129 22.1075 61.7826 21.4754 61.3896 20.642C61.0013 19.804 60.8072 18.7765 60.8072 17.5597C60.8072 16.3097 61.0084 15.2704 61.4109 14.4418C61.8134 13.6084 62.3484 12.9858 63.016 12.5739C63.6884 12.1572 64.4246 11.9489 65.2248 11.9489C65.8356 11.9489 66.3446 12.053 66.7518 12.2614C67.1637 12.465 67.4952 12.7206 67.7461 13.0284C68.0018 13.3314 68.1959 13.6297 68.3285 13.9233H68.4208V8.45455H71.4393V23H68.4563V21.2528H68.3285C68.1865 21.5559 67.9852 21.8565 67.7248 22.1548C67.4691 22.4484 67.1353 22.6922 66.7234 22.8864C66.3162 23.0805 65.819 23.1776 65.2319 23.1776ZM66.1907 20.7699C66.6784 20.7699 67.0903 20.6373 67.4265 20.3722C67.7674 20.1023 68.0278 19.7259 68.2078 19.2429C68.3924 18.7599 68.4848 18.1941 68.4848 17.5455C68.4848 16.8968 68.3948 16.3333 68.2149 15.8551C68.0349 15.3769 67.7745 15.0076 67.4336 14.7472C67.0927 14.4867 66.6784 14.3565 66.1907 14.3565C65.6936 14.3565 65.2745 14.4915 64.9336 14.7614C64.5927 15.0312 64.3347 15.4053 64.1595 15.8835C63.9843 16.3617 63.8967 16.9157 63.8967 17.5455C63.8967 18.1799 63.9843 18.741 64.1595 19.2287C64.3394 19.7116 64.5974 20.0904 64.9336 20.3651C65.2745 20.6349 65.6936 20.7699 66.1907 20.7699ZM78.8985 23.2131C77.7763 23.2131 76.8104 22.9858 76.0007 22.5312C75.1958 22.072 74.5755 21.4233 74.1399 20.5852C73.7043 19.7424 73.4865 18.7457 73.4865 17.5952C73.4865 16.473 73.7043 15.4882 74.1399 14.6406C74.5755 13.7931 75.1887 13.1326 75.9794 12.6591C76.7749 12.1856 77.7076 11.9489 78.7777 11.9489C79.4974 11.9489 80.1674 12.0649 80.7877 12.2969C81.4127 12.5241 81.9572 12.8674 82.4212 13.3267C82.8899 13.786 83.2545 14.3636 83.5149 15.0597C83.7754 15.7509 83.9056 16.5606 83.9056 17.4886V18.3196H74.6939V16.4446H81.0576C81.0576 16.009 80.9629 15.6231 80.7735 15.2869C80.5841 14.9508 80.3213 14.688 79.9851 14.4986C79.6537 14.3045 79.2678 14.2074 78.8274 14.2074C78.3682 14.2074 77.961 14.3139 77.6058 14.527C77.2555 14.7353 76.9808 15.017 76.782 15.3722C76.5831 15.7225 76.4813 16.1132 76.4766 16.544V18.3267C76.4766 18.8665 76.576 19.3329 76.7749 19.7259C76.9785 20.1188 77.2649 20.4219 77.6343 20.6349C78.0036 20.848 78.4415 20.9545 78.9482 20.9545C79.2844 20.9545 79.5921 20.9072 79.8715 20.8125C80.1508 20.7178 80.3899 20.5758 80.5888 20.3864C80.7877 20.197 80.9392 19.965 81.0433 19.6903L83.8416 19.875C83.6996 20.5473 83.4084 21.1345 82.9681 21.6364C82.5325 22.1335 81.969 22.5218 81.2777 22.8011C80.5912 23.0758 79.7981 23.2131 78.8985 23.2131ZM94.9567 15.2017L92.1868 15.3722C92.1395 15.1354 92.0377 14.9223 91.8814 14.733C91.7252 14.5388 91.5192 14.3849 91.2635 14.2713C91.0126 14.1529 90.7119 14.0938 90.3615 14.0938C89.8928 14.0938 89.4974 14.1932 89.1754 14.392C88.8535 14.5862 88.6925 14.8466 88.6925 15.1733C88.6925 15.4337 88.7967 15.6539 89.005 15.8338C89.2133 16.0137 89.5708 16.1581 90.0774 16.267L92.0519 16.6648C93.1125 16.8826 93.9032 17.233 94.424 17.7159C94.9449 18.1989 95.2053 18.8333 95.2053 19.6193C95.2053 20.3343 94.9946 20.9616 94.5732 21.5014C94.1565 22.0412 93.5836 22.4626 92.8544 22.7656C92.13 23.0639 91.2943 23.2131 90.3473 23.2131C88.9032 23.2131 87.7526 22.9124 86.8956 22.3111C86.0433 21.705 85.5438 20.8812 85.397 19.8395L88.3729 19.6832C88.4629 20.1236 88.6807 20.4598 89.0263 20.6918C89.3719 20.919 89.8147 21.0327 90.3544 21.0327C90.8847 21.0327 91.3109 20.9309 91.6328 20.7273C91.9595 20.5189 92.1253 20.2514 92.13 19.9247C92.1253 19.6501 92.0093 19.4252 91.782 19.25C91.5547 19.0701 91.2043 18.9328 90.7308 18.8381L88.8416 18.4616C87.7763 18.2486 86.9832 17.8793 86.4624 17.3537C85.9463 16.8281 85.6882 16.1581 85.6882 15.3438C85.6882 14.643 85.8776 14.0393 86.2564 13.5327C86.6399 13.026 87.1773 12.6354 87.8686 12.3608C88.5647 12.0862 89.379 11.9489 90.3118 11.9489C91.6897 11.9489 92.7739 12.2401 93.5647 12.8224C94.3601 13.4048 94.8241 14.1979 94.9567 15.2017ZM99.6744 23H96.3789L101.4 8.45455H105.363L110.378 23H107.082L103.439 11.7784H103.325L99.6744 23ZM99.4684 17.2827H107.253V19.6832H99.4684V17.2827ZM115.204 8.45455V23H112.128V8.45455H115.204Z" fill="white"/>
</svg>
