<svg width="73" height="32" viewBox="0 0 73 32" fill="none" xmlns="http://www.w3.org/2000/svg">
<g clip-path="url(#clip0_1_101)">
<path fill-rule="evenodd" clip-rule="evenodd" d="M11.1013 16.4188C10.6624 19.3517 10.2336 22.2866 9.78066 25.2173C9.50171 27.022 9.2129 28.8267 8.85762 30.6164C8.80005 30.9069 8.40246 31.2837 8.11269 31.3365C7.35854 31.4744 6.57736 31.4537 5.80698 31.4977C5.34037 31.5243 5.07446 31.3195 4.97077 30.8291C4.51338 28.6665 4.01433 26.5132 3.5738 24.3471C2.68351 19.9679 1.81963 15.5827 0.948746 11.1993C0.634809 9.61905 0.33264 8.03655 0.0228372 6.45568C-0.0627243 6.01944 0.0998107 5.66853 0.515531 5.64457C1.69844 5.57761 2.88708 5.53494 4.07031 5.57958C4.59386 5.5996 4.69055 6.14942 4.75194 6.60701C5.12567 9.37647 5.46219 12.1515 5.87346 14.9147C6.15845 16.8265 6.54459 18.7221 6.99308 20.6283C7.15752 19.504 7.32133 18.3804 7.48609 17.2562C7.84106 14.8307 8.21893 12.4082 8.54082 9.97783C8.67632 8.95631 8.69127 7.91772 8.76474 6.88701C8.81977 6.11824 9.04719 5.79819 9.77048 5.7437C10.6188 5.68002 11.4757 5.70858 12.3275 5.7332C12.893 5.74961 13.1099 6.19013 13.1952 6.68086C13.5256 8.58571 13.8669 10.4896 14.1456 12.403C14.5266 15.0175 14.853 17.6406 15.2063 20.2593C15.2254 20.3992 15.2779 20.5341 15.4169 20.6779C15.5756 19.8418 15.7763 19.0117 15.8854 18.1694C16.2747 15.1622 16.6345 12.1515 17.0015 9.14177C17.0951 8.373 17.1517 7.59866 17.2636 6.83285C17.3899 5.96527 17.7668 5.64227 18.6075 5.63932C19.4205 5.63637 20.2341 5.6577 21.0474 5.66C21.8735 5.66197 22.0875 5.92884 21.9231 6.74914C21.6196 8.26501 21.3016 9.77792 21.0274 11.2994C20.0703 16.6085 19.1266 21.92 18.1841 27.2318C17.9892 28.3304 17.8187 29.4333 17.6386 30.5343C17.5582 31.0283 17.2754 31.2985 16.7951 31.3277C16.0461 31.3736 15.2967 31.4239 14.547 31.4373C13.7238 31.4521 13.4369 31.1659 13.3167 30.3071C13.0097 28.1161 12.7044 25.925 12.3889 23.7359C12.0603 21.4585 11.7209 19.183 11.3837 16.9072C11.3593 16.7431 11.3112 16.5829 11.274 16.4208C11.2164 16.4201 11.1592 16.4195 11.1013 16.4188ZM34.3976 16.6028C34.1244 18.2726 33.8566 19.9434 33.576 21.6116C33.2939 23.287 32.9854 24.9575 32.7147 26.6345C32.5197 27.8435 32.3601 29.0587 32.2001 30.2732C32.1062 30.9878 31.8384 31.2557 31.1402 31.2455C30.3893 31.2343 29.6332 31.256 28.8912 31.1654C28.6208 31.1326 28.2153 30.8621 28.158 30.6258C27.8237 29.2586 27.5756 27.8691 27.2979 26.4871C27.0441 25.2244 26.7804 23.9632 26.5371 22.6981C26.0746 20.293 25.6452 17.881 25.1614 15.4802C24.7543 13.4595 24.2826 11.4525 23.8526 9.43641C23.6598 8.53372 23.4753 7.62774 23.3306 6.71586C23.2199 6.01701 23.4445 5.70057 24.1102 5.70878C25.1299 5.72224 26.1561 5.77574 27.1618 5.93133C27.4077 5.96941 27.7159 6.44505 27.7747 6.7628C28.0912 8.4743 28.317 10.2032 28.6144 11.9187C29.0515 14.4393 29.5238 16.9534 29.9793 19.4708C30.0251 19.7235 30.0601 19.9782 30.2169 20.2579C30.2531 20.0544 30.2926 19.8515 30.3241 19.647C30.9914 15.3574 31.6638 11.0688 32.3168 6.77658C32.4116 6.15454 32.5092 5.72289 33.3098 5.83975C34.064 5.95004 34.8445 5.86831 35.6133 5.87028C35.988 5.87126 36.1518 6.04852 36.2119 6.44866C36.8201 10.4891 37.4346 14.5289 38.0806 18.5631C38.2113 19.3802 38.4836 20.1735 38.823 20.9673C38.9451 20.2989 39.0956 19.6346 39.1843 18.9616C39.7279 14.8467 40.2556 10.7297 40.7922 6.6141C40.9073 5.7334 41.1354 5.55122 41.976 5.58404C42.768 5.61457 43.5613 5.61457 44.3533 5.64674C45.0438 5.67464 45.241 5.86076 45.1348 6.55206C44.7887 8.8019 44.3679 11.0396 44.0343 13.2911C43.4541 17.2081 42.6526 21.0753 41.7645 24.9293C41.3755 26.6184 41.2279 28.3667 40.9674 30.0877C40.8227 31.0456 40.5215 31.2964 39.5994 31.2951C39.0408 31.2944 38.4817 31.3259 37.9238 31.3607C37.1229 31.4103 36.6827 31.0508 36.5777 30.2798C36.1375 27.0416 35.6989 23.803 35.2377 20.5681C35.0471 19.2308 34.8016 17.902 34.5808 16.5693C34.5198 16.5805 34.4587 16.5917 34.3976 16.6028Z" fill="white"/>
<path fill-rule="evenodd" clip-rule="evenodd" d="M52.07 16.9762C52.8618 16.9762 53.5965 17.0709 54.2977 16.9563C55.6947 16.728 56.9075 16.1467 57.1954 14.5434C57.3047 13.9342 57.2946 13.2849 57.231 12.6655C57.0901 11.2918 56.0211 9.59803 54.1861 9.64871C53.7182 9.66163 53.2502 9.70039 52.7826 9.69641C52.3883 9.69343 52.2875 9.88358 52.2742 10.2546C52.2213 11.7284 52.129 13.2005 52.0749 14.6739C52.0475 15.4249 52.07 16.1778 52.07 16.9762ZM51.9934 20.6465C51.9934 22.7649 51.98 24.8015 51.9983 26.8377C52.009 28.0531 52.0788 29.2679 52.1052 30.4836C52.1202 31.1623 51.9516 31.2932 51.2704 31.3051C50.4806 31.319 49.6917 31.3902 48.9019 31.4002C47.8782 31.4134 47.6226 31.1342 47.6369 30.0864C47.647 29.3712 47.6731 28.6563 47.6777 27.9415C47.7008 24.4431 47.7266 20.9446 47.7361 17.4459C47.7462 13.7311 47.7432 10.0161 47.7338 6.30101C47.7328 5.80114 47.9653 5.55601 48.4209 5.56131C50.7477 5.58814 53.0855 5.49837 55.3983 5.70044C59.5558 6.06416 62.0942 9.96805 61.6559 13.4251C61.3497 15.837 60.4689 17.8484 58.5726 19.3513C58.2396 19.6153 58.2178 19.8293 58.3515 20.2189C59.5128 23.6 60.6505 26.9898 61.7864 30.3799C62.0117 31.053 61.7502 31.4442 61.0471 31.4661C60.0456 31.4972 59.0428 31.4879 58.0407 31.4999C57.4899 31.5068 57.1967 31.2306 57.0275 30.6999C56.0338 27.5821 55.0024 24.4769 54.025 21.3537C53.8391 20.7595 53.5558 20.5485 52.973 20.6396C52.7069 20.681 52.4297 20.6465 51.9934 20.6465Z" fill="white"/>
<path fill-rule="evenodd" clip-rule="evenodd" d="M65.9389 0.908534C66.3985 0.699914 66.8792 0.533758 67.3762 0.511263C67.8371 0.490323 68.3142 0.492786 68.7743 0.569349C69.1714 0.635475 69.8331 0.882148 70.1823 1.06406C71.147 1.56674 71.3214 1.80272 71.6489 2.31837C72.0097 2.88659 72.2654 3.54519 72.3302 3.65682C72.5789 4.3206 72.5681 4.90497 72.5499 5.55054C72.5299 6.26378 72.2923 6.94105 71.9833 7.57981C71.5254 8.52663 70.8547 9.31164 69.9582 9.82418C69.1795 10.2694 68.3031 10.3825 67.3891 10.284C66.3491 10.1719 65.4231 9.82541 64.5948 9.21012C64.2014 8.91787 64.0141 8.44242 63.7527 8.03121C63.3069 7.33015 63.0627 6.5996 62.9795 5.77342C62.9162 5.14451 62.9817 4.54822 63.1529 3.88294C63.6121 2.5087 64.5798 1.52544 65.9389 0.908534Z" fill="white"/>
</g>
<defs>
<clipPath id="clip0_1_101">
<rect width="73" height="31" fill="white" transform="translate(0.000732422 0.5)"/>
</clipPath>
</defs>
</svg>
