<svg width="139" height="24" viewBox="0 0 139 24" fill="none" xmlns="http://www.w3.org/2000/svg">
<path fill-rule="evenodd" clip-rule="evenodd" d="M18.7026 9.8085L12.3123 16.2096L5.92194 9.8085C4.74491 8.62879 2.83695 8.62879 1.65993 9.8085C0.482905 10.9882 0.482905 12.8989 1.65993 14.0759L10.1759 22.6053C10.1759 22.6053 10.1786 22.6107 10.1813 22.6107C10.622 23.0514 11.1675 23.3282 11.7372 23.4383C12.6858 23.6238 13.707 23.347 14.4433 22.6107C14.4433 22.6107 14.446 22.6053 14.4486 22.6053L22.9646 14.0759C24.1416 12.8962 24.1416 10.9855 22.9646 9.8085C21.7876 8.62879 19.8796 8.62879 18.7026 9.8085Z" fill="white"/>
<path d="M12.3044 7.10514C14.124 7.10514 15.599 5.62769 15.599 3.80517C15.599 1.98265 14.124 0.505203 12.3044 0.505203C10.4849 0.505203 9.00983 1.98265 9.00983 3.80517C9.00983 5.62769 10.4849 7.10514 12.3044 7.10514Z" fill="white"/>
<path fill-rule="evenodd" clip-rule="evenodd" d="M54.6395 0.505203H48.7732C48.5636 0.505203 48.3029 0.749746 48.3029 1.01041V11.2946L42.5656 0.945919C42.4366 0.653007 42.1759 0.507893 41.8024 0.507893H36.049C35.7399 0.507893 35.5948 0.671818 35.5948 1.0131V23.0272C35.5948 23.2717 35.7883 23.5002 36.049 23.5002H41.9314C42.2727 23.5002 42.4339 23.3362 42.4339 23.0272V12.6947L48.2035 23.0595C48.3808 23.3524 48.6093 23.4975 48.8995 23.4975H54.6368C54.9781 23.4975 55.1393 23.3336 55.1393 23.0245V1.01041C55.1393 0.669128 54.9781 0.505203 54.6368 0.505203H54.6395Z" fill="white"/>
<path fill-rule="evenodd" clip-rule="evenodd" d="M72.225 0.943229C72.096 0.650317 71.8353 0.505203 71.4322 0.505203H64.6576C64.2519 0.505203 63.9939 0.650317 63.8649 0.943229L56.362 23.0568C56.2814 23.3013 56.4104 23.4948 56.6711 23.4948H63.2361C63.5774 23.4948 63.8031 23.3497 63.9321 23.0568L64.9371 19.5579H71.177L72.1659 23.0568C72.2949 23.3497 72.5233 23.4948 72.8619 23.4948H79.443C79.701 23.4948 79.8165 23.2664 79.7359 23.0568L72.233 0.943229H72.225ZM66.2619 14.7907L68.0436 8.46221L69.8414 14.7907H66.2592H66.2619Z" fill="white"/>
<path fill-rule="evenodd" clip-rule="evenodd" d="M93.8763 11.4075C92.4816 10.3836 90.974 9.60162 89.3536 9.06416C87.7332 8.52671 86.9216 7.95701 86.9216 7.38731C86.9216 6.73699 87.6015 6.2479 88.6227 6.23178C89.9179 6.34464 91.4739 6.93047 93.2905 7.97313C93.5807 8.15318 93.7768 8.05375 93.8897 7.69634L95.9804 2.99362C96.1255 2.79745 96.0288 2.60397 95.7197 2.4078C93.6452 0.975485 90.6301 0 88.2814 0C83.2239 0 79.8864 2.99362 79.8864 7.43568C79.8864 9.69836 80.9398 11.5687 82.3022 12.5925C83.6485 13.5842 85.1373 14.3661 86.7604 14.9197C88.3808 15.4894 89.1924 16.0591 89.2085 16.6288C89.2085 17.2791 88.5125 17.8327 87.4591 17.8327C86.0644 17.7199 84.5246 17.1985 82.8397 16.2392C82.5467 16.0591 82.3533 16.1424 82.2404 16.4998L80.1497 21.2026C80.0368 21.3826 80.1336 21.5761 80.4265 21.8045C82.0469 23.1213 84.9975 24 87.7842 24C92.89 24 96.3405 21.0386 96.3244 16.5966C96.3244 14.3016 95.2871 12.4313 93.8763 11.4048V11.4075Z" fill="white"/>
<path fill-rule="evenodd" clip-rule="evenodd" d="M101.18 17.6634C99.576 17.6634 98.2754 18.9694 98.2754 20.5791C98.2754 22.1888 99.576 23.4948 101.18 23.4948C102.785 23.4948 104.085 22.1888 104.085 20.5791C104.085 18.9694 102.785 17.6634 101.18 17.6634Z" fill="white"/>
<path fill-rule="evenodd" clip-rule="evenodd" d="M109.927 0.505203C107.788 0.505203 106.055 2.21968 106.055 4.33725V19.6654C106.055 21.783 107.788 23.4975 109.927 23.4975C112.066 23.4975 113.8 21.783 113.8 19.6654V4.33725C113.8 2.21968 112.066 0.505203 109.927 0.505203Z" fill="white"/>
<path fill-rule="evenodd" clip-rule="evenodd" d="M127.384 0.505203C120.967 0.505203 115.767 5.65132 115.767 12.0013C115.767 18.3514 120.967 23.4975 127.384 23.4975C133.801 23.4975 139.001 18.3514 139.001 12.0013C139.001 5.65132 133.798 0.505203 127.384 0.505203ZM127.37 17.0857C124.39 17.0857 121.977 14.6967 121.977 11.7487C121.977 8.8008 124.393 6.41182 127.37 6.41182C130.348 6.41182 132.764 8.8008 132.764 11.7487C132.764 14.6967 130.348 17.0857 127.37 17.0857Z" fill="white"/>
</svg>
