<svg xmlns="http://www.w3.org/2000/svg" width="686" height="445" fill="none"><circle cx="564.5" cy="126.088" r="31.654" fill="#7692E6"/><circle cx="564.5" cy="293.154" r="31.654" fill="#7692E6"/><circle cx="505.434" cy="150.555" r="31.654" fill="#7692E6" transform="rotate(-45 505.434 150.555)"/><circle cx="623.565" cy="268.688" r="31.654" fill="#7692E6" transform="rotate(-45 623.565 268.688)"/><circle cx="648.031" cy="209.619" r="31.654" fill="#7692E6" transform="rotate(90 648.031 209.619)"/><circle cx="480.967" cy="209.619" r="31.654" fill="#7692E6" transform="rotate(90 480.967 209.619)"/><circle cx="505.434" cy="268.687" r="31.654" fill="#7692E6" transform="rotate(-135 505.434 268.687)"/><circle cx="623.566" cy="150.555" r="31.654" fill="#7692E6" transform="rotate(-135 623.566 150.555)"/><circle cx="564.499" cy="24.093" r="70.343" fill="#7692E6"/><ellipse cx="564.499" cy="396.027" fill="#7692E6" rx="70.343" ry="71.222"/><circle cx="432.842" cy="77.961" r="70.558" fill="#7692E6" transform="rotate(-45 432.842 77.96)"/><circle cx="696.154" cy="341.281" r="70.558" fill="#7692E6" transform="rotate(-45 696.154 341.281)"/><ellipse cx="750.907" cy="209.62" fill="#7692E6" rx="71.222" ry="70.343" transform="rotate(90 750.907 209.62)"/><ellipse cx="378.091" cy="209.62" fill="#7692E6" rx="71.222" ry="70.343" transform="rotate(90 378.091 209.62)"/><circle cx="432.84" cy="341.279" r="70.558" fill="#7692E6" transform="rotate(-135 432.84 341.279)"/><circle cx="696.16" cy="77.967" r="70.558" fill="#7692E6" transform="rotate(-135 696.16 77.967)"/><circle cx="275.035" cy="-80.902" r="155.13" fill="#7692E6" transform="rotate(-45 275.035 -80.902)"/><circle cx="853.957" cy="498.035" r="155.13" fill="#7692E6" transform="rotate(-45 853.957 498.035)"/><ellipse cx="154.754" cy="208.739" fill="#7692E6" rx="156.512" ry="154.754" transform="rotate(90 154.754 208.739)"/><circle cx="275.031" cy="498.031" r="155.13" fill="#7692E6" transform="rotate(-135 275.031 498.031)"/><circle cx="853.969" cy="-80.891" r="155.13" fill="#7692E6" transform="rotate(-135 853.969 -80.89)"/></svg>